<svg width="9" height="16" viewBox="0 0 9 16" fill="none" xmlns="http://www.w3.org/2000/svg">
<path d="M5.14984e-05 8.00001C5.14984e-05 7.68002 0.0880518 7.41602 0.264052 7.20802C0.440052 7.00002 0.664053 6.89602 0.936053 6.89602C1.03205 6.89602 1.16805 6.91201 1.34405 6.94401C1.52005 6.96002 1.70405 6.98402 1.89605 7.01602C2.08805 7.04802 2.27205 7.08001 2.44805 7.11201C2.62405 7.14402 2.77605 7.17601 2.90405 7.20802C3.57605 7.33602 4.03205 7.45602 4.27205 7.56802C4.49605 7.68002 4.60805 7.82402 4.60805 8.00002C4.60805 8.17602 4.49605 8.32002 4.27205 8.43202C4.03205 8.54402 3.57605 8.66402 2.90405 8.79202C2.77605 8.80802 2.62405 8.84001 2.44805 8.88801C2.27205 8.92001 2.08805 8.95201 1.89605 8.98401C1.70405 9.01602 1.52005 9.04802 1.34405 9.08002C1.16805 9.09601 1.03205 9.10401 0.936053 9.10401C0.664053 9.10401 0.440052 9.00001 0.264052 8.79201C0.0880518 8.58401 5.14984e-05 8.32001 5.14984e-05 8.00001ZM2.18405 2.76801C2.40805 2.54401 2.65605 2.42402 2.92805 2.40802C3.20005 2.37601 3.43205 2.45601 3.62405 2.64802C3.72005 2.74401 3.88005 2.93602 4.10405 3.22402C4.31205 3.51202 4.52805 3.82401 4.75205 4.16001C4.96005 4.48001 5.15205 4.79202 5.32805 5.09601C5.48805 5.40001 5.56805 5.61601 5.56805 5.74401C5.56805 5.85601 5.52805 5.95201 5.44805 6.03202C5.32005 6.16002 5.13605 6.18402 4.89605 6.10402C4.64005 6.00801 4.23205 5.76801 3.67205 5.38402C3.57605 5.32001 3.44805 5.24002 3.28805 5.14402C3.12805 5.03201 2.97605 4.92002 2.83205 4.80801C2.67205 4.69601 2.52005 4.58401 2.37605 4.47201C2.23205 4.36001 2.12805 4.27202 2.06405 4.20802C1.88805 4.03201 1.80005 3.82401 1.80005 3.58401C1.80005 3.29601 1.92805 3.02401 2.18405 2.76801ZM2.18405 13.232C1.92805 12.976 1.80005 12.704 1.80005 12.416C1.80005 12.176 1.88805 11.968 2.06405 11.792C2.12805 11.712 2.23205 11.624 2.37605 11.528C2.52005 11.416 2.67205 11.304 2.83205 11.192C2.97605 11.08 3.12805 10.976 3.28805 10.88C3.44805 10.768 3.57605 10.68 3.67205 10.616C4.23205 10.232 4.64005 10 4.89605 9.92002C5.13605 9.82402 5.32005 9.84002 5.44805 9.96802C5.52805 10.048 5.56805 10.144 5.56805 10.256C5.56805 10.384 5.48805 10.6 5.32805 10.904C5.15205 11.208 4.96005 11.528 4.75205 11.864C4.52805 12.184 4.31205 12.488 4.10405 12.776C3.88005 13.064 3.72005 13.256 3.62405 13.352C3.43205 13.544 3.20005 13.632 2.92805 13.616C2.65605 13.584 2.40805 13.456 2.18405 13.232ZM7.39205 9.51201C6.94405 9.51201 6.58405 9.37602 6.31205 9.10402C6.02405 8.81602 5.88005 8.44802 5.88005 8.00002C5.88005 7.55202 6.02405 7.19201 6.31205 6.92002C6.58405 6.63202 6.94405 6.48802 7.39205 6.48802C7.84005 6.48802 8.20805 6.63202 8.49605 6.92002C8.76805 7.19201 8.90405 7.55202 8.90405 8.00002C8.90405 8.44802 8.76805 8.81602 8.49605 9.10402C8.20805 9.37602 7.84005 9.51201 7.39205 9.51201ZM7.39205 0.584015C7.71205 0.584015 7.97605 0.672014 8.18405 0.848014C8.39205 1.02401 8.49605 1.24802 8.49605 1.52002C8.49605 1.61602 8.48805 1.75202 8.47205 1.92801C8.44005 2.10402 8.40805 2.28802 8.37605 2.48001C8.34405 2.67202 8.31205 2.85602 8.28005 3.03201C8.23205 3.20802 8.20005 3.36001 8.18405 3.48801C8.05605 4.16001 7.93605 4.61601 7.82405 4.85602C7.71205 5.08002 7.56805 5.19201 7.39205 5.19201C7.21605 5.19201 7.07205 5.08002 6.96005 4.85602C6.84805 4.61601 6.72805 4.16001 6.60005 3.48801C6.56805 3.36001 6.53605 3.20802 6.50405 3.03201C6.47205 2.85602 6.44005 2.67202 6.40805 2.48001C6.37605 2.28802 6.35205 2.10402 6.33605 1.92801C6.30405 1.75202 6.28805 1.61602 6.28805 1.52002C6.28805 1.24802 6.39205 1.02401 6.60005 0.848014C6.80805 0.672014 7.07205 0.584015 7.39205 0.584015ZM7.39205 15.416C7.07205 15.416 6.80805 15.328 6.60005 15.152C6.39205 14.976 6.28805 14.752 6.28805 14.48C6.28805 14.384 6.30405 14.248 6.33605 14.072C6.35205 13.896 6.37605 13.712 6.40805 13.52C6.44005 13.328 6.47205 13.144 6.50405 12.968C6.53605 12.776 6.56805 12.624 6.60005 12.512C6.72805 11.84 6.84805 11.392 6.96005 11.168C7.07205 10.928 7.21605 10.808 7.39205 10.808C7.56805 10.808 7.71205 10.928 7.82405 11.168C7.93605 11.392 8.05605 11.84 8.18405 12.512C8.20005 12.624 8.23205 12.776 8.28005 12.968C8.31205 13.144 8.34405 13.328 8.37605 13.52C8.40805 13.712 8.44005 13.896 8.47205 14.072C8.48805 14.248 8.49605 14.384 8.49605 14.48C8.49605 14.752 8.39205 14.976 8.18405 15.152C7.97605 15.328 7.71205 15.416 7.39205 15.416Z" fill="#494949"/>
</svg>
