<svg width="10" height="16" viewBox="0 0 10 16" fill="none" xmlns="http://www.w3.org/2000/svg">
<path d="M9.80805 7.99999C9.80805 8.31998 9.72005 8.58398 9.54405 8.79198C9.36805 8.99998 9.14405 9.10398 8.87205 9.10398C8.77605 9.10398 8.64005 9.08799 8.46405 9.05599C8.28805 9.03998 8.10405 9.01598 7.91205 8.98398C7.72005 8.95198 7.53605 8.91999 7.36005 8.88799C7.18405 8.85598 7.03205 8.82399 6.90405 8.79198C6.23205 8.66398 5.77605 8.54398 5.53605 8.43198C5.31205 8.31998 5.20005 8.17598 5.20005 7.99998C5.20005 7.82398 5.31205 7.67998 5.53605 7.56798C5.77605 7.45598 6.23205 7.33598 6.90405 7.20798C7.03205 7.19198 7.18405 7.15999 7.36005 7.11199C7.53605 7.07999 7.72005 7.04799 7.91205 7.01599C8.10405 6.98398 8.28805 6.95198 8.46405 6.91998C8.64005 6.90399 8.77605 6.89599 8.87205 6.89599C9.14405 6.89599 9.36805 6.99999 9.54405 7.20799C9.72005 7.41599 9.80805 7.67999 9.80805 7.99999ZM7.62405 13.232C7.40005 13.456 7.15205 13.576 6.88005 13.592C6.60805 13.624 6.37605 13.544 6.18405 13.352C6.08805 13.256 5.92805 13.064 5.70405 12.776C5.49605 12.488 5.28005 12.176 5.05605 11.84C4.84805 11.52 4.65605 11.208 4.48005 10.904C4.32005 10.6 4.24005 10.384 4.24005 10.256C4.24005 10.144 4.28005 10.048 4.36005 9.96798C4.48805 9.83998 4.67205 9.81598 4.91205 9.89598C5.16805 9.99199 5.57605 10.232 6.13605 10.616C6.23205 10.68 6.36005 10.76 6.52005 10.856C6.68005 10.968 6.83205 11.08 6.97605 11.192C7.13605 11.304 7.28805 11.416 7.43205 11.528C7.57605 11.64 7.68005 11.728 7.74405 11.792C7.92005 11.968 8.00805 12.176 8.00805 12.416C8.00805 12.704 7.88005 12.976 7.62405 13.232ZM7.62405 2.76798C7.88005 3.02398 8.00805 3.29598 8.00805 3.58398C8.00805 3.82398 7.92005 4.03198 7.74405 4.20798C7.68005 4.28798 7.57605 4.37598 7.43205 4.47198C7.28805 4.58398 7.13605 4.69598 6.97605 4.80798C6.83205 4.91998 6.68005 5.02398 6.52005 5.11998C6.36005 5.23198 6.23205 5.31998 6.13605 5.38399C5.57605 5.76798 5.16805 5.99998 4.91205 6.07998C4.67205 6.17598 4.48805 6.15998 4.36005 6.03198C4.28005 5.95198 4.24005 5.85598 4.24005 5.74398C4.24005 5.61598 4.32005 5.39999 4.48005 5.09598C4.65605 4.79198 4.84805 4.47198 5.05605 4.13598C5.28005 3.81598 5.49605 3.51198 5.70405 3.22398C5.92805 2.93598 6.08805 2.74398 6.18405 2.64798C6.37605 2.45598 6.60805 2.36798 6.88005 2.38398C7.15205 2.41598 7.40005 2.54398 7.62405 2.76798ZM2.41605 6.48799C2.86405 6.48799 3.22405 6.62398 3.49605 6.89598C3.78405 7.18398 3.92805 7.55198 3.92805 7.99998C3.92805 8.44798 3.78405 8.80799 3.49605 9.07998C3.22405 9.36798 2.86405 9.51198 2.41605 9.51198C1.96805 9.51198 1.60005 9.36798 1.31205 9.07998C1.04005 8.80799 0.904053 8.44798 0.904053 7.99998C0.904053 7.55198 1.04005 7.18398 1.31205 6.89598C1.60005 6.62398 1.96805 6.48799 2.41605 6.48799ZM2.41605 15.416C2.09605 15.416 1.83205 15.328 1.62405 15.152C1.41605 14.976 1.31205 14.752 1.31205 14.48C1.31205 14.384 1.32005 14.248 1.33605 14.072C1.36805 13.896 1.40005 13.712 1.43205 13.52C1.46405 13.328 1.49605 13.144 1.52805 12.968C1.57605 12.792 1.60805 12.64 1.62405 12.512C1.75205 11.84 1.87205 11.384 1.98405 11.144C2.09605 10.92 2.24005 10.808 2.41605 10.808C2.59205 10.808 2.73605 10.92 2.84805 11.144C2.96005 11.384 3.08005 11.84 3.20805 12.512C3.24005 12.64 3.27205 12.792 3.30405 12.968C3.33605 13.144 3.36805 13.328 3.40005 13.52C3.43205 13.712 3.45605 13.896 3.47205 14.072C3.50405 14.248 3.52005 14.384 3.52005 14.48C3.52005 14.752 3.41605 14.976 3.20805 15.152C3.00005 15.328 2.73605 15.416 2.41605 15.416ZM2.41605 0.583984C2.73605 0.583984 3.00005 0.671984 3.20805 0.847984C3.41605 1.02398 3.52005 1.24798 3.52005 1.51998C3.52005 1.61598 3.50405 1.75198 3.47205 1.92798C3.45605 2.10398 3.43205 2.28798 3.40005 2.47998C3.36805 2.67198 3.33605 2.85598 3.30405 3.03198C3.27205 3.22398 3.24005 3.37598 3.20805 3.48798C3.08005 4.15998 2.96005 4.60798 2.84805 4.83198C2.73605 5.07198 2.59205 5.19198 2.41605 5.19198C2.24005 5.19198 2.09605 5.07198 1.98405 4.83198C1.87205 4.60798 1.75205 4.15998 1.62405 3.48798C1.60805 3.37598 1.57605 3.22398 1.52805 3.03198C1.49605 2.85598 1.46405 2.67198 1.43205 2.47998C1.40005 2.28798 1.36805 2.10398 1.33605 1.92798C1.32005 1.75198 1.31205 1.61598 1.31205 1.51998C1.31205 1.24798 1.41605 1.02398 1.62405 0.847984C1.83205 0.671984 2.09605 0.583984 2.41605 0.583984Z" fill="#494949"/>
</svg>
