<svg width="145" height="32" viewBox="0 0 145 32" fill="none" xmlns="http://www.w3.org/2000/svg">
<path fill-rule="evenodd" clip-rule="evenodd" d="M2.05034 25.0069C2.45309 25.6659 2.92906 26.2883 3.44165 26.8741L14.3158 16.0366L3.44165 5.16247C2.92906 5.74828 2.4897 6.37071 2.05034 7.02975L11.0206 16.0366L2.05034 25.0069ZM0 11.6064C0.21968 10.7643 0.512586 9.95881 0.878718 9.18993L7.68879 16L0.878718 22.8101C0.512586 22.0412 0.21968 21.2357 0 20.3936L4.39359 16L0 11.6064ZM5.12586 28.5217L16 17.6842L26.8009 28.5217C26.2151 29.0343 25.5927 29.4737 24.9336 29.913L15.9634 20.9428L6.99313 29.913C6.3341 29.5103 5.71167 29.0343 5.12586 28.5217ZM16 24.3112L22.8101 31.1213C22.0412 31.4874 21.2357 31.7803 20.3936 32L16 27.6064L11.6064 32C10.7643 31.7803 9.95881 31.4874 9.18993 31.1213L16 24.3112ZM26.8741 3.44165L16 14.3158L5.12586 3.44165C5.71167 2.92906 6.3341 2.4897 6.99313 2.05034L16 11.0206L25.0069 2.05034C25.6659 2.45309 26.2883 2.92906 26.8741 3.44165ZM32 20.3936C31.7803 21.2357 31.4874 22.0412 31.1213 22.8101L24.3112 16L31.1213 9.18993C31.4874 9.95881 31.7803 10.7643 32 11.6064L27.6064 16L32 20.3936ZM29.913 7.02975L20.9428 16L29.9497 25.0069C29.5469 25.6659 29.0709 26.2883 28.5584 26.8741L17.6842 16L28.5217 5.16247C29.0343 5.74828 29.4737 6.37071 29.913 7.02975ZM22.8101 0.878719L16 7.68879L9.18993 0.878719C9.95881 0.512586 10.7643 0.21968 11.6064 0L16 4.39359L20.3936 0C21.2357 0.21968 22.0412 0.512586 22.8101 0.878719ZM62.1328 27.8261C62.7552 27.5332 62.9749 26.8009 62.682 26.1785L51.9909 4.72311C51.7712 4.32036 51.3685 4.06407 50.8925 4.06407C50.4165 4.06407 50.0138 4.32036 49.7941 4.72311L39.103 26.1419C38.8101 26.7643 39.0664 27.4966 39.6522 27.7895C40.2747 28.0824 41.0069 27.8261 41.2998 27.2403L50.8925 8.0183L60.4852 27.3135C60.7049 27.7162 61.1442 27.9725 61.5836 27.9725C61.7667 27.9725 61.9497 27.8993 62.1328 27.8261ZM68.7232 25.4828H88.9337C89.6293 25.4828 90.1786 26.032 90.1419 26.6911C90.1419 27.3501 89.5927 27.8993 88.9337 27.8993H67.5149C66.8559 27.8993 66.3067 27.3501 66.3067 26.6911V5.27231C66.3067 4.61327 66.8559 4.06407 67.5149 4.06407C68.174 4.06407 68.7232 4.61327 68.7232 5.27231V25.4828ZM94.8284 25.4828H116.247C116.943 25.4828 117.492 26.032 117.455 26.6911C117.455 27.3501 116.906 27.8993 116.247 27.8993H94.8284C94.1694 27.8993 93.6202 27.3501 93.6202 26.6911C93.6202 26.032 94.1694 25.4828 94.8284 25.4828ZM94.8284 4.06407H116.247C116.943 4.06407 117.455 4.61327 117.455 5.27231C117.455 5.93135 116.906 6.48055 116.247 6.48055H94.8284C94.1694 6.48055 93.6202 5.93135 93.6202 5.27231C93.6202 4.61327 94.1694 4.06407 94.8284 4.06407ZM94.8284 14.7918H116.247C116.943 14.7918 117.455 15.341 117.455 16C117.455 16.659 116.906 17.2082 116.247 17.2082H94.8284C94.1694 17.2082 93.6202 16.659 93.6202 16C93.6202 15.341 94.1694 14.7918 94.8284 14.7918ZM134.993 12.1556C134.517 12.6316 134.517 13.4005 134.993 13.8764C135.469 14.3524 136.238 14.3524 136.714 13.8764L144.439 6.15103C144.915 5.67505 144.989 4.90618 144.549 4.4302C144.11 3.91762 143.268 3.91762 142.792 4.39359L134.993 12.1556ZM130.783 12.1556C131.259 12.6316 131.259 13.4005 130.783 13.8764C130.307 14.3524 129.538 14.3524 129.025 13.8398L121.263 6.0778C120.714 5.56521 120.787 4.64988 121.446 4.21052C121.922 3.881 122.618 3.99084 123.021 4.39359L130.783 12.1556ZM134.993 19.8078C134.517 19.3318 134.517 18.5629 134.993 18.087C135.469 17.611 136.238 17.611 136.751 18.0503L144.476 25.8124C144.952 26.2883 145.025 27.0572 144.586 27.5332C144.366 27.8261 144 27.9725 143.671 27.9725C143.341 27.9725 143.048 27.8627 142.792 27.6064L134.993 19.8078ZM121.3 25.8124L129.062 18.087C129.538 17.611 130.307 17.611 130.783 18.087C131.259 18.5629 131.259 19.3318 130.783 19.8078L122.984 27.6064C122.728 27.8627 122.435 27.9725 122.105 27.9725C121.776 27.9725 121.446 27.8261 121.19 27.5332C120.751 27.0206 120.824 26.2883 121.3 25.8124Z" fill="white"/>
</svg>
