<svg width="168" height="50" viewBox="0 0 168 50" fill="none" xmlns="http://www.w3.org/2000/svg">
<g opacity="0.4">
<path d="M49.5457 0H1.7689C1.47425 0 1.19166 0.116967 0.983405 0.32545C0.774922 0.533709 0.657959 0.816297 0.657959 1.11116V48.8879C0.657959 49.1826 0.774922 49.4652 0.983405 49.6734C1.19166 49.8819 1.47425 49.9989 1.7689 49.9989H49.5457C49.8405 49.9989 50.1231 49.8819 50.3314 49.6734C50.5399 49.4652 50.6568 49.1826 50.6568 48.8879V1.11116C50.6568 0.816297 50.5399 0.533709 50.3314 0.32545C50.1231 0.116967 49.8405 0 49.5457 0ZM33.9905 32.2216C33.9905 32.5162 33.8735 32.7988 33.665 33.0073C33.4568 33.2155 33.1742 33.3327 32.8795 33.3327H18.4353C18.1406 33.3327 17.858 33.2155 17.6495 33.0073C17.4413 32.7988 17.3243 32.5162 17.3243 32.2216V17.7773C17.3243 17.4827 17.4413 17.2001 17.6495 16.9918C17.858 16.7833 18.1406 16.6664 18.4353 16.6664H32.8795C33.1742 16.6664 33.4568 16.7833 33.665 16.9918C33.8735 17.2001 33.9905 17.4827 33.9905 17.7773V32.2216Z" fill="#494949"/>
<path d="M149.571 16.6682H135.127C134.514 16.6682 134.016 17.1655 134.016 17.7791V32.2234C134.016 32.837 134.514 33.3345 135.127 33.3345H149.571C150.185 33.3345 150.682 32.837 150.682 32.2234V17.7791C150.682 17.1655 150.185 16.6682 149.571 16.6682Z" fill="#494949"/>
<path d="M132.898 0.00134196H118.454C117.841 0.00134196 117.343 0.498665 117.343 1.11251V15.5565C117.343 16.1702 117.841 16.6677 118.454 16.6677H132.898C133.512 16.6677 134.009 16.1702 134.009 15.5565V1.11251C134.009 0.498665 133.512 0.00134196 132.898 0.00134196Z" fill="#494949"/>
<path d="M166.231 0.00134196H151.787C151.173 0.00134196 150.676 0.498665 150.676 1.11251V15.5565C150.676 16.1702 151.173 16.6677 151.787 16.6677H166.231C166.845 16.6677 167.342 16.1702 167.342 15.5565V1.11251C167.342 0.498665 166.845 0.00134196 166.231 0.00134196Z" fill="#494949"/>
<path d="M132.898 33.3336H118.454C117.841 33.3336 117.343 33.8309 117.343 34.4446V48.8888C117.343 49.5024 117.841 50 118.454 50H132.898C133.512 50 134.009 49.5024 134.009 48.8888V34.4446C134.009 33.8309 133.512 33.3336 132.898 33.3336Z" fill="#494949"/>
<path d="M166.231 33.3336H151.787C151.173 33.3336 150.676 33.8309 150.676 34.4446V48.8888C150.676 49.5024 151.173 50 151.787 50H166.231C166.845 50 167.342 49.5024 167.342 48.8888V34.4446C167.342 33.8309 166.845 33.3336 166.231 33.3336Z" fill="#494949"/>
<path d="M107.878 0.00134196H93.4338C92.8202 0.00134196 92.3226 0.498665 92.3226 1.11251V15.5565C92.3226 16.1702 92.8202 16.6677 93.4338 16.6677H107.878C108.491 16.6677 108.989 16.1702 108.989 15.5565V1.11251C108.989 0.498665 108.491 0.00134196 107.878 0.00134196Z" fill="#494949"/>
<path d="M107.878 33.3336H93.4338C92.8202 33.3336 92.3226 33.8309 92.3226 34.4446V48.8888C92.3226 49.5024 92.8202 50 93.4338 50H107.878C108.491 50 108.989 49.5024 108.989 48.8888V34.4446C108.989 33.8309 108.491 33.3336 107.878 33.3336Z" fill="#494949"/>
<path d="M92.3226 17.7648C92.3226 17.4702 92.2055 17.1876 91.9972 16.9793C91.7887 16.7708 91.5061 16.6539 91.2115 16.6539H75.6563V1.11116C75.6563 0.816297 75.5391 0.533709 75.3308 0.32545C75.1223 0.116967 74.8398 0 74.5451 0H60.1011C59.8062 0 59.5236 0.116967 59.3154 0.32545C59.1069 0.533709 58.9899 0.816297 58.9899 1.11116V48.8629C58.9899 49.1576 59.1069 49.4402 59.3154 49.6484C59.5236 49.8569 59.8062 49.9739 60.1011 49.9739H74.5451C74.8398 49.9739 75.1223 49.8569 75.3308 49.6484C75.5391 49.4402 75.6563 49.1576 75.6563 48.8629V33.3202H91.2115C91.5061 33.3202 91.7887 33.203 91.9972 32.9948C92.2055 32.7863 92.3226 32.5037 92.3226 32.2091V17.7648Z" fill="#494949"/>
</g>
</svg>
