<svg width="220" height="36" viewBox="0 0 220 36" fill="none" xmlns="http://www.w3.org/2000/svg">
<g opacity="0.4">
<path d="M39.5571 0.901855C58.6887 0.901855 79.1142 5.70786 79.1142 17.7691C79.1142 29.8765 58.6887 35.0984 39.5571 35.0984C20.4255 35.0984 0 30.2924 0 18.2312C0 6.12376 20.4255 0.901855 39.5571 0.901855ZM39.6495 28.5364C48.1525 28.5364 60.9069 26.1334 60.9069 18.0001C60.9069 9.8669 48.1525 7.4639 39.6495 7.4639H39.4647C30.9618 7.4639 18.2074 9.8669 18.2074 18.0001C18.2074 26.1334 30.9618 28.5364 39.4647 28.5364H39.6495Z" fill="black"/>
<path d="M141.276 1.91851C141.414 1.8723 141.553 1.82609 141.692 1.82609H160.731C161.701 1.82609 162.025 3.0738 161.193 3.53591L128.845 21.3274C128.567 21.466 128.383 21.7895 128.383 22.113V33.25C128.383 33.7583 127.967 34.1742 127.458 34.1742H111.423C110.915 34.1742 110.499 33.7583 110.499 33.25V22.113C110.499 21.7895 110.314 21.466 110.037 21.3274L77.7347 3.53591C76.9029 3.0738 77.2264 1.82609 78.1507 1.82609H97.1898C97.3285 1.82609 97.5133 1.8723 97.6519 1.91851L119.002 13.7025C119.279 13.8411 119.602 13.8411 119.88 13.7025L141.276 1.91851Z" fill="black"/>
<path d="M167.226 2.75032C167.226 2.24199 167.596 1.82609 168.104 1.82609H183.909C184.371 1.82609 184.787 2.24199 184.787 2.75032V26.5955C184.787 27.1038 185.203 27.5197 185.711 27.5197H219.122C219.63 27.5197 220 27.9356 220 28.4439V33.25C220 33.7583 219.63 34.1742 219.122 34.1742H168.104C167.596 34.1742 167.226 33.7583 167.226 33.25V2.75032Z" fill="black"/>
</g>
</svg>
