<svg width="201" height="200" viewBox="0 0 201 200" fill="none" xmlns="http://www.w3.org/2000/svg">
<path d="M55.0454 1.67074e-06H48.9848V6.06064H55.0454V1.67074e-06Z" fill="black"/>
<path d="M73.2272 1.67074e-06H67.1666V6.06064H73.2272V1.67074e-06Z" fill="black"/>
<path d="M79.2878 1.67074e-06H73.2272V6.06064H79.2878V1.67074e-06Z" fill="black"/>
<path d="M85.3484 1.67074e-06H79.2878V6.06064H85.3484V1.67074e-06Z" fill="black"/>
<path d="M97.4696 1.67074e-06H91.409V6.06064H97.4696V1.67074e-06Z" fill="black"/>
<path d="M115.651 1.67074e-06H109.591V6.06064H115.651V1.67074e-06Z" fill="black"/>
<path d="M145.954 1.67074e-06H139.894V6.06064H145.954V1.67074e-06Z" fill="black"/>
<path d="M61.1062 6.06098L55.0454 6.06064L55.0455 12.1216H61.1062V6.06098Z" fill="black"/>
<path d="M67.1666 6.06064L61.1062 6.06098V12.1216H67.1667L67.1666 6.06064Z" fill="black"/>
<path d="M73.2272 6.06064H67.1666L67.1667 12.1216H73.2272V6.06064Z" fill="black"/>
<path d="M79.2878 6.06064H73.2272V12.1216H79.2878V6.06064Z" fill="black"/>
<path d="M85.3484 6.06064H79.2878V12.1216H85.3484V6.06064Z" fill="black"/>
<path d="M91.409 6.06064H85.3484V12.1216H91.4091L91.409 6.06064Z" fill="black"/>
<path d="M115.651 6.06064H109.591V12.1216H115.651V6.06064Z" fill="black"/>
<path d="M121.712 6.06098L115.651 6.06064V12.1216H121.712V6.06098Z" fill="black"/>
<path d="M67.1667 12.1216H61.1062L61.1062 18.1825H67.1667V12.1216Z" fill="black"/>
<path d="M79.2878 12.1216H73.2272L73.2272 18.1825H79.2878V12.1216Z" fill="black"/>
<path d="M91.4091 12.1216H85.3484L85.3485 18.1825H91.4091V12.1216Z" fill="black"/>
<path d="M97.4696 12.1219L91.4091 12.1216V18.1825H97.4696V12.1219Z" fill="black"/>
<path d="M103.53 12.1219H97.4696V18.1825H103.53V12.1219Z" fill="black"/>
<path d="M109.591 12.1216L103.53 12.1219V18.1825H109.591L109.591 12.1216Z" fill="black"/>
<path d="M115.651 12.1216H109.591L109.591 18.1825H115.651V12.1216Z" fill="black"/>
<path d="M121.712 12.1216H115.651V18.1825H121.712V12.1216Z" fill="black"/>
<path d="M133.833 12.1219H127.773V18.1825H133.833V12.1219Z" fill="black"/>
<path d="M145.954 12.1219H139.894V18.1825H145.954V12.1219Z" fill="black"/>
<path d="M55.0456 18.1836H48.985V24.2443H55.0456V18.1836Z" fill="black"/>
<path d="M61.1062 18.1825L55.0456 18.1836V24.2443H61.1063L61.1062 18.1825Z" fill="black"/>
<path d="M73.2272 18.1825H67.1667L67.1669 24.2443H73.2275L73.2272 18.1825Z" fill="black"/>
<path d="M79.2878 18.1825H73.2272L73.2275 24.2443H79.2881L79.2878 18.1825Z" fill="black"/>
<path d="M103.53 18.1825H97.4696L97.47 24.2443H103.531L103.53 18.1825Z" fill="black"/>
<path d="M109.591 18.1825H103.53L103.531 24.2443H109.591L109.591 18.1825Z" fill="black"/>
<path d="M133.833 18.1825H127.773L127.772 24.2443H133.833L133.833 18.1825Z" fill="black"/>
<path d="M139.894 18.1825H133.833L133.833 24.2443H139.894L139.894 18.1825Z" fill="black"/>
<path d="M55.0454 24.2417H48.9848V30.3022H55.0454V24.2417Z" fill="black"/>
<path d="M61.1062 24.2417H55.0454V30.3022H61.1062V24.2417Z" fill="black"/>
<path d="M103.53 24.2417H97.4697V30.3022H103.53V24.2417Z" fill="black"/>
<path d="M109.591 24.2417H103.53V30.3022H109.591V24.2417Z" fill="black"/>
<path d="M121.712 24.2417H115.651V30.3022H121.712V24.2417Z" fill="black"/>
<path d="M133.833 24.2417H127.773V30.3022H133.833V24.2417Z" fill="black"/>
<path d="M139.894 24.2417H133.833V30.3022H139.894V24.2417Z" fill="black"/>
<path d="M55.0454 30.3022H48.9848L48.985 36.3638H55.0456L55.0454 30.3022Z" fill="black"/>
<path d="M61.1062 30.3022H55.0454L55.0456 36.3638H61.1063L61.1062 30.3022Z" fill="black"/>
<path d="M67.1667 30.3032L61.1062 30.3022L61.1063 36.3638H67.1667V30.3032Z" fill="black"/>
<path d="M79.2881 30.3032H73.2275V36.3638H79.2881V30.3032Z" fill="black"/>
<path d="M97.4697 30.3022L91.4094 30.3032V36.3638H97.47L97.4697 30.3022Z" fill="black"/>
<path d="M109.591 30.3022H103.53L103.531 36.3638H109.591L109.591 30.3022Z" fill="black"/>
<path d="M127.773 30.3022H121.712L121.712 36.3638H127.772L127.773 30.3022Z" fill="black"/>
<path d="M133.833 30.3022H127.773L127.772 36.3638H133.833L133.833 30.3022Z" fill="black"/>
<path d="M139.894 30.3022H133.833L133.833 36.3638H139.894L139.894 30.3022Z" fill="black"/>
<path d="M145.954 30.3032L139.894 30.3022L139.894 36.3638H145.954V30.3032Z" fill="black"/>
<path d="M152.015 30.3032H145.954V36.3638H152.015V30.3032Z" fill="black"/>
<path d="M55.0456 36.3638H48.985V42.4235H55.0456V36.3638Z" fill="black"/>
<path d="M67.1667 36.3638H61.1063L61.1063 42.4235H67.1667V36.3638Z" fill="black"/>
<path d="M79.2881 36.3638H73.2275V42.4235H79.2881V36.3638Z" fill="black"/>
<path d="M91.4094 36.3638L85.3487 36.3629V42.4235H91.4093L91.4094 36.3638Z" fill="black"/>
<path d="M103.531 36.3638H97.47L97.47 42.4235H103.531L103.531 36.3638Z" fill="black"/>
<path d="M115.651 36.3629L109.591 36.3638L109.59 42.4235H115.651V36.3629Z" fill="black"/>
<path d="M127.772 36.3638H121.712V42.4235H127.772V36.3638Z" fill="black"/>
<path d="M139.894 36.3638H133.833L133.834 42.4235H139.894V36.3638Z" fill="black"/>
<path d="M152.015 36.3638H145.954L145.954 42.4235H152.015V36.3638Z" fill="black"/>
<path d="M55.0456 42.4235H48.985L48.9848 48.4852H55.0454L55.0456 42.4235Z" fill="black"/>
<path d="M73.2275 42.4235H67.1667L67.1666 48.4852H73.2272L73.2275 42.4235Z" fill="black"/>
<path d="M91.4093 42.4235H85.3487L85.3485 48.4852H91.4091L91.4093 42.4235Z" fill="black"/>
<path d="M109.59 42.4235H103.531L103.53 48.4852H109.591L109.59 42.4235Z" fill="black"/>
<path d="M115.651 42.4235H109.59L109.591 48.4852H115.651L115.651 42.4235Z" fill="black"/>
<path d="M121.712 42.4235H115.651L115.651 48.4852H121.712L121.712 42.4235Z" fill="black"/>
<path d="M127.772 42.4235H121.712L121.712 48.4852H127.773L127.772 42.4235Z" fill="black"/>
<path d="M133.834 42.4235H127.772L127.773 48.4852H133.833L133.834 42.4235Z" fill="black"/>
<path d="M152.015 42.4235H145.954L145.954 48.4852H152.015L152.015 42.4235Z" fill="black"/>
<path d="M6.56067 48.4855H0.50004V54.5461H6.56067V48.4855Z" fill="black"/>
<path d="M30.8031 48.4855H24.7425V54.5461H30.8031V48.4855Z" fill="black"/>
<path d="M42.9242 48.4855H36.8636V54.5461H42.9242V48.4855Z" fill="black"/>
<path d="M48.9848 48.4852L42.9242 48.4855V54.5461H48.9848L48.9848 48.4852Z" fill="black"/>
<path d="M55.0454 48.4852H48.9848L48.9848 54.5461H55.0454V48.4852Z" fill="black"/>
<path d="M67.1666 48.4852L61.1062 48.4855V54.5461H67.1667L67.1666 48.4852Z" fill="black"/>
<path d="M79.2878 48.4855L73.2272 48.4852L73.2272 54.5461H79.2878V48.4855Z" fill="black"/>
<path d="M97.4696 48.4855L91.4091 48.4852L91.409 54.5461H97.4696V48.4855Z" fill="black"/>
<path d="M109.591 48.4852H103.53V54.5461H109.591V48.4852Z" fill="black"/>
<path d="M127.773 48.4852H121.712L121.712 54.5461H127.773V48.4852Z" fill="black"/>
<path d="M133.833 48.4852H127.773V54.5461H133.833V48.4852Z" fill="black"/>
<path d="M139.894 48.4855L133.833 48.4852V54.5461H139.894V48.4855Z" fill="black"/>
<path d="M145.954 48.4852L139.894 48.4855V54.5461H145.954L145.954 48.4852Z" fill="black"/>
<path d="M158.076 48.4855L152.015 48.4852L152.015 54.5461H158.076V48.4855Z" fill="black"/>
<path d="M164.136 48.4855H158.076V54.5461H164.136V48.4855Z" fill="black"/>
<path d="M170.197 48.4855H164.136V54.5461H170.197V48.4855Z" fill="black"/>
<path d="M176.257 48.4855H170.197V54.5461H176.257V48.4855Z" fill="black"/>
<path d="M182.318 48.4855H176.257V54.5461H182.318V48.4855Z" fill="black"/>
<path d="M200.5 48.4855H194.439V54.5461H200.5V48.4855Z" fill="black"/>
<path d="M12.6212 54.5457L6.56067 54.5461L6.56066 60.6064H12.6212V54.5457Z" fill="black"/>
<path d="M36.8636 54.5461H30.8031L30.8032 60.6064H36.8638L36.8636 54.5461Z" fill="black"/>
<path d="M48.9848 54.5461H42.9242L42.9244 60.6064H48.985L48.9848 54.5461Z" fill="black"/>
<path d="M67.1667 54.5461H61.1062L61.1063 60.6064H67.1667L67.1667 54.5461Z" fill="black"/>
<path d="M73.2272 54.5461H67.1667L67.1667 60.6064H73.2275L73.2272 54.5461Z" fill="black"/>
<path d="M97.4696 54.5461H91.409L91.4094 60.6064H97.47L97.4696 54.5461Z" fill="black"/>
<path d="M103.53 54.5461H97.4696L97.47 60.6064H103.531L103.53 54.5461Z" fill="black"/>
<path d="M109.591 54.5461H103.53L103.531 60.6064H109.591L109.591 54.5461Z" fill="black"/>
<path d="M115.651 54.5457L109.591 54.5461L109.591 60.6064H115.651V54.5457Z" fill="black"/>
<path d="M133.833 54.5461H127.773L127.772 60.6064H133.833L133.833 54.5461Z" fill="black"/>
<path d="M139.894 54.5461H133.833L133.833 60.6064H139.894L139.894 54.5461Z" fill="black"/>
<path d="M145.954 54.5461H139.894L139.894 60.6064H145.954L145.954 54.5461Z" fill="black"/>
<path d="M158.076 54.5461H152.015L152.015 60.6064H158.075L158.076 54.5461Z" fill="black"/>
<path d="M182.318 54.5461H176.257L176.257 60.6064H182.318L182.318 54.5461Z" fill="black"/>
<path d="M188.378 54.5457L182.318 54.5461L182.318 60.6064H188.378V54.5457Z" fill="black"/>
<path d="M200.5 54.5461H194.439L194.439 60.6064H200.5L200.5 54.5461Z" fill="black"/>
<path d="M6.56066 60.6064L0.50004 60.6053V66.6658H6.56067L6.56066 60.6064Z" fill="black"/>
<path d="M18.6819 60.6053L12.6212 60.6064L12.6213 66.6658H18.6819V60.6053Z" fill="black"/>
<path d="M30.8032 60.6064L24.7425 60.6053V66.6658H30.8031L30.8032 60.6064Z" fill="black"/>
<path d="M36.8638 60.6064H30.8032L30.8031 66.6658H36.8636L36.8638 60.6064Z" fill="black"/>
<path d="M42.9244 60.6064H36.8638L36.8636 66.6658H42.9242L42.9244 60.6064Z" fill="black"/>
<path d="M48.985 60.6064H42.9244L42.9242 66.6658H48.9848L48.985 60.6064Z" fill="black"/>
<path d="M55.0454 60.6053L48.985 60.6064L48.9848 66.6658H55.0454V60.6053Z" fill="black"/>
<path d="M85.3484 60.6053H79.2878V66.6658H85.3484V60.6053Z" fill="black"/>
<path d="M91.4094 60.6064L85.3484 60.6053V66.6658H91.4091L91.4094 60.6064Z" fill="black"/>
<path d="M97.47 60.6064H91.4094L91.4091 66.6658H97.4696L97.47 60.6064Z" fill="black"/>
<path d="M115.651 60.6064H109.591L109.591 66.6658H115.651L115.651 60.6064Z" fill="black"/>
<path d="M145.954 60.6064H139.894L139.894 66.6658H145.954L145.954 60.6064Z" fill="black"/>
<path d="M158.075 60.6064H152.015L152.015 66.6658H158.076L158.075 60.6064Z" fill="black"/>
<path d="M182.318 60.6064H176.257L176.257 66.6658H182.318L182.318 60.6064Z" fill="black"/>
<path d="M194.439 60.6064H188.378L188.379 66.6658H194.439L194.439 60.6064Z" fill="black"/>
<path d="M18.6819 66.6658H12.6213L12.6213 72.7276H18.6819L18.6819 66.6658Z" fill="black"/>
<path d="M30.8031 66.6658H24.7425L24.7425 72.7276H30.8031L30.8031 66.6658Z" fill="black"/>
<path d="M48.9848 66.6658H42.9242L42.9244 72.7276H48.985L48.9848 66.6658Z" fill="black"/>
<path d="M67.1667 66.667H61.1063V72.7276H67.1667V66.667Z" fill="black"/>
<path d="M79.2878 66.6658L73.2275 66.667V72.7276H79.2881L79.2878 66.6658Z" fill="black"/>
<path d="M85.3484 66.6658H79.2878L79.2881 72.7276H85.3487L85.3484 66.6658Z" fill="black"/>
<path d="M103.531 66.667L97.4696 66.6658L97.47 72.7276H103.531V66.667Z" fill="black"/>
<path d="M121.712 66.667L115.651 66.6658L115.652 72.7276H121.712V66.667Z" fill="black"/>
<path d="M127.772 66.667H121.712V72.7276H127.772V66.667Z" fill="black"/>
<path d="M139.894 66.6658L133.834 66.667V72.7276H139.894L139.894 66.6658Z" fill="black"/>
<path d="M152.015 66.6658H145.954L145.954 72.7276H152.015L152.015 66.6658Z" fill="black"/>
<path d="M158.076 66.6658H152.015L152.015 72.7276H158.075L158.076 66.6658Z" fill="black"/>
<path d="M164.136 66.667L158.076 66.6658L158.075 72.7276H164.136V66.667Z" fill="black"/>
<path d="M6.56067 72.7267H0.50004V78.7873H6.56067V72.7267Z" fill="black"/>
<path d="M18.6819 72.7276H12.6213V78.7873H18.6819V72.7276Z" fill="black"/>
<path d="M24.7425 72.7276H18.6819V78.7873H24.7426L24.7425 72.7276Z" fill="black"/>
<path d="M42.9244 72.7276L36.8638 72.7267V78.7873H42.9244L42.9244 72.7276Z" fill="black"/>
<path d="M55.0456 72.7267L48.985 72.7276L48.985 78.7873H55.0456V72.7267Z" fill="black"/>
<path d="M67.1667 72.7276H61.1063V78.7873H67.1667V72.7276Z" fill="black"/>
<path d="M79.2881 72.7276H73.2275V78.7873H79.2881V72.7276Z" fill="black"/>
<path d="M85.3487 72.7276H79.2881V78.7873H85.3487V72.7276Z" fill="black"/>
<path d="M103.531 72.7276H97.47V78.7873H103.531V72.7276Z" fill="black"/>
<path d="M139.894 72.7276H133.834V78.7873H139.894V72.7276Z" fill="black"/>
<path d="M145.954 72.7276H139.894V78.7873H145.954L145.954 72.7276Z" fill="black"/>
<path d="M152.015 72.7276H145.954L145.954 78.7873H152.015V72.7276Z" fill="black"/>
<path d="M164.136 72.7276H158.075L158.075 78.7873H164.136V72.7276Z" fill="black"/>
<path d="M170.197 72.7267L164.136 72.7276V78.7873H170.197V72.7267Z" fill="black"/>
<path d="M182.318 72.7267H176.257V78.7873H182.318V72.7267Z" fill="black"/>
<path d="M200.5 72.7267H194.439V78.7873H200.5V72.7267Z" fill="black"/>
<path d="M6.56067 78.7873H0.50004V84.8488H6.56067V78.7873Z" fill="black"/>
<path d="M18.6819 78.7873H12.6213L12.6213 84.8488H18.6819L18.6819 78.7873Z" fill="black"/>
<path d="M24.7426 78.7873H18.6819L18.6819 84.8488H24.7425L24.7426 78.7873Z" fill="black"/>
<path d="M30.8031 78.7882L24.7426 78.7873L24.7425 84.8488H30.8031V78.7882Z" fill="black"/>
<path d="M36.8638 78.7873L30.8031 78.7882V84.8488H36.8636L36.8638 78.7873Z" fill="black"/>
<path d="M48.985 78.7873H42.9244L42.9243 84.8488H48.9848L48.985 78.7873Z" fill="black"/>
<path d="M67.1667 78.7873H61.1063L61.1062 84.8488H67.1667L67.1667 78.7873Z" fill="black"/>
<path d="M73.2275 78.7873H67.1667L67.1667 84.8488H73.2272L73.2275 78.7873Z" fill="black"/>
<path d="M91.4091 78.7882L85.3487 78.7873L85.3485 84.8488H91.4091V78.7882Z" fill="black"/>
<path d="M109.591 78.7882L103.531 78.7873L103.53 84.8488H109.591V78.7882Z" fill="black"/>
<path d="M115.651 78.7882H109.591V84.8488H115.651V78.7882Z" fill="black"/>
<path d="M121.712 78.7882H115.651V84.8488H121.712V78.7882Z" fill="black"/>
<path d="M127.773 78.7882H121.712V84.8488H127.773V78.7882Z" fill="black"/>
<path d="M152.015 78.7873H145.954L145.954 84.8488H152.015L152.015 78.7873Z" fill="black"/>
<path d="M158.075 78.7873H152.015L152.015 84.8488H158.076L158.075 78.7873Z" fill="black"/>
<path d="M170.197 78.7873H164.136L164.136 84.8488H170.197L170.197 78.7873Z" fill="black"/>
<path d="M188.379 78.7882L182.318 78.7873L182.318 84.8488H188.379V78.7882Z" fill="black"/>
<path d="M18.6819 84.8488H12.6213L12.6213 90.9103H18.6819L18.6819 84.8488Z" fill="black"/>
<path d="M30.8031 84.8488H24.7425L24.7425 90.9103H30.8031L30.8031 84.8488Z" fill="black"/>
<path d="M36.8636 84.8488H30.8031L30.8031 90.9103H36.8638L36.8636 84.8488Z" fill="black"/>
<path d="M42.9243 84.8488H36.8636L36.8638 90.9103H42.9244L42.9243 84.8488Z" fill="black"/>
<path d="M67.1667 84.8488H61.1062L61.1063 90.9103H67.1667L67.1667 84.8488Z" fill="black"/>
<path d="M73.2272 84.8488H67.1667L67.1667 90.9103H73.2275L73.2272 84.8488Z" fill="black"/>
<path d="M79.2881 84.8497L73.2272 84.8488L73.2275 90.9103H79.2881V84.8497Z" fill="black"/>
<path d="M91.4091 84.8488H85.3485L85.3487 90.9103H91.4093L91.4091 84.8488Z" fill="black"/>
<path d="M97.47 84.8497L91.4091 84.8488L91.4093 90.9103H97.47V84.8497Z" fill="black"/>
<path d="M109.591 84.8488H103.53L103.531 90.9103H109.591L109.591 84.8488Z" fill="black"/>
<path d="M115.651 84.8488H109.591L109.591 90.9103H115.651L115.651 84.8488Z" fill="black"/>
<path d="M127.773 84.8488H121.712L121.712 90.9103H127.772L127.773 84.8488Z" fill="black"/>
<path d="M133.833 84.8497L127.773 84.8488L127.772 90.9103H133.833V84.8497Z" fill="black"/>
<path d="M145.954 84.8488L139.893 84.8497V90.9103H145.954L145.954 84.8488Z" fill="black"/>
<path d="M152.015 84.8488H145.954L145.954 90.9103H152.015L152.015 84.8488Z" fill="black"/>
<path d="M158.076 84.8488H152.015L152.015 90.9103H158.075L158.076 84.8488Z" fill="black"/>
<path d="M164.136 84.8488H158.076L158.075 90.9103H164.136L164.136 84.8488Z" fill="black"/>
<path d="M176.257 84.8497L170.197 84.8488L170.197 90.9103H176.257V84.8497Z" fill="black"/>
<path d="M194.439 84.8497L188.379 84.8488L188.378 90.9103H194.439V84.8497Z" fill="black"/>
<path d="M6.56067 90.9095H0.50004V96.9701H6.56067V90.9095Z" fill="black"/>
<path d="M12.6213 90.9103L6.56067 90.9095V96.9701H12.6212L12.6213 90.9103Z" fill="black"/>
<path d="M18.6819 90.9103H12.6213L12.6212 96.9701H18.6819V90.9103Z" fill="black"/>
<path d="M24.7425 90.9103H18.6819V96.9701H24.7426L24.7425 90.9103Z" fill="black"/>
<path d="M30.8031 90.9103H24.7425L24.7426 96.9701H30.8031V90.9103Z" fill="black"/>
<path d="M48.985 90.9095L42.9244 90.9103L42.9244 96.9701H48.985V90.9095Z" fill="black"/>
<path d="M67.1667 90.9103H61.1063V96.9701H67.1667V90.9103Z" fill="black"/>
<path d="M73.2275 90.9103H67.1667V96.9701H73.2275V90.9103Z" fill="black"/>
<path d="M85.3487 90.9103H79.2881L79.2881 96.9701H85.3487L85.3487 90.9103Z" fill="black"/>
<path d="M91.4093 90.9103H85.3487L85.3487 96.9701H91.4093V90.9103Z" fill="black"/>
<path d="M97.47 90.9103H91.4093V96.9701H97.47V90.9103Z" fill="black"/>
<path d="M103.531 90.9103H97.47V96.9701H103.531L103.531 90.9103Z" fill="black"/>
<path d="M109.591 90.9103H103.531L103.531 96.9701H109.591V90.9103Z" fill="black"/>
<path d="M115.651 90.9103H109.591V96.9701H115.651V90.9103Z" fill="black"/>
<path d="M133.833 90.9103H127.772L127.772 96.9701H133.833V90.9103Z" fill="black"/>
<path d="M145.954 90.9103H139.893V96.9701H145.954V90.9103Z" fill="black"/>
<path d="M158.075 90.9103H152.015L152.015 96.9701H158.075V90.9103Z" fill="black"/>
<path d="M164.136 90.9103H158.075V96.9701H164.136V90.9103Z" fill="black"/>
<path d="M170.197 90.9103H164.136V96.9701H170.197L170.197 90.9103Z" fill="black"/>
<path d="M6.56067 96.9701H0.50004V103.029H6.56067V96.9701Z" fill="black"/>
<path d="M12.6212 96.9701H6.56067V103.029H12.6213L12.6212 96.9701Z" fill="black"/>
<path d="M24.7426 96.9701H18.6819L18.6818 103.029H24.7425L24.7426 96.9701Z" fill="black"/>
<path d="M30.8031 96.9701H24.7426L24.7425 103.029H30.8031L30.8031 96.9701Z" fill="black"/>
<path d="M36.8636 96.9689L30.8031 96.9701L30.8031 103.029H36.8636V96.9689Z" fill="black"/>
<path d="M42.9244 96.9701L36.8636 96.9689V103.029H42.9242L42.9244 96.9701Z" fill="black"/>
<path d="M55.0454 96.9689L48.985 96.9701L48.9848 103.029H55.0454V96.9689Z" fill="black"/>
<path d="M61.1063 96.9701L55.0454 96.9689V103.029H61.1062L61.1063 96.9701Z" fill="black"/>
<path d="M79.2881 96.9701H73.2275L73.2272 103.029H79.2878L79.2881 96.9701Z" fill="black"/>
<path d="M109.591 96.9701H103.531L103.53 103.029H109.591L109.591 96.9701Z" fill="black"/>
<path d="M115.651 96.9701H109.591L109.591 103.029H115.651L115.651 96.9701Z" fill="black"/>
<path d="M121.712 96.9689L115.651 96.9701L115.651 103.029H121.712V96.9689Z" fill="black"/>
<path d="M127.772 96.9701L121.712 96.9689V103.029H127.773L127.772 96.9701Z" fill="black"/>
<path d="M133.833 96.9701H127.772L127.773 103.029H133.833L133.833 96.9701Z" fill="black"/>
<path d="M139.893 96.9701H133.833L133.833 103.029H139.894L139.893 96.9701Z" fill="black"/>
<path d="M152.015 96.9701H145.954L145.954 103.029H152.015L152.015 96.9701Z" fill="black"/>
<path d="M164.136 96.9701H158.075L158.076 103.029H164.136L164.136 96.9701Z" fill="black"/>
<path d="M176.257 96.9689L170.197 96.9701L170.197 103.029H176.257V96.9689Z" fill="black"/>
<path d="M182.318 96.9689H176.257V103.029H182.318V96.9689Z" fill="black"/>
<path d="M194.439 96.9689H188.379V103.029H194.439V96.9689Z" fill="black"/>
<path d="M6.56067 103.029H0.50004V109.09H6.56067V103.029Z" fill="black"/>
<path d="M12.6213 103.029H6.56067V109.09H12.6212L12.6213 103.029Z" fill="black"/>
<path d="M30.8031 103.029H24.7425L24.7425 109.09H30.8031L30.8031 103.029Z" fill="black"/>
<path d="M36.8636 103.029H30.8031L30.8031 109.09H36.8638L36.8636 103.029Z" fill="black"/>
<path d="M48.9848 103.029H42.9242L42.9244 109.09H48.985L48.9848 103.029Z" fill="black"/>
<path d="M55.0454 103.029H48.9848L48.985 109.09H55.0456L55.0454 103.029Z" fill="black"/>
<path d="M61.1062 103.029H55.0454L55.0456 109.09H61.1063L61.1062 103.029Z" fill="black"/>
<path d="M67.1667 103.029L61.1062 103.029L61.1063 109.09H67.1667V103.029Z" fill="black"/>
<path d="M97.47 103.029H91.4094V109.09H97.47V103.029Z" fill="black"/>
<path d="M103.53 103.029L97.47 103.029V109.09H103.531L103.53 103.029Z" fill="black"/>
<path d="M115.651 103.029H109.591L109.59 109.09H115.651L115.651 103.029Z" fill="black"/>
<path d="M127.773 103.029H121.712L121.712 109.09H127.772L127.773 103.029Z" fill="black"/>
<path d="M139.894 103.029H133.833L133.834 109.09H139.894L139.894 103.029Z" fill="black"/>
<path d="M145.954 103.029H139.894L139.894 109.09H145.954L145.954 103.029Z" fill="black"/>
<path d="M152.015 103.029H145.954L145.954 109.09H152.015L152.015 103.029Z" fill="black"/>
<path d="M182.318 103.029H176.257L176.257 109.09H182.318L182.318 103.029Z" fill="black"/>
<path d="M188.379 103.029H182.318L182.318 109.09H188.378L188.379 103.029Z" fill="black"/>
<path d="M194.439 103.029H188.379L188.378 109.09H194.439L194.439 103.029Z" fill="black"/>
<path d="M6.56067 109.09H0.50004V115.151H6.56067V109.09Z" fill="black"/>
<path d="M18.6819 109.091L12.6212 109.09L12.6213 115.151H18.6819V109.091Z" fill="black"/>
<path d="M24.7425 109.09L18.6819 109.091V115.151H24.7425L24.7425 109.09Z" fill="black"/>
<path d="M30.8031 109.09H24.7425L24.7425 115.151H30.8031L30.8031 109.09Z" fill="black"/>
<path d="M42.9244 109.09H36.8638L36.8636 115.151H42.9242L42.9244 109.09Z" fill="black"/>
<path d="M48.985 109.09H42.9244L42.9242 115.151H48.9848L48.985 109.09Z" fill="black"/>
<path d="M67.1667 109.09H61.1063L61.1062 115.151H67.1667L67.1667 109.09Z" fill="black"/>
<path d="M79.2878 109.091H73.2272V115.151H79.2878V109.091Z" fill="black"/>
<path d="M85.3484 109.091H79.2878V115.151H85.3484V109.091Z" fill="black"/>
<path d="M97.47 109.09H91.4094L91.409 115.151H97.4696L97.47 109.09Z" fill="black"/>
<path d="M103.531 109.09H97.47L97.4696 115.151H103.53L103.531 109.09Z" fill="black"/>
<path d="M109.59 109.09H103.531L103.53 115.151H109.591L109.59 109.09Z" fill="black"/>
<path d="M127.772 109.09H121.712L121.712 115.151H127.773L127.772 109.09Z" fill="black"/>
<path d="M133.834 109.09H127.772L127.773 115.151H133.833L133.834 109.09Z" fill="black"/>
<path d="M139.894 109.09H133.834L133.833 115.151H139.894L139.894 109.09Z" fill="black"/>
<path d="M145.954 109.09H139.894L139.894 115.151H145.954L145.954 109.09Z" fill="black"/>
<path d="M152.015 109.09H145.954L145.954 115.151H152.015L152.015 109.09Z" fill="black"/>
<path d="M158.076 109.091L152.015 109.09L152.015 115.151H158.076V109.091Z" fill="black"/>
<path d="M170.197 109.091H164.136V115.151H170.197V109.091Z" fill="black"/>
<path d="M182.318 109.09H176.257L176.257 115.151H182.318L182.318 109.09Z" fill="black"/>
<path d="M194.439 109.09H188.378L188.379 115.151H194.439L194.439 109.09Z" fill="black"/>
<path d="M12.6213 115.151H6.56067L6.56073 121.212H12.6213L12.6213 115.151Z" fill="black"/>
<path d="M18.6819 115.151H12.6213L12.6213 121.212H18.6819V115.151Z" fill="black"/>
<path d="M30.8031 115.151H24.7425L24.7425 121.212H30.8031V115.151Z" fill="black"/>
<path d="M48.9848 115.151H42.9242L42.9243 121.212H48.9848V115.151Z" fill="black"/>
<path d="M67.1667 115.151H61.1062V121.212H67.1667V115.151Z" fill="black"/>
<path d="M79.2878 115.151H73.2272V121.212H79.2878V115.151Z" fill="black"/>
<path d="M85.3484 115.151H79.2878V121.212H85.3484V115.151Z" fill="black"/>
<path d="M97.4696 115.151H91.409V121.212H97.4696V115.151Z" fill="black"/>
<path d="M109.591 115.151H103.53L103.53 121.212H109.591V115.151Z" fill="black"/>
<path d="M115.651 115.152L109.591 115.151V121.212H115.651V115.152Z" fill="black"/>
<path d="M127.773 115.151H121.712V121.212H127.773V115.151Z" fill="black"/>
<path d="M133.833 115.151H127.773V121.212H133.833V115.151Z" fill="black"/>
<path d="M152.015 115.151H145.954L145.954 121.212H152.015V115.151Z" fill="black"/>
<path d="M158.076 115.151H152.015V121.212H158.076V115.151Z" fill="black"/>
<path d="M164.136 115.151H158.076V121.212H164.136L164.136 115.151Z" fill="black"/>
<path d="M170.197 115.151H164.136L164.136 121.212H170.197V115.151Z" fill="black"/>
<path d="M194.439 115.151H188.379V121.212H194.439V115.151Z" fill="black"/>
<path d="M6.56073 121.212L0.50004 121.214V127.274H6.56067L6.56073 121.212Z" fill="black"/>
<path d="M18.6819 121.212H12.6213L12.6213 127.274H18.6819L18.6819 121.212Z" fill="black"/>
<path d="M36.8638 121.214L30.8031 121.212L30.8032 127.274H36.8638V121.214Z" fill="black"/>
<path d="M42.9243 121.212L36.8638 121.214V127.274H42.9244L42.9243 121.212Z" fill="black"/>
<path d="M48.9848 121.212H42.9243L42.9244 127.274H48.985L48.9848 121.212Z" fill="black"/>
<path d="M61.1062 121.212L55.0456 121.214V127.274H61.1063L61.1062 121.212Z" fill="black"/>
<path d="M73.2272 121.212H67.1667L67.1669 127.274H73.2275L73.2272 121.212Z" fill="black"/>
<path d="M85.3484 121.212H79.2878L79.2881 127.274H85.3487L85.3484 121.212Z" fill="black"/>
<path d="M91.409 121.212H85.3484L85.3487 127.274H91.4093L91.409 121.212Z" fill="black"/>
<path d="M115.651 121.212H109.591L109.59 127.274H115.651L115.651 121.212Z" fill="black"/>
<path d="M121.712 121.212H115.651L115.651 127.274H121.712L121.712 121.212Z" fill="black"/>
<path d="M127.773 121.212H121.712L121.712 127.274H127.772L127.773 121.212Z" fill="black"/>
<path d="M164.136 121.212H158.076L158.075 127.274H164.136L164.136 121.212Z" fill="black"/>
<path d="M170.197 121.212H164.136L164.136 127.274H170.197L170.197 121.212Z" fill="black"/>
<path d="M176.257 121.214L170.197 121.212L170.197 127.274H176.257V121.214Z" fill="black"/>
<path d="M182.318 121.214H176.257V127.274H182.318V121.214Z" fill="black"/>
<path d="M6.56067 127.274H0.50004V133.335H6.56067V127.274Z" fill="black"/>
<path d="M24.7425 127.274L18.6819 127.274L18.6818 133.335H24.7425V127.274Z" fill="black"/>
<path d="M36.8638 127.274H30.8032L30.803 133.335H36.8636L36.8638 127.274Z" fill="black"/>
<path d="M79.2881 127.274H73.2275L73.2272 133.335H79.2878L79.2881 127.274Z" fill="black"/>
<path d="M103.53 127.274H97.4697V133.335H103.53V127.274Z" fill="black"/>
<path d="M109.59 127.274L103.53 127.274V133.335H109.591L109.59 127.274Z" fill="black"/>
<path d="M121.712 127.274H115.651L115.651 133.335H121.712L121.712 127.274Z" fill="black"/>
<path d="M139.894 127.274H133.833V133.335H139.894V127.274Z" fill="black"/>
<path d="M164.136 127.274H158.075L158.076 133.335H164.136L164.136 127.274Z" fill="black"/>
<path d="M182.318 127.274H176.257L176.257 133.335H182.318L182.318 127.274Z" fill="black"/>
<path d="M188.379 127.274L182.318 127.274L182.318 133.335H188.379V127.274Z" fill="black"/>
<path d="M194.439 127.274H188.379V133.335H194.439V127.274Z" fill="black"/>
<path d="M30.803 133.335H24.7425L24.7425 139.393H30.8031L30.803 133.335Z" fill="black"/>
<path d="M36.8636 133.335H30.803L30.8031 139.393H36.8638L36.8636 133.335Z" fill="black"/>
<path d="M42.9244 133.333L36.8636 133.335L36.8638 139.393H42.9244V133.333Z" fill="black"/>
<path d="M48.985 133.333H42.9244V139.393H48.985V133.333Z" fill="black"/>
<path d="M73.2272 133.335L67.1669 133.333V139.393H73.2275L73.2272 133.335Z" fill="black"/>
<path d="M79.2878 133.335H73.2272L73.2275 139.393H79.2881L79.2878 133.335Z" fill="black"/>
<path d="M91.4093 133.333H85.3487V139.393H91.4093V133.333Z" fill="black"/>
<path d="M103.53 133.335H97.4697L97.47 139.393H103.531L103.53 133.335Z" fill="black"/>
<path d="M115.651 133.335H109.591L109.59 139.393H115.651L115.651 133.335Z" fill="black"/>
<path d="M121.712 133.335H115.651L115.651 139.393H121.712L121.712 133.335Z" fill="black"/>
<path d="M133.833 133.335L127.772 133.333V139.393H133.833L133.833 133.335Z" fill="black"/>
<path d="M145.954 133.333L139.894 133.335L139.893 139.393H145.954V133.333Z" fill="black"/>
<path d="M152.015 133.333H145.954V139.393H152.015V133.333Z" fill="black"/>
<path d="M158.076 133.335L152.015 133.333V139.393H158.075L158.076 133.335Z" fill="black"/>
<path d="M188.379 133.335H182.318L182.318 139.393H188.378L188.379 133.335Z" fill="black"/>
<path d="M194.439 133.335H188.379L188.378 139.393H194.439L194.439 133.335Z" fill="black"/>
<path d="M24.7425 139.393L18.6819 139.393V145.453H24.7426L24.7425 139.393Z" fill="black"/>
<path d="M30.8031 139.393H24.7425L24.7426 145.453H30.8031V139.393Z" fill="black"/>
<path d="M36.8638 139.393H30.8031V145.453H36.8638V139.393Z" fill="black"/>
<path d="M48.985 139.393H42.9244L42.9244 145.453H48.985V139.393Z" fill="black"/>
<path d="M55.0456 139.393L48.985 139.393V145.453H55.0456V139.393Z" fill="black"/>
<path d="M67.1669 139.393L61.1063 139.393V145.453H67.1667L67.1669 139.393Z" fill="black"/>
<path d="M85.3487 139.393H79.2881L79.2881 145.453H85.3487L85.3487 139.393Z" fill="black"/>
<path d="M109.59 139.393H103.531L103.531 145.453H109.591L109.59 139.393Z" fill="black"/>
<path d="M115.651 139.393H109.59L109.591 145.453H115.651V139.393Z" fill="black"/>
<path d="M121.712 139.393H115.651V145.453H121.712V139.393Z" fill="black"/>
<path d="M127.772 139.393H121.712V145.453H127.772L127.772 139.393Z" fill="black"/>
<path d="M133.833 139.393H127.772L127.772 145.453H133.833V139.393Z" fill="black"/>
<path d="M139.893 139.393H133.833V145.453H139.894L139.893 139.393Z" fill="black"/>
<path d="M158.075 139.393H152.015L152.015 145.453H158.075V139.393Z" fill="black"/>
<path d="M164.136 139.393L158.075 139.393V145.453H164.136V139.393Z" fill="black"/>
<path d="M176.257 139.393H170.197V145.453H176.257V139.393Z" fill="black"/>
<path d="M182.318 139.393L176.257 139.393V145.453H182.318V139.393Z" fill="black"/>
<path d="M194.439 139.393H188.378L188.378 145.453H194.439V139.393Z" fill="black"/>
<path d="M200.5 139.393L194.439 139.393V145.453H200.5V139.393Z" fill="black"/>
<path d="M6.56067 145.454H0.50004V151.515H6.56067V145.454Z" fill="black"/>
<path d="M12.6213 145.454H6.56067V151.515H12.6213V145.454Z" fill="black"/>
<path d="M18.6819 145.453L12.6213 145.454V151.515H18.6819L18.6819 145.453Z" fill="black"/>
<path d="M30.8031 145.453H24.7426L24.7425 151.515H30.8031L30.8031 145.453Z" fill="black"/>
<path d="M42.9244 145.453H36.8638L36.8636 151.515H42.9242L42.9244 145.453Z" fill="black"/>
<path d="M48.985 145.453H42.9244L42.9242 151.515H48.9848L48.985 145.453Z" fill="black"/>
<path d="M67.1667 145.453H61.1063L61.1062 151.515H67.1667L67.1667 145.453Z" fill="black"/>
<path d="M73.2272 145.454L67.1667 145.453L67.1667 151.515H73.2272V145.454Z" fill="black"/>
<path d="M85.3487 145.453H79.2881L79.2878 151.515H85.3484L85.3487 145.453Z" fill="black"/>
<path d="M91.4091 145.454L85.3487 145.453L85.3484 151.515H91.4091V145.454Z" fill="black"/>
<path d="M97.4696 145.454H91.4091V151.515H97.4696V145.454Z" fill="black"/>
<path d="M103.531 145.453L97.4696 145.454V151.515H103.53L103.531 145.453Z" fill="black"/>
<path d="M109.591 145.453H103.531L103.53 151.515H109.591L109.591 145.453Z" fill="black"/>
<path d="M127.772 145.453H121.712L121.712 151.515H127.773L127.772 145.453Z" fill="black"/>
<path d="M133.833 145.453H127.772L127.773 151.515H133.833L133.833 145.453Z" fill="black"/>
<path d="M139.894 145.453H133.833L133.833 151.515H139.894L139.894 145.453Z" fill="black"/>
<path d="M152.015 145.453L145.954 145.454V151.515H152.015L152.015 145.453Z" fill="black"/>
<path d="M158.075 145.453H152.015L152.015 151.515H158.076L158.075 145.453Z" fill="black"/>
<path d="M164.136 145.453H158.075L158.076 151.515H164.136L164.136 145.453Z" fill="black"/>
<path d="M170.197 145.453H164.136L164.136 151.515H170.197L170.197 145.453Z" fill="black"/>
<path d="M176.257 145.453H170.197L170.197 151.515H176.257L176.257 145.453Z" fill="black"/>
<path d="M182.318 145.453H176.257L176.257 151.515H182.318L182.318 145.453Z" fill="black"/>
<path d="M194.439 145.453H188.378L188.379 151.515H194.439L194.439 145.453Z" fill="black"/>
<path d="M55.0456 151.516L48.9848 151.515L48.985 157.576H55.0456V151.516Z" fill="black"/>
<path d="M67.1667 151.515H61.1062L61.1063 157.576H67.1667L67.1667 151.515Z" fill="black"/>
<path d="M73.2272 151.515H67.1667L67.1667 157.576H73.2275L73.2272 151.515Z" fill="black"/>
<path d="M85.3484 151.515H79.2878L79.2881 157.576H85.3487L85.3484 151.515Z" fill="black"/>
<path d="M91.4091 151.515H85.3484L85.3487 157.576H91.4093L91.4091 151.515Z" fill="black"/>
<path d="M97.4696 151.515H91.4091L91.4093 157.576H97.47L97.4696 151.515Z" fill="black"/>
<path d="M103.53 151.515H97.4696L97.47 157.576H103.531L103.53 151.515Z" fill="black"/>
<path d="M109.591 151.515H103.53L103.531 157.576H109.591L109.591 151.515Z" fill="black"/>
<path d="M133.833 151.515H127.773L127.772 157.576H133.833L133.833 151.515Z" fill="black"/>
<path d="M139.894 151.515H133.833L133.833 157.576H139.894L139.894 151.515Z" fill="black"/>
<path d="M145.954 151.515H139.894L139.894 157.576H145.954L145.954 151.515Z" fill="black"/>
<path d="M152.015 151.515H145.954L145.954 157.576H152.015L152.015 151.515Z" fill="black"/>
<path d="M176.257 151.515H170.197L170.197 157.576H176.257L176.257 151.515Z" fill="black"/>
<path d="M188.379 151.515H182.318L182.318 157.576H188.378L188.379 151.515Z" fill="black"/>
<path d="M55.0456 157.576H48.985V163.636H55.0456V157.576Z" fill="black"/>
<path d="M61.1063 157.576H55.0456V163.636H61.1063L61.1063 157.576Z" fill="black"/>
<path d="M67.1667 157.576H61.1063L61.1063 163.636H67.1667V157.576Z" fill="black"/>
<path d="M91.4093 157.576H85.3487L85.3487 163.636H91.4093V157.576Z" fill="black"/>
<path d="M97.47 157.576H91.4093V163.636H97.47V157.576Z" fill="black"/>
<path d="M115.651 157.576L109.591 157.576L109.59 163.636H115.651V157.576Z" fill="black"/>
<path d="M152.015 157.576H145.954L145.954 163.636H152.015V157.576Z" fill="black"/>
<path d="M164.136 157.576H158.075V163.636H164.136V157.576Z" fill="black"/>
<path d="M176.257 157.576H170.197V163.636H176.257V157.576Z" fill="black"/>
<path d="M182.318 157.576H176.257V163.636H182.318V157.576Z" fill="black"/>
<path d="M73.2272 163.637L67.1667 163.636L67.1666 169.698H73.2272V163.637Z" fill="black"/>
<path d="M91.4093 163.636H85.3487L85.3485 169.698H91.4091L91.4093 163.636Z" fill="black"/>
<path d="M97.47 163.636H91.4093L91.4091 169.698H97.4696L97.47 163.636Z" fill="black"/>
<path d="M103.53 163.637L97.47 163.636L97.4696 169.698H103.53V163.637Z" fill="black"/>
<path d="M121.712 163.637L115.651 163.636L115.651 169.698H121.712V163.637Z" fill="black"/>
<path d="M139.894 163.637H133.833V169.698H139.894V163.637Z" fill="black"/>
<path d="M152.015 163.636H145.954L145.954 169.698H152.015L152.015 163.636Z" fill="black"/>
<path d="M176.257 163.636H170.197L170.197 169.698H176.257L176.257 163.636Z" fill="black"/>
<path d="M200.5 163.637H194.439V169.698H200.5V163.637Z" fill="black"/>
<path d="M55.0456 169.697H48.985V175.757H55.0456V169.697Z" fill="black"/>
<path d="M73.2272 169.698H67.1666L67.1669 175.757H73.2275L73.2272 169.698Z" fill="black"/>
<path d="M79.2881 169.697L73.2272 169.698L73.2275 175.757H79.2881V169.697Z" fill="black"/>
<path d="M85.3485 169.698L79.2881 169.697V175.757H85.3487L85.3485 169.698Z" fill="black"/>
<path d="M91.4091 169.698H85.3485L85.3487 175.757H91.4093L91.4091 169.698Z" fill="black"/>
<path d="M103.53 169.698H97.4696L97.47 175.757H103.531L103.53 169.698Z" fill="black"/>
<path d="M121.712 169.698H115.651L115.652 175.757H121.712L121.712 169.698Z" fill="black"/>
<path d="M139.894 169.698H133.833L133.834 175.757H139.894L139.894 169.698Z" fill="black"/>
<path d="M152.015 169.698H145.954L145.954 175.757H152.015L152.015 169.698Z" fill="black"/>
<path d="M158.075 169.697L152.015 169.698L152.015 175.757H158.075V169.697Z" fill="black"/>
<path d="M164.136 169.697H158.075V175.757H164.136V169.697Z" fill="black"/>
<path d="M170.197 169.698L164.136 169.697V175.757H170.197L170.197 169.698Z" fill="black"/>
<path d="M176.257 169.698H170.197L170.197 175.757H176.257L176.257 169.698Z" fill="black"/>
<path d="M182.318 169.697L176.257 169.698L176.257 175.757H182.318V169.697Z" fill="black"/>
<path d="M200.5 169.698H194.439L194.439 175.757H200.5L200.5 169.698Z" fill="black"/>
<path d="M61.1062 175.757L55.0456 175.757L55.0455 181.818H61.1062V175.757Z" fill="black"/>
<path d="M67.1669 175.757L61.1062 175.757V181.818H67.1667L67.1669 175.757Z" fill="black"/>
<path d="M79.2881 175.757H73.2275L73.2272 181.818H79.2878L79.2881 175.757Z" fill="black"/>
<path d="M85.3487 175.757H79.2881L79.2878 181.818H85.3484L85.3487 175.757Z" fill="black"/>
<path d="M115.652 175.757L109.591 175.757V181.818H115.651L115.652 175.757Z" fill="black"/>
<path d="M121.712 175.757H115.652L115.651 181.818H121.712L121.712 175.757Z" fill="black"/>
<path d="M127.773 175.757L121.712 175.757L121.712 181.818H127.773V175.757Z" fill="black"/>
<path d="M145.954 175.757H139.894L139.894 181.818H145.954L145.954 175.757Z" fill="black"/>
<path d="M164.136 175.757H158.075L158.076 181.818H164.136L164.136 175.757Z" fill="black"/>
<path d="M170.197 175.757H164.136L164.136 181.818H170.197L170.197 175.757Z" fill="black"/>
<path d="M176.257 175.757H170.197L170.197 181.818H176.257L176.257 175.757Z" fill="black"/>
<path d="M182.318 175.757H176.257L176.257 181.818H182.318L182.318 175.757Z" fill="black"/>
<path d="M188.379 175.757L182.318 175.757L182.318 181.818H188.379V175.757Z" fill="black"/>
<path d="M194.439 175.757L188.379 175.757V181.818H194.439L194.439 175.757Z" fill="black"/>
<path d="M61.1062 181.818H55.0455V187.879H61.1062V181.818Z" fill="black"/>
<path d="M79.2878 181.818H73.2272V187.879H79.2878V181.818Z" fill="black"/>
<path d="M91.4091 181.818L85.3484 181.818L85.3485 187.879H91.4091V181.818Z" fill="black"/>
<path d="M97.4696 181.818H91.4091V187.879H97.4696V181.818Z" fill="black"/>
<path d="M115.651 181.818H109.591V187.879H115.651V181.818Z" fill="black"/>
<path d="M127.773 181.818H121.712L121.712 187.879H127.773V181.818Z" fill="black"/>
<path d="M133.833 181.818L127.773 181.818V187.879H133.833V181.818Z" fill="black"/>
<path d="M158.076 181.818L152.015 181.818V187.879H158.076L158.076 181.818Z" fill="black"/>
<path d="M164.136 181.818H158.076L158.076 187.879H164.136V181.818Z" fill="black"/>
<path d="M170.197 181.818H164.136V187.879H170.197V181.818Z" fill="black"/>
<path d="M176.257 181.818H170.197V187.879H176.257V181.818Z" fill="black"/>
<path d="M182.318 181.818H176.257V187.879H182.318V181.818Z" fill="black"/>
<path d="M73.2272 187.879L67.1669 187.88V193.94H73.2275L73.2272 187.879Z" fill="black"/>
<path d="M79.2878 187.879H73.2272L73.2275 193.94H79.2881L79.2878 187.879Z" fill="black"/>
<path d="M85.3485 187.879H79.2878L79.2881 193.94H85.3487L85.3485 187.879Z" fill="black"/>
<path d="M97.4696 187.879H91.4091L91.4094 193.94H97.47L97.4696 187.879Z" fill="black"/>
<path d="M103.531 187.88L97.4696 187.879L97.47 193.94H103.531V187.88Z" fill="black"/>
<path d="M109.591 187.879L103.531 187.88V193.94H109.591L109.591 187.879Z" fill="black"/>
<path d="M115.651 187.879H109.591L109.591 193.94H115.651L115.651 187.879Z" fill="black"/>
<path d="M133.833 187.879H127.773L127.772 193.94H133.833L133.833 187.879Z" fill="black"/>
<path d="M145.954 187.88H139.893V193.94H145.954V187.88Z" fill="black"/>
<path d="M152.015 187.879L145.954 187.88V193.94H152.015L152.015 187.879Z" fill="black"/>
<path d="M164.136 187.879H158.076L158.075 193.94H164.136L164.136 187.879Z" fill="black"/>
<path d="M55.0456 193.939H48.985V200H55.0456V193.939Z" fill="black"/>
<path d="M67.1669 193.94L61.1063 193.939V200H67.1667L67.1669 193.94Z" fill="black"/>
<path d="M109.591 193.94H103.531L103.531 200H109.591V193.94Z" fill="black"/>
<path d="M121.712 193.939L115.651 193.94L115.652 200H121.712V193.939Z" fill="black"/>
<path d="M127.772 193.94L121.712 193.939V200H127.772L127.772 193.94Z" fill="black"/>
<path d="M133.833 193.94H127.772L127.772 200H133.833V193.94Z" fill="black"/>
<path d="M139.893 193.94H133.833V200H139.894L139.893 193.94Z" fill="black"/>
<path d="M145.954 193.94H139.893L139.894 200H145.954V193.94Z" fill="black"/>
<path d="M152.015 193.94H145.954V200H152.015V193.94Z" fill="black"/>
<path d="M158.075 193.94H152.015V200H158.075L158.075 193.94Z" fill="black"/>
<path d="M164.136 193.94H158.075L158.075 200H164.136V193.94Z" fill="black"/>
<path d="M182.318 193.939H176.257V200H182.318V193.939Z" fill="black"/>
<path d="M200.5 193.939H194.439V200H200.5V193.939Z" fill="black"/>
<path d="M0.5 0V42.4243H42.9242V0H0.5ZM36.5606 36.0606H6.86363V6.36364H36.5606V36.0606Z" fill="black"/>
<path d="M30.803 12.1219H12.6212V30.3038H30.803V12.1219Z" fill="black"/>
<path d="M158.076 0V42.4243H200.5V0H158.076ZM194.136 36.0606H164.439V6.36364H194.136V36.0606Z" fill="black"/>
<path d="M188.379 12.1219H170.197V30.3038H188.379V12.1219Z" fill="black"/>
<path d="M0.50002 157.576V200H42.9242V157.576H0.50002ZM36.5606 193.636H6.86365V163.939H36.5606V193.636Z" fill="black"/>
<path d="M30.8031 169.697H12.6213V187.879H30.8031V169.697Z" fill="black"/>
</svg>
