<svg width="228" height="50" viewBox="0 0 228 50" fill="none" xmlns="http://www.w3.org/2000/svg">
<g opacity="0.4">
<mask id="mask0_302_1304" style="mask-type:luminance" maskUnits="userSpaceOnUse" x="0" y="0" width="41" height="50">
<path d="M40.0747 0H0.230957V50H40.0747V0Z" fill="white"/>
</mask>
<g mask="url(#mask0_302_1304)">
<path d="M28.3353 4.49919L38.7669 14.6617C39.6548 15.5249 40.0919 16.3983 40.0781 17.2785C40.0644 18.1587 39.6823 18.9609 38.9355 19.6887C38.1543 20.4504 37.3111 20.8364 36.4094 20.8533C35.5076 20.8669 34.6128 20.4403 33.7248 19.5771L23.0558 9.18435C21.8444 8.00295 20.6742 7.16676 19.5488 6.6759C18.4233 6.18504 17.2394 6.10718 16.0004 6.44571C14.758 6.78085 13.4261 7.64408 11.9979 9.03201C10.0293 10.9515 9.08966 12.7524 9.18607 14.4349C9.2824 16.1173 10.2598 17.8641 12.1149 19.6685L22.87 30.1492C23.7683 31.0226 24.2087 31.8959 24.195 32.7626C24.1812 33.6326 23.7958 34.4349 23.0351 35.1762C22.278 35.9142 21.4417 36.3001 20.5331 36.3306C19.6245 36.3611 18.7194 35.938 17.8245 35.0645L7.39295 24.902C5.69623 23.2501 4.471 21.6861 3.71729 20.2101C2.96357 18.7341 2.68136 17.0652 2.87753 15.2033C3.05306 13.6089 3.57273 12.0652 4.44003 10.569C5.30388 9.07264 6.54287 7.54253 8.15013 5.97516C10.0636 4.10989 11.8911 2.68132 13.6326 1.68606C15.3707 0.690799 17.0536 0.139004 18.678 0.0239063C20.3059 -0.0911919 21.9097 0.227021 23.4963 0.978542C25.0829 1.73007 26.6936 2.90136 28.3319 4.49919H28.3353Z" fill="black"/>
<path d="M11.9705 45.5047L1.54241 35.3422C0.654471 34.4756 0.217384 33.6056 0.23115 32.7254C0.244917 31.8453 0.626938 31.043 1.37377 30.3151C2.15502 29.5535 2.99822 29.1675 3.89993 29.1506C4.80164 29.1371 5.69646 29.5602 6.5844 30.4268L17.25 40.8196C18.4649 42.001 19.6316 42.8371 20.757 43.328C21.8825 43.8189 23.0664 43.8933 24.3088 43.5582C25.5512 43.2231 26.8831 42.3598 28.3114 40.9685C30.28 39.049 31.2196 37.2481 31.1233 35.5657C31.0268 33.8832 30.0494 32.1364 28.1944 30.3287L22.4641 24.7938C21.5658 23.9204 21.1253 23.047 21.139 22.1804C21.1528 21.3104 21.5383 20.5081 22.2989 19.7667C23.0561 19.0287 23.8924 18.6428 24.8009 18.6124C25.7095 18.5819 26.6147 19.005 27.5095 19.8785L32.9129 25.0951C34.6096 26.7471 35.8348 28.311 36.5886 29.7871C37.3422 31.263 37.6244 32.9319 37.4283 34.7938C37.2528 36.3882 36.7331 37.9319 35.8658 39.4282C35.0019 40.9245 33.7629 42.4546 32.1557 44.022C30.2422 45.8872 28.4147 47.3158 26.6732 48.311C24.9317 49.3064 23.2488 49.8615 21.6209 49.9766C19.993 50.0917 18.3892 49.7735 16.8026 49.022C15.216 48.2704 13.6053 47.0992 11.9671 45.5014L11.9705 45.5047Z" fill="black"/>
<path d="M18.4752 19.2826C20.5907 19.2826 22.3057 17.5957 22.3057 15.5148C22.3057 13.4339 20.5907 11.7471 18.4752 11.7471C16.3597 11.7471 14.6447 13.4339 14.6447 15.5148C14.6447 17.5957 16.3597 19.2826 18.4752 19.2826Z" fill="black"/>
</g>
<path d="M53.9653 12.4267H58.7749V31.4453C58.7749 34.7656 59.2958 37.1745 60.3374 38.6719C61.3954 40.153 63.0963 40.8936 65.44 40.8936C67.9139 40.8936 69.6962 40.153 70.7867 38.6719C71.8771 37.1745 72.4224 34.7249 72.4224 31.3233V12.4267H76.6216V30.6152C76.6216 34.5377 76.1578 37.3535 75.23 39.0625C73.2606 42.692 70.0135 44.5069 65.4888 44.5069C61.5663 44.5069 58.661 43.4327 56.773 41.2842C54.9013 39.1358 53.9653 35.8317 53.9653 31.372V12.4267ZM84.8003 43.75V17.2363H89.6097V22.2168C91.8238 18.5059 94.8347 16.6504 98.6433 16.6504C103.672 16.6504 106.187 19.637 106.187 25.6103V43.75H101.378V26.9287C101.378 24.8616 101.052 23.3968 100.401 22.5342C99.766 21.6553 98.6917 21.2158 97.1785 21.2158C94.7691 21.2158 92.2464 22.9492 89.6097 26.416V43.75H84.8003ZM124.351 43.75V20.8496H114.707V17.2363H129.16V43.75H124.351ZM123.741 11.2305V5.2002H129.771V11.2305H123.741ZM165.269 13.1592V17.334C161.737 15.9668 158.596 15.2832 155.846 15.2832C151.5 15.2832 149.327 16.748 149.327 19.6777C149.327 20.8659 149.734 21.8262 150.547 22.5586C151.361 23.2748 152.867 24.0153 155.064 24.7803L158.14 25.8545L161.07 26.8555C165.611 28.4505 167.882 31.1523 167.882 34.9609C167.882 37.858 166.718 40.1774 164.39 41.9189C162.079 43.6442 158.978 44.5069 155.089 44.5069C152.386 44.5069 148.896 43.9291 144.614 42.7734V38.0127C148.879 39.9333 152.419 40.8936 155.235 40.8936C157.611 40.8936 159.507 40.4297 160.924 39.502C162.339 38.558 163.047 37.2966 163.047 35.7178C163.047 34.5134 162.625 33.5612 161.778 32.8613C160.948 32.1615 159.222 31.3314 156.602 30.3711L153.379 29.1992C150.173 28.0111 147.943 26.7904 146.69 25.5371C145.453 24.2838 144.835 22.6155 144.835 20.5322C144.835 17.7165 145.786 15.5355 147.691 13.9892C149.611 12.443 152.305 11.6699 155.772 11.6699C158.588 11.6699 161.753 12.1663 165.269 13.1592ZM191.124 40.5517C188.21 42.9931 185.305 44.2139 182.408 44.2139C179.982 44.2139 177.981 43.5221 176.402 42.1387C174.839 40.7552 174.058 39.0055 174.058 36.8897C174.058 34.139 175.278 31.9255 177.721 30.2491C180.161 28.5726 183.385 27.7344 187.388 27.7344H190.367V25.4639C190.367 23.5921 189.952 22.2575 189.121 21.46C188.292 20.6624 186.916 20.2637 184.996 20.2637C182.213 20.2637 179.332 21.0449 176.353 22.6074V18.4814C179.771 17.2608 182.978 16.6504 185.972 16.6504C189.341 16.6504 191.718 17.3177 193.101 18.6523C194.501 19.987 195.2 22.29 195.2 25.5616V36.6699C195.2 38.265 195.371 39.3555 195.714 39.9414C196.055 40.5111 196.698 40.7959 197.643 40.7959C197.951 40.7959 198.456 40.7145 199.156 40.5517L199.596 43.4327C197.984 43.9534 196.763 44.2139 195.933 44.2139C193.557 44.2139 191.953 42.9931 191.124 40.5517ZM190.367 37.4267V30.7373H188.926C182.335 30.7373 179.039 32.5195 179.039 36.084C179.039 37.3698 179.462 38.4033 180.308 39.1845C181.154 39.9658 182.278 40.3564 183.677 40.3564C185.777 40.3564 188.007 39.3798 190.367 37.4267ZM227.769 43.7256C225.361 44.1488 223.033 44.3603 220.786 44.3603C216.864 44.3603 214.195 43.6605 212.778 42.2608C211.363 40.8447 210.655 38.1755 210.655 34.253V21.46H204.039V17.8467H210.655V12.1338H215.489V17.8467H227.232V21.46H215.489V35.0342C215.489 36.5478 215.578 37.5895 215.757 38.1592C215.953 38.7288 216.36 39.2252 216.978 39.6484C218.085 40.3809 219.696 40.747 221.812 40.747C223.814 40.747 225.8 40.5192 227.769 40.0634V43.7256Z" fill="black"/>
</g>
</svg>
