<svg width="360" height="546" viewBox="0 0 360 546" fill="none" xmlns="http://www.w3.org/2000/svg">
<rect x="0.5" y="0.5" width="174" height="174" fill="white"/>
<rect x="0.5" y="0.5" width="174" height="174" stroke="#E4E4E4"/>
<rect width="1" height="155" transform="translate(12 9.49976)" fill="#E4E4E4"/>
<rect width="1" height="155" transform="translate(23.5 9.49976)" fill="#E4E4E4"/>
<rect width="1" height="155" transform="translate(35 9.49976)" fill="#E4E4E4"/>
<rect width="1" height="155" transform="translate(46.5 9.49976)" fill="#E4E4E4"/>
<rect width="1" height="155" transform="translate(58 9.49976)" fill="#E4E4E4"/>
<rect width="1" height="155" transform="translate(69.5 9.49976)" fill="#E4E4E4"/>
<rect width="1" height="155" transform="translate(81 9.49976)" fill="#E4E4E4"/>
<rect width="1" height="155" transform="translate(92.5 9.49976)" fill="#E4E4E4"/>
<rect width="1" height="155" transform="translate(104 9.49976)" fill="#E4E4E4"/>
<rect width="1" height="155" transform="translate(115.5 9.49976)" fill="#E4E4E4"/>
<rect width="1" height="155" transform="translate(127 9.49976)" fill="#E4E4E4"/>
<rect width="1" height="155" transform="translate(138.5 9.49976)" fill="#E4E4E4"/>
<rect width="1" height="155" transform="translate(150 9.49976)" fill="#E4E4E4"/>
<rect width="1" height="155" transform="translate(161.5 9.49976)" fill="#E4E4E4"/>
<rect x="185.5" y="0.5" width="174" height="174" fill="white"/>
<rect x="185.5" y="0.5" width="174" height="174" stroke="#E4E4E4"/>
<rect width="1" height="155" transform="translate(197 9.49976)" fill="#E4E4E4"/>
<rect width="1" height="155" transform="translate(208.5 9.49976)" fill="#E4E4E4"/>
<rect width="1" height="155" transform="translate(220 9.49976)" fill="#E4E4E4"/>
<rect width="1" height="155" transform="translate(231.5 9.49976)" fill="#E4E4E4"/>
<rect width="1" height="155" transform="translate(243 9.49976)" fill="#E4E4E4"/>
<rect width="1" height="155" transform="translate(254.5 9.49976)" fill="#E4E4E4"/>
<rect width="1" height="155" transform="translate(266 9.49976)" fill="#E4E4E4"/>
<rect width="1" height="155" transform="translate(277.5 9.49976)" fill="#E4E4E4"/>
<rect width="1" height="155" transform="translate(289 9.49976)" fill="#E4E4E4"/>
<rect width="1" height="155" transform="translate(300.5 9.49976)" fill="#E4E4E4"/>
<rect width="1" height="155" transform="translate(312 9.49976)" fill="#E4E4E4"/>
<rect width="1" height="155" transform="translate(323.5 9.49976)" fill="#E4E4E4"/>
<rect width="1" height="155" transform="translate(335 9.49976)" fill="#E4E4E4"/>
<rect width="1" height="155" transform="translate(346.5 9.49976)" fill="#E4E4E4"/>
<g clip-path="url(#clip0_466_5043)">
<rect y="185.5" width="360" height="360" fill="white"/>
<rect x="0.5" y="186" width="359" height="359" rx="179.5" fill="white"/>
<rect x="0.5" y="186" width="359" height="359" rx="179.5" stroke="#E4E4E4"/>
<path d="M186.013 273.854C186.013 275.908 185.397 277.492 184.165 278.607C182.932 279.722 181.377 280.279 179.5 280.279C177.622 280.279 176.067 279.722 174.835 278.607C173.603 277.492 172.986 275.908 172.986 273.854C172.986 272.68 173.192 271.419 173.603 270.069C174.013 268.72 174.541 267.487 175.187 266.373C175.832 265.258 176.536 264.348 177.299 263.644C178.062 262.881 178.796 262.5 179.5 262.5C180.204 262.5 180.937 262.881 181.7 263.644C182.463 264.348 183.167 265.258 183.813 266.373C184.458 267.487 184.986 268.72 185.397 270.069C185.808 271.419 186.013 272.68 186.013 273.854ZM197.631 288.817C196.751 288.817 196.047 288.641 195.519 288.289C194.991 287.878 194.492 287.438 194.023 286.968C193.553 286.44 193.054 286 192.526 285.648C191.998 285.237 191.323 285.032 190.502 285.032C189.504 285.032 188.683 285.384 188.037 286.088C187.392 286.792 187.069 287.673 187.069 288.729C187.069 289.433 187.187 290.049 187.421 290.577C187.715 291.047 188.008 291.487 188.301 291.897C188.595 292.308 188.859 292.69 189.094 293.042C189.387 293.394 189.534 293.775 189.534 294.186C189.534 294.714 189.328 295.125 188.918 295.418C188.565 295.653 188.184 295.77 187.773 295.77C187.304 295.77 186.776 295.565 186.189 295.154C185.661 294.685 185.162 294.098 184.693 293.394C184.282 292.69 183.93 291.897 183.637 291.017C183.343 290.078 183.196 289.14 183.196 288.201C183.196 287.027 183.431 285.854 183.901 284.68C184.37 283.506 185.045 282.45 185.925 281.511C186.805 280.514 187.891 279.722 189.182 279.135C190.472 278.548 191.969 278.255 193.67 278.255C196.311 278.255 198.335 278.93 199.744 280.279C201.152 281.57 201.856 282.949 201.856 284.416C201.856 285.531 201.475 286.558 200.712 287.497C199.949 288.377 198.922 288.817 197.631 288.817ZM161.368 288.817C160.077 288.817 159.05 288.377 158.288 287.497C157.525 286.558 157.143 285.531 157.143 284.416C157.143 282.949 157.848 281.57 159.256 280.279C160.664 278.93 162.688 278.255 165.329 278.255C167.031 278.255 168.527 278.548 169.818 279.135C171.109 279.722 172.194 280.514 173.074 281.511C173.955 282.45 174.629 283.506 175.099 284.68C175.568 285.854 175.803 287.027 175.803 288.201C175.803 289.14 175.656 290.078 175.363 291.017C175.07 291.897 174.688 292.69 174.219 293.394C173.808 294.098 173.309 294.685 172.722 295.154C172.194 295.565 171.696 295.77 171.226 295.77C170.815 295.77 170.405 295.653 169.994 295.418C169.642 295.125 169.466 294.714 169.466 294.186C169.466 293.775 169.583 293.394 169.818 293.042C170.111 292.69 170.405 292.308 170.698 291.897C170.991 291.487 171.255 291.047 171.49 290.577C171.784 290.049 171.93 289.433 171.93 288.729C171.93 287.673 171.608 286.792 170.962 286.088C170.317 285.384 169.495 285.032 168.498 285.032C167.676 285.032 167.001 285.237 166.473 285.648C165.945 286 165.446 286.44 164.977 286.968C164.508 287.438 164.009 287.878 163.481 288.289C162.953 288.641 162.248 288.817 161.368 288.817ZM185.045 300.787C185.045 302.43 184.546 303.75 183.548 304.748C182.551 305.745 181.201 306.244 179.5 306.244C177.798 306.244 176.448 305.745 175.451 304.748C174.453 303.75 173.955 302.43 173.955 300.787C173.955 299.144 174.453 297.824 175.451 296.826C176.448 295.829 177.798 295.33 179.5 295.33C181.201 295.33 182.551 295.829 183.548 296.826C184.546 297.824 185.045 299.144 185.045 300.787Z" fill="black"/>
<path d="M248.555 305.156C247.103 306.608 245.547 307.293 243.887 307.21C242.228 307.127 240.734 306.422 239.406 305.094C238.078 303.766 237.373 302.272 237.29 300.613C237.207 298.953 237.892 297.397 239.344 295.945C240.174 295.115 241.211 294.368 242.456 293.704C243.701 293.041 244.945 292.543 246.19 292.211C247.435 291.879 248.576 291.734 249.613 291.775C250.692 291.775 251.48 292.024 251.978 292.522C252.476 293.02 252.725 293.808 252.725 294.887C252.766 295.924 252.621 297.065 252.289 298.31C251.957 299.555 251.459 300.799 250.796 302.044C250.132 303.289 249.385 304.326 248.555 305.156ZM246.19 323.952C245.568 323.329 245.194 322.707 245.07 322.085C244.987 321.421 244.945 320.757 244.945 320.093C244.987 319.388 244.945 318.724 244.821 318.101C244.738 317.438 244.406 316.815 243.825 316.234C243.12 315.529 242.29 315.197 241.335 315.239C240.381 315.28 239.531 315.674 238.784 316.421C238.286 316.919 237.933 317.438 237.726 317.977C237.601 318.516 237.498 319.035 237.415 319.533C237.332 320.031 237.249 320.487 237.166 320.902C237.124 321.359 236.958 321.732 236.668 322.022C236.294 322.396 235.859 322.541 235.361 322.458C234.946 322.375 234.593 322.188 234.303 321.898C233.971 321.566 233.743 321.047 233.618 320.342C233.577 319.637 233.639 318.869 233.805 318.039C234.012 317.251 234.323 316.442 234.738 315.612C235.195 314.741 235.755 313.973 236.419 313.309C237.249 312.479 238.244 311.815 239.406 311.318C240.568 310.82 241.792 310.55 243.078 310.508C244.406 310.426 245.734 310.633 247.061 311.131C248.389 311.629 249.655 312.479 250.858 313.683C252.725 315.55 253.679 317.458 253.721 319.408C253.804 321.317 253.327 322.79 252.289 323.827C251.501 324.616 250.505 325.072 249.302 325.197C248.14 325.279 247.103 324.865 246.19 323.952ZM220.548 298.31C219.635 297.397 219.22 296.36 219.303 295.198C219.428 293.995 219.884 292.999 220.673 292.211C221.71 291.173 223.183 290.696 225.092 290.779C227.042 290.821 228.95 291.775 230.817 293.642C232.021 294.845 232.871 296.111 233.369 297.439C233.867 298.766 234.074 300.094 233.991 301.422C233.95 302.708 233.68 303.932 233.182 305.094C232.685 306.256 232.021 307.251 231.191 308.081C230.527 308.745 229.759 309.305 228.888 309.762C228.058 310.177 227.228 310.467 226.399 310.633C225.61 310.84 224.843 310.903 224.096 310.82C223.432 310.737 222.934 310.529 222.602 310.197C222.312 309.907 222.104 309.533 221.98 309.077C221.938 308.621 222.104 308.206 222.478 307.832C222.768 307.542 223.121 307.355 223.536 307.272C223.992 307.231 224.469 307.168 224.967 307.085C225.465 307.002 225.963 306.878 226.461 306.712C227.042 306.546 227.581 306.214 228.079 305.716C228.826 304.969 229.22 304.119 229.261 303.164C229.303 302.21 228.971 301.38 228.266 300.675C227.685 300.094 227.062 299.762 226.399 299.679C225.776 299.555 225.112 299.513 224.407 299.555C223.743 299.555 223.079 299.513 222.415 299.43C221.793 299.306 221.171 298.932 220.548 298.31ZM228.826 323.516C227.664 324.678 226.378 325.259 224.967 325.259C223.556 325.259 222.249 324.657 221.046 323.454C219.843 322.251 219.241 320.944 219.241 319.533C219.241 318.122 219.822 316.836 220.984 315.674C222.146 314.512 223.432 313.932 224.843 313.932C226.253 313.932 227.56 314.533 228.764 315.736C229.967 316.94 230.568 318.247 230.568 319.657C230.568 321.068 229.988 322.354 228.826 323.516Z" fill="black"/>
<path d="M270.647 371.514C268.593 371.514 267.009 370.898 265.894 369.665C264.779 368.433 264.221 366.878 264.221 365.001C264.221 363.123 264.779 361.568 265.894 360.336C267.009 359.103 268.593 358.487 270.647 358.487C271.82 358.487 273.082 358.693 274.431 359.103C275.781 359.514 277.013 360.042 278.128 360.688C279.243 361.333 280.152 362.037 280.857 362.8C281.619 363.563 282.001 364.296 282.001 365.001C282.001 365.705 281.619 366.438 280.857 367.201C280.152 367.964 279.243 368.668 278.128 369.313C277.013 369.959 275.781 370.487 274.431 370.898C273.082 371.308 271.82 371.514 270.647 371.514ZM255.684 383.132C255.684 382.252 255.86 381.548 256.212 381.02C256.623 380.492 257.063 379.993 257.532 379.523C258.06 379.054 258.5 378.555 258.852 378.027C259.263 377.499 259.469 376.824 259.469 376.003C259.469 375.005 259.116 374.184 258.412 373.538C257.708 372.893 256.828 372.57 255.772 372.57C255.068 372.57 254.452 372.687 253.923 372.922C253.454 373.215 253.014 373.509 252.603 373.802C252.192 374.096 251.811 374.36 251.459 374.594C251.107 374.888 250.726 375.035 250.315 375.035C249.787 375.035 249.376 374.829 249.083 374.418C248.848 374.066 248.73 373.685 248.73 373.274C248.73 372.805 248.936 372.277 249.347 371.69C249.816 371.162 250.403 370.663 251.107 370.194C251.811 369.783 252.603 369.431 253.483 369.137C254.422 368.844 255.361 368.697 256.3 368.697C257.473 368.697 258.647 368.932 259.821 369.401C260.994 369.871 262.05 370.546 262.989 371.426C263.987 372.306 264.779 373.392 265.366 374.682C265.952 375.973 266.246 377.47 266.246 379.171C266.246 381.812 265.571 383.836 264.221 385.244C262.931 386.653 261.552 387.357 260.085 387.357C258.97 387.357 257.943 386.975 257.004 386.213C256.124 385.45 255.684 384.423 255.684 383.132ZM255.684 346.869C255.684 345.578 256.124 344.551 257.004 343.789C257.943 343.026 258.97 342.644 260.085 342.644C261.552 342.644 262.931 343.348 264.221 344.757C265.571 346.165 266.246 348.189 266.246 350.83C266.246 352.532 265.952 354.028 265.366 355.319C264.779 356.61 263.987 357.695 262.989 358.575C262.05 359.456 260.994 360.13 259.821 360.6C258.647 361.069 257.473 361.304 256.3 361.304C255.361 361.304 254.422 361.157 253.483 360.864C252.603 360.57 251.811 360.189 251.107 359.72C250.403 359.309 249.816 358.81 249.347 358.223C248.936 357.695 248.73 357.196 248.73 356.727C248.73 356.316 248.848 355.905 249.083 355.495C249.376 355.143 249.787 354.967 250.315 354.967C250.726 354.967 251.107 355.084 251.459 355.319C251.811 355.612 252.192 355.905 252.603 356.199C253.014 356.492 253.454 356.756 253.923 356.991C254.452 357.284 255.068 357.431 255.772 357.431C256.828 357.431 257.708 357.108 258.412 356.463C259.116 355.817 259.469 354.996 259.469 353.998C259.469 353.177 259.263 352.502 258.852 351.974C258.5 351.446 258.06 350.947 257.532 350.478C257.063 350.008 256.623 349.51 256.212 348.982C255.86 348.453 255.684 347.749 255.684 346.869ZM243.714 370.546C242.071 370.546 240.75 370.047 239.753 369.049C238.755 368.052 238.256 366.702 238.256 365.001C238.256 363.299 238.755 361.949 239.753 360.952C240.75 359.954 242.071 359.456 243.714 359.456C245.356 359.456 246.677 359.954 247.674 360.952C248.672 361.949 249.171 363.299 249.171 365.001C249.171 366.702 248.672 368.052 247.674 369.049C246.677 370.047 245.356 370.546 243.714 370.546Z" fill="black"/>
<path d="M239.345 434.056C237.892 432.604 237.208 431.048 237.291 429.388C237.374 427.728 238.079 426.235 239.407 424.907C240.735 423.579 242.228 422.874 243.888 422.791C245.548 422.708 247.104 423.393 248.556 424.845C249.386 425.675 250.132 426.712 250.796 427.957C251.46 429.201 251.958 430.446 252.29 431.691C252.622 432.936 252.767 434.077 252.726 435.114C252.726 436.193 252.477 436.981 251.979 437.479C251.481 437.977 250.693 438.226 249.614 438.226C248.577 438.267 247.435 438.122 246.191 437.79C244.946 437.458 243.701 436.96 242.457 436.296C241.212 435.633 240.174 434.886 239.345 434.056ZM220.549 431.691C221.171 431.068 221.794 430.695 222.416 430.571C223.08 430.488 223.744 430.446 224.408 430.446C225.113 430.488 225.777 430.446 226.399 430.322C227.063 430.239 227.686 429.907 228.266 429.326C228.972 428.62 229.304 427.791 229.262 426.836C229.221 425.882 228.827 425.031 228.08 424.285C227.582 423.787 227.063 423.434 226.524 423.227C225.984 423.102 225.466 422.998 224.968 422.915C224.47 422.832 224.014 422.749 223.599 422.666C223.142 422.625 222.769 422.459 222.478 422.169C222.105 421.795 221.96 421.359 222.043 420.862C222.126 420.447 222.312 420.094 222.603 419.804C222.935 419.472 223.453 419.243 224.159 419.119C224.864 419.077 225.632 419.14 226.462 419.306C227.25 419.513 228.059 419.824 228.889 420.239C229.76 420.696 230.528 421.256 231.192 421.92C232.021 422.749 232.685 423.745 233.183 424.907C233.681 426.069 233.951 427.293 233.992 428.579C234.075 429.907 233.868 431.234 233.37 432.562C232.872 433.89 232.021 435.155 230.818 436.359C228.951 438.226 227.042 439.18 225.092 439.222C223.184 439.305 221.711 438.827 220.673 437.79C219.885 437.002 219.429 436.006 219.304 434.803C219.221 433.641 219.636 432.604 220.549 431.691ZM246.191 406.049C247.104 405.136 248.141 404.721 249.303 404.804C250.506 404.929 251.502 405.385 252.29 406.174C253.327 407.211 253.804 408.684 253.721 410.592C253.68 412.543 252.726 414.451 250.859 416.318C249.655 417.521 248.39 418.372 247.062 418.87C245.734 419.368 244.407 419.575 243.079 419.492C241.793 419.451 240.569 419.181 239.407 418.683C238.245 418.185 237.249 417.521 236.419 416.692C235.756 416.028 235.195 415.26 234.739 414.389C234.324 413.559 234.034 412.729 233.868 411.899C233.66 411.111 233.598 410.343 233.681 409.597C233.764 408.933 233.971 408.435 234.303 408.103C234.594 407.812 234.967 407.605 235.424 407.481C235.88 407.439 236.295 407.605 236.668 407.978C236.959 408.269 237.146 408.622 237.229 409.036C237.27 409.493 237.332 409.97 237.415 410.468C237.498 410.966 237.623 411.464 237.789 411.962C237.955 412.543 238.287 413.082 238.785 413.58C239.531 414.327 240.382 414.721 241.336 414.762C242.291 414.804 243.12 414.472 243.826 413.767C244.407 413.186 244.739 412.563 244.822 411.899C244.946 411.277 244.987 410.613 244.946 409.908C244.946 409.244 244.987 408.58 245.07 407.916C245.195 407.294 245.568 406.671 246.191 406.049ZM220.985 414.327C219.823 413.165 219.242 411.879 219.242 410.468C219.242 409.057 219.844 407.75 221.047 406.547C222.25 405.344 223.557 404.742 224.968 404.742C226.379 404.742 227.665 405.323 228.827 406.485C229.988 407.647 230.569 408.933 230.569 410.343C230.569 411.754 229.968 413.061 228.764 414.264C227.561 415.468 226.254 416.069 224.843 416.069C223.433 416.069 222.146 415.488 220.985 414.327Z" fill="black"/>
<path d="M172.986 456.146C172.986 454.092 173.602 452.508 174.835 451.393C176.067 450.278 177.622 449.72 179.499 449.72C181.377 449.72 182.932 450.278 184.164 451.393C185.397 452.508 186.013 454.092 186.013 456.146C186.013 457.319 185.807 458.581 185.397 459.93C184.986 461.28 184.458 462.512 183.812 463.627C183.167 464.742 182.463 465.651 181.7 466.356C180.937 467.118 180.204 467.5 179.499 467.5C178.795 467.5 178.062 467.118 177.299 466.356C176.536 465.651 175.832 464.742 175.187 463.627C174.541 462.512 174.013 461.28 173.602 459.93C173.192 458.581 172.986 457.319 172.986 456.146ZM161.368 441.183C162.248 441.183 162.952 441.359 163.48 441.711C164.008 442.122 164.507 442.562 164.977 443.031C165.446 443.559 165.945 443.999 166.473 444.351C167.001 444.762 167.676 444.967 168.497 444.967C169.495 444.967 170.316 444.615 170.962 443.911C171.607 443.207 171.93 442.327 171.93 441.271C171.93 440.567 171.813 439.95 171.578 439.422C171.285 438.953 170.991 438.513 170.698 438.102C170.404 437.691 170.14 437.31 169.906 436.958C169.612 436.606 169.465 436.224 169.465 435.814C169.465 435.286 169.671 434.875 170.082 434.581C170.434 434.347 170.815 434.229 171.226 434.229C171.695 434.229 172.223 434.435 172.81 434.845C173.338 435.315 173.837 435.902 174.306 436.606C174.717 437.31 175.069 438.102 175.363 438.982C175.656 439.921 175.803 440.86 175.803 441.799C175.803 442.972 175.568 444.146 175.099 445.319C174.629 446.493 173.954 447.549 173.074 448.488C172.194 449.486 171.108 450.278 169.818 450.865C168.527 451.451 167.03 451.745 165.329 451.745C162.688 451.745 160.664 451.07 159.256 449.72C157.847 448.429 157.143 447.05 157.143 445.584C157.143 444.469 157.525 443.442 158.287 442.503C159.05 441.623 160.077 441.183 161.368 441.183ZM197.631 441.183C198.922 441.183 199.949 441.623 200.711 442.503C201.474 443.442 201.856 444.469 201.856 445.584C201.856 447.05 201.152 448.429 199.743 449.72C198.335 451.07 196.311 451.745 193.67 451.745C191.968 451.745 190.472 451.451 189.181 450.865C187.89 450.278 186.805 449.486 185.925 448.488C185.044 447.549 184.37 446.493 183.9 445.319C183.431 444.146 183.196 442.972 183.196 441.799C183.196 440.86 183.343 439.921 183.636 438.982C183.93 438.102 184.311 437.31 184.78 436.606C185.191 435.902 185.69 435.315 186.277 434.845C186.805 434.435 187.304 434.229 187.773 434.229C188.184 434.229 188.595 434.347 189.005 434.581C189.357 434.875 189.533 435.286 189.533 435.814C189.533 436.224 189.416 436.606 189.181 436.958C188.888 437.31 188.595 437.691 188.301 438.102C188.008 438.513 187.744 438.953 187.509 439.422C187.216 439.95 187.069 440.567 187.069 441.271C187.069 442.327 187.392 443.207 188.037 443.911C188.683 444.615 189.504 444.967 190.502 444.967C191.323 444.967 191.998 444.762 192.526 444.351C193.054 443.999 193.553 443.559 194.022 443.031C194.492 442.562 194.99 442.122 195.518 441.711C196.047 441.359 196.751 441.183 197.631 441.183ZM173.954 429.212C173.954 427.569 174.453 426.249 175.451 425.252C176.448 424.254 177.798 423.755 179.499 423.755C181.201 423.755 182.551 424.254 183.548 425.252C184.546 426.249 185.044 427.569 185.044 429.212C185.044 430.855 184.546 432.176 183.548 433.173C182.551 434.171 181.201 434.669 179.499 434.669C177.798 434.669 176.448 434.171 175.451 433.173C174.453 432.176 173.954 430.855 173.954 429.212Z" fill="black"/>
<path d="M110.444 424.844C111.896 423.392 113.452 422.708 115.112 422.791C116.772 422.874 118.265 423.579 119.593 424.907C120.921 426.234 121.626 427.728 121.709 429.388C121.792 431.047 121.107 432.603 119.655 434.056C118.825 434.885 117.788 435.632 116.543 436.296C115.299 436.96 114.054 437.458 112.809 437.79C111.564 438.122 110.423 438.267 109.386 438.225C108.307 438.225 107.519 437.976 107.021 437.479C106.523 436.981 106.274 436.192 106.274 435.114C106.233 434.076 106.378 432.935 106.71 431.691C107.042 430.446 107.54 429.201 108.204 427.956C108.867 426.712 109.614 425.674 110.444 424.844ZM112.809 406.049C113.432 406.671 113.805 407.293 113.929 407.916C114.012 408.58 114.054 409.244 114.054 409.907C114.012 410.613 114.054 411.277 114.178 411.899C114.261 412.563 114.593 413.185 115.174 413.766C115.88 414.472 116.709 414.803 117.664 414.762C118.618 414.72 119.469 414.326 120.215 413.579C120.713 413.082 121.066 412.563 121.273 412.024C121.398 411.484 121.502 410.965 121.585 410.468C121.668 409.97 121.751 409.513 121.834 409.098C121.875 408.642 122.041 408.269 122.331 407.978C122.705 407.605 123.141 407.459 123.638 407.542C124.053 407.625 124.406 407.812 124.696 408.103C125.028 408.434 125.257 408.953 125.381 409.658C125.423 410.364 125.36 411.131 125.194 411.961C124.987 412.75 124.676 413.559 124.261 414.389C123.804 415.26 123.244 416.027 122.58 416.691C121.751 417.521 120.755 418.185 119.593 418.683C118.431 419.181 117.207 419.45 115.921 419.492C114.593 419.575 113.266 419.368 111.938 418.87C110.61 418.372 109.345 417.521 108.141 416.318C106.274 414.451 105.32 412.542 105.278 410.592C105.195 408.683 105.673 407.21 106.71 406.173C107.498 405.385 108.494 404.928 109.697 404.804C110.859 404.721 111.896 405.136 112.809 406.049ZM138.451 431.691C139.364 432.603 139.779 433.641 139.696 434.802C139.571 436.006 139.115 437.001 138.326 437.79C137.289 438.827 135.816 439.304 133.908 439.221C131.957 439.18 130.049 438.225 128.182 436.358C126.979 435.155 126.128 433.89 125.63 432.562C125.132 431.234 124.925 429.906 125.008 428.579C125.049 427.292 125.319 426.068 125.817 424.907C126.315 423.745 126.979 422.749 127.808 421.919C128.472 421.255 129.24 420.695 130.111 420.239C130.941 419.824 131.771 419.533 132.601 419.368C133.389 419.16 134.157 419.098 134.903 419.181C135.567 419.264 136.065 419.471 136.397 419.803C136.688 420.094 136.895 420.467 137.019 420.923C137.061 421.38 136.895 421.795 136.522 422.168C136.231 422.459 135.878 422.645 135.464 422.728C135.007 422.77 134.53 422.832 134.032 422.915C133.534 422.998 133.036 423.123 132.538 423.288C131.957 423.454 131.418 423.786 130.92 424.284C130.173 425.031 129.779 425.882 129.738 426.836C129.696 427.79 130.028 428.62 130.733 429.325C131.314 429.906 131.937 430.238 132.601 430.321C133.223 430.446 133.887 430.487 134.592 430.446C135.256 430.446 135.92 430.487 136.584 430.57C137.206 430.695 137.829 431.068 138.451 431.691ZM130.173 406.484C131.335 405.323 132.621 404.742 134.032 404.742C135.443 404.742 136.75 405.343 137.953 406.547C139.156 407.75 139.758 409.057 139.758 410.468C139.758 411.878 139.177 413.165 138.015 414.326C136.853 415.488 135.567 416.069 134.157 416.069C132.746 416.069 131.439 415.467 130.236 414.264C129.032 413.061 128.431 411.754 128.431 410.343C128.431 408.932 129.012 407.646 130.173 406.484Z" fill="black"/>
<path d="M88.3542 358.487C90.4079 358.487 91.9922 359.103 93.1071 360.335C94.222 361.567 94.7794 363.122 94.7794 365C94.7794 366.878 94.222 368.433 93.1071 369.665C91.9922 370.897 90.4079 371.513 88.3542 371.513C87.1806 371.513 85.919 371.308 84.5695 370.897C83.2199 370.486 81.9876 369.958 80.8727 369.313C79.7579 368.667 78.8484 367.963 78.1442 367.2C77.3814 366.438 77 365.704 77 365C77 364.296 77.3814 363.562 78.1442 362.799C78.8484 362.037 79.7579 361.333 80.8727 360.687C81.9876 360.042 83.2199 359.514 84.5695 359.103C85.919 358.692 87.1806 358.487 88.3542 358.487ZM103.317 346.868C103.317 347.749 103.141 348.453 102.789 348.981C102.378 349.509 101.938 350.008 101.469 350.477C100.941 350.947 100.501 351.445 100.148 351.973C99.7377 352.502 99.5323 353.176 99.5323 353.998C99.5323 354.995 99.8844 355.817 100.589 356.462C101.293 357.108 102.173 357.43 103.229 357.43C103.933 357.43 104.549 357.313 105.077 357.078C105.547 356.785 105.987 356.492 106.398 356.198C106.808 355.905 107.19 355.641 107.542 355.406C107.894 355.113 108.275 354.966 108.686 354.966C109.214 354.966 109.625 355.171 109.918 355.582C110.153 355.934 110.27 356.316 110.27 356.726C110.27 357.196 110.065 357.724 109.654 358.311C109.185 358.839 108.598 359.337 107.894 359.807C107.19 360.218 106.398 360.57 105.517 360.863C104.579 361.157 103.64 361.303 102.701 361.303C101.527 361.303 100.354 361.068 99.1803 360.599C98.0067 360.13 96.9505 359.455 96.0116 358.575C95.0141 357.695 94.222 356.609 93.6352 355.318C93.0484 354.027 92.755 352.531 92.755 350.829C92.755 348.189 93.4298 346.164 94.7794 344.756C96.0703 343.348 97.4493 342.644 98.9162 342.644C100.031 342.644 101.058 343.025 101.997 343.788C102.877 344.551 103.317 345.578 103.317 346.868ZM103.317 383.131C103.317 384.422 102.877 385.449 101.997 386.212C101.058 386.975 100.031 387.356 98.9162 387.356C97.4493 387.356 96.0703 386.652 94.7794 385.244C93.4298 383.836 92.755 381.811 92.755 379.171C92.755 377.469 93.0484 375.973 93.6352 374.682C94.222 373.391 95.0141 372.305 96.0116 371.425C96.9505 370.545 98.0067 369.87 99.1803 369.401C100.354 368.931 101.527 368.697 102.701 368.697C103.64 368.697 104.579 368.843 105.517 369.137C106.398 369.43 107.19 369.812 107.894 370.281C108.598 370.692 109.185 371.19 109.654 371.777C110.065 372.305 110.27 372.804 110.27 373.274C110.27 373.684 110.153 374.095 109.918 374.506C109.625 374.858 109.214 375.034 108.686 375.034C108.275 375.034 107.894 374.916 107.542 374.682C107.19 374.388 106.808 374.095 106.398 373.802C105.987 373.508 105.547 373.244 105.077 373.009C104.549 372.716 103.933 372.569 103.229 372.569C102.173 372.569 101.293 372.892 100.589 373.538C99.8844 374.183 99.5323 375.004 99.5323 376.002C99.5323 376.824 99.7377 377.498 100.148 378.026C100.501 378.555 100.941 379.053 101.469 379.523C101.938 379.992 102.378 380.491 102.789 381.019C103.141 381.547 103.317 382.251 103.317 383.131ZM115.287 359.455C116.93 359.455 118.251 359.954 119.248 360.951C120.246 361.949 120.744 363.298 120.744 365C120.744 366.702 120.246 368.051 119.248 369.049C118.251 370.046 116.93 370.545 115.287 370.545C113.644 370.545 112.324 370.046 111.327 369.049C110.329 368.051 109.83 366.702 109.83 365C109.83 363.298 110.329 361.949 111.327 360.951C112.324 359.954 113.644 359.455 115.287 359.455Z" fill="black"/>
<path d="M119.656 295.945C121.108 297.397 121.793 298.953 121.71 300.612C121.627 302.272 120.922 303.766 119.594 305.093C118.266 306.421 116.773 307.127 115.113 307.21C113.453 307.293 111.897 306.608 110.445 305.156C109.615 304.326 108.868 303.289 108.205 302.044C107.541 300.799 107.043 299.554 106.711 298.31C106.379 297.065 106.234 295.924 106.275 294.887C106.275 293.808 106.524 293.019 107.022 292.522C107.52 292.024 108.308 291.775 109.387 291.775C110.424 291.733 111.565 291.878 112.81 292.21C114.055 292.542 115.3 293.04 116.544 293.704C117.789 294.368 118.826 295.115 119.656 295.945ZM138.452 298.31C137.83 298.932 137.207 299.305 136.585 299.43C135.921 299.513 135.257 299.554 134.593 299.554C133.888 299.513 133.224 299.554 132.602 299.679C131.938 299.762 131.315 300.094 130.734 300.675C130.029 301.38 129.697 302.21 129.739 303.164C129.78 304.118 130.174 304.969 130.921 305.716C131.419 306.214 131.938 306.566 132.477 306.774C133.016 306.898 133.535 307.002 134.033 307.085C134.531 307.168 134.987 307.251 135.402 307.334C135.859 307.376 136.232 307.541 136.523 307.832C136.896 308.205 137.041 308.641 136.958 309.139C136.875 309.554 136.688 309.907 136.398 310.197C136.066 310.529 135.547 310.757 134.842 310.882C134.137 310.923 133.369 310.861 132.539 310.695C131.751 310.487 130.942 310.176 130.112 309.761C129.241 309.305 128.473 308.745 127.809 308.081C126.979 307.251 126.316 306.255 125.818 305.093C125.32 303.932 125.05 302.708 125.009 301.421C124.926 300.094 125.133 298.766 125.631 297.438C126.129 296.111 126.979 294.845 128.183 293.642C130.05 291.775 131.958 290.82 133.909 290.779C135.817 290.696 137.29 291.173 138.327 292.21C139.116 292.999 139.572 293.994 139.697 295.198C139.78 296.36 139.365 297.397 138.452 298.31ZM112.81 323.951C111.897 324.864 110.86 325.279 109.698 325.196C108.495 325.072 107.499 324.615 106.711 323.827C105.674 322.79 105.196 321.317 105.279 319.408C105.321 317.458 106.275 315.549 108.142 313.682C109.346 312.479 110.611 311.628 111.939 311.131C113.267 310.633 114.594 310.425 115.922 310.508C117.208 310.55 118.432 310.819 119.594 311.317C120.756 311.815 121.752 312.479 122.581 313.309C123.245 313.973 123.805 314.74 124.262 315.612C124.677 316.441 124.967 317.271 125.133 318.101C125.341 318.889 125.403 319.657 125.32 320.404C125.237 321.068 125.029 321.566 124.697 321.898C124.407 322.188 124.034 322.395 123.577 322.52C123.121 322.561 122.706 322.395 122.332 322.022C122.042 321.732 121.855 321.379 121.772 320.964C121.731 320.508 121.669 320.03 121.586 319.533C121.503 319.035 121.378 318.537 121.212 318.039C121.046 317.458 120.714 316.919 120.216 316.421C119.469 315.674 118.619 315.28 117.665 315.238C116.71 315.197 115.88 315.529 115.175 316.234C114.594 316.815 114.262 317.437 114.179 318.101C114.055 318.723 114.013 319.387 114.055 320.093C114.055 320.757 114.013 321.42 113.93 322.084C113.806 322.707 113.432 323.329 112.81 323.951ZM138.016 315.674C139.178 316.836 139.759 318.122 139.759 319.533C139.759 320.943 139.157 322.25 137.954 323.454C136.751 324.657 135.444 325.258 134.033 325.258C132.622 325.258 131.336 324.678 130.174 323.516C129.013 322.354 128.432 321.068 128.432 319.657C128.432 318.246 129.033 316.939 130.237 315.736C131.44 314.533 132.747 313.931 134.158 313.931C135.568 313.931 136.854 314.512 138.016 315.674Z" fill="black"/>
</g>
<rect x="0.5" y="186" width="359" height="359" stroke="#E4E4E4"/>
<defs>
<clipPath id="clip0_466_5043">
<rect y="185.5" width="360" height="360" fill="white"/>
</clipPath>
</defs>
</svg>
