<svg width="1312" height="566" viewBox="0 0 1312 566" fill="none" xmlns="http://www.w3.org/2000/svg">
<rect x="1" y="1.00024" width="1310" height="564" fill="white"/>
<rect x="1" y="1.00024" width="1310" height="564" stroke="#E4E4E4" stroke-width="2"/>
<rect x="195.5" y="10.5002" width="174" height="174" fill="white"/>
<rect x="195.5" y="10.5002" width="174" height="174" stroke="#E4E4E4"/>
<rect width="1" height="155" transform="translate(207 19.5)" fill="#E4E4E4"/>
<rect width="1" height="155" transform="translate(218.5 19.5)" fill="#E4E4E4"/>
<rect width="1" height="155" transform="translate(230 19.5)" fill="#E4E4E4"/>
<rect width="1" height="155" transform="translate(241.5 19.5)" fill="#E4E4E4"/>
<rect width="1" height="155" transform="translate(253 19.5)" fill="#E4E4E4"/>
<rect width="1" height="155" transform="translate(264.5 19.5)" fill="#E4E4E4"/>
<rect width="1" height="155" transform="translate(276 19.5)" fill="#E4E4E4"/>
<rect width="1" height="155" transform="translate(287.5 19.5)" fill="#E4E4E4"/>
<rect width="1" height="155" transform="translate(299 19.5)" fill="#E4E4E4"/>
<rect width="1" height="155" transform="translate(310.5 19.5)" fill="#E4E4E4"/>
<rect width="1" height="155" transform="translate(322 19.5)" fill="#E4E4E4"/>
<rect width="1" height="155" transform="translate(333.5 19.5)" fill="#E4E4E4"/>
<rect width="1" height="155" transform="translate(345 19.5)" fill="#E4E4E4"/>
<rect width="1" height="155" transform="translate(356.5 19.5)" fill="#E4E4E4"/>
<rect x="380.5" y="10.5002" width="174" height="174" fill="white"/>
<rect x="380.5" y="10.5002" width="174" height="174" stroke="#E4E4E4"/>
<rect width="1" height="155" transform="translate(392 19.5)" fill="#E4E4E4"/>
<rect width="1" height="155" transform="translate(403.5 19.5)" fill="#E4E4E4"/>
<rect width="1" height="155" transform="translate(415 19.5)" fill="#E4E4E4"/>
<rect width="1" height="155" transform="translate(426.5 19.5)" fill="#E4E4E4"/>
<rect width="1" height="155" transform="translate(438 19.5)" fill="#E4E4E4"/>
<rect width="1" height="155" transform="translate(449.5 19.5)" fill="#E4E4E4"/>
<rect width="1" height="155" transform="translate(461 19.5)" fill="#E4E4E4"/>
<rect width="1" height="155" transform="translate(472.5 19.5)" fill="#E4E4E4"/>
<rect width="1" height="155" transform="translate(484 19.5)" fill="#E4E4E4"/>
<rect width="1" height="155" transform="translate(495.5 19.5)" fill="#E4E4E4"/>
<rect width="1" height="155" transform="translate(507 19.5)" fill="#E4E4E4"/>
<rect width="1" height="155" transform="translate(518.5 19.5)" fill="#E4E4E4"/>
<rect width="1" height="155" transform="translate(530 19.5)" fill="#E4E4E4"/>
<rect width="1" height="155" transform="translate(541.5 19.5)" fill="#E4E4E4"/>
<rect x="565.5" y="10.5002" width="174" height="174" fill="white"/>
<rect x="565.5" y="10.5002" width="174" height="174" stroke="#E4E4E4"/>
<rect width="1" height="155" transform="translate(577 19.5)" fill="#E4E4E4"/>
<rect width="1" height="155" transform="translate(588.5 19.5)" fill="#E4E4E4"/>
<rect width="1" height="155" transform="translate(600 19.5)" fill="#E4E4E4"/>
<rect width="1" height="155" transform="translate(611.5 19.5)" fill="#E4E4E4"/>
<rect width="1" height="155" transform="translate(623 19.5)" fill="#E4E4E4"/>
<rect width="1" height="155" transform="translate(634.5 19.5)" fill="#E4E4E4"/>
<rect width="1" height="155" transform="translate(646 19.5)" fill="#E4E4E4"/>
<rect width="1" height="155" transform="translate(657.5 19.5)" fill="#E4E4E4"/>
<rect width="1" height="155" transform="translate(669 19.5)" fill="#E4E4E4"/>
<rect width="1" height="155" transform="translate(680.5 19.5)" fill="#E4E4E4"/>
<rect width="1" height="155" transform="translate(692 19.5)" fill="#E4E4E4"/>
<rect width="1" height="155" transform="translate(703.5 19.5)" fill="#E4E4E4"/>
<rect width="1" height="155" transform="translate(715 19.5)" fill="#E4E4E4"/>
<rect width="1" height="155" transform="translate(726.5 19.5)" fill="#E4E4E4"/>
<rect x="750.5" y="10.5002" width="174" height="174" fill="white"/>
<rect x="750.5" y="10.5002" width="174" height="174" stroke="#E4E4E4"/>
<rect width="1" height="155" transform="translate(762 19.5)" fill="#E4E4E4"/>
<rect width="1" height="155" transform="translate(773.5 19.5)" fill="#E4E4E4"/>
<rect width="1" height="155" transform="translate(785 19.5)" fill="#E4E4E4"/>
<rect width="1" height="155" transform="translate(796.5 19.5)" fill="#E4E4E4"/>
<rect width="1" height="155" transform="translate(808 19.5)" fill="#E4E4E4"/>
<rect width="1" height="155" transform="translate(819.5 19.5)" fill="#E4E4E4"/>
<rect width="1" height="155" transform="translate(831 19.5)" fill="#E4E4E4"/>
<rect width="1" height="155" transform="translate(842.5 19.5)" fill="#E4E4E4"/>
<rect width="1" height="155" transform="translate(854 19.5)" fill="#E4E4E4"/>
<rect width="1" height="155" transform="translate(865.5 19.5)" fill="#E4E4E4"/>
<rect width="1" height="155" transform="translate(877 19.5)" fill="#E4E4E4"/>
<rect width="1" height="155" transform="translate(888.5 19.5)" fill="#E4E4E4"/>
<rect width="1" height="155" transform="translate(900 19.5)" fill="#E4E4E4"/>
<rect width="1" height="155" transform="translate(911.5 19.5)" fill="#E4E4E4"/>
<rect x="10.5" y="196" width="174" height="174" fill="white"/>
<rect x="10.5" y="196" width="174" height="174" stroke="#E4E4E4"/>
<rect width="1" height="155" transform="translate(22 205)" fill="#E4E4E4"/>
<rect width="1" height="155" transform="translate(33.5 205)" fill="#E4E4E4"/>
<rect width="1" height="155" transform="translate(45 205)" fill="#E4E4E4"/>
<rect width="1" height="155" transform="translate(56.5 205)" fill="#E4E4E4"/>
<rect width="1" height="155" transform="translate(68 205)" fill="#E4E4E4"/>
<rect width="1" height="155" transform="translate(79.5 205)" fill="#E4E4E4"/>
<rect width="1" height="155" transform="translate(91 205)" fill="#E4E4E4"/>
<rect width="1" height="155" transform="translate(102.5 205)" fill="#E4E4E4"/>
<rect width="1" height="155" transform="translate(114 205)" fill="#E4E4E4"/>
<rect width="1" height="155" transform="translate(125.5 205)" fill="#E4E4E4"/>
<rect width="1" height="155" transform="translate(137 205)" fill="#E4E4E4"/>
<rect width="1" height="155" transform="translate(148.5 205)" fill="#E4E4E4"/>
<rect width="1" height="155" transform="translate(160 205)" fill="#E4E4E4"/>
<rect width="1" height="155" transform="translate(171.5 205)" fill="#E4E4E4"/>
<rect x="195.5" y="196" width="174" height="174" fill="white"/>
<rect x="195.5" y="196" width="174" height="174" stroke="#E4E4E4"/>
<rect width="1" height="155" transform="translate(207 205)" fill="#E4E4E4"/>
<rect width="1" height="155" transform="translate(218.5 205)" fill="#E4E4E4"/>
<rect width="1" height="155" transform="translate(230 205)" fill="#E4E4E4"/>
<rect width="1" height="155" transform="translate(241.5 205)" fill="#E4E4E4"/>
<rect width="1" height="155" transform="translate(253 205)" fill="#E4E4E4"/>
<rect width="1" height="155" transform="translate(264.5 205)" fill="#E4E4E4"/>
<rect width="1" height="155" transform="translate(276 205)" fill="#E4E4E4"/>
<rect width="1" height="155" transform="translate(287.5 205)" fill="#E4E4E4"/>
<rect width="1" height="155" transform="translate(299 205)" fill="#E4E4E4"/>
<rect width="1" height="155" transform="translate(310.5 205)" fill="#E4E4E4"/>
<rect width="1" height="155" transform="translate(322 205)" fill="#E4E4E4"/>
<rect width="1" height="155" transform="translate(333.5 205)" fill="#E4E4E4"/>
<rect width="1" height="155" transform="translate(345 205)" fill="#E4E4E4"/>
<rect width="1" height="155" transform="translate(356.5 205)" fill="#E4E4E4"/>
<rect x="750.5" y="196" width="174" height="174" fill="white"/>
<rect x="750.5" y="196" width="174" height="174" stroke="#E4E4E4"/>
<rect width="1" height="155" transform="translate(762 205)" fill="#E4E4E4"/>
<rect width="1" height="155" transform="translate(773.5 205)" fill="#E4E4E4"/>
<rect width="1" height="155" transform="translate(785 205)" fill="#E4E4E4"/>
<rect width="1" height="155" transform="translate(796.5 205)" fill="#E4E4E4"/>
<rect width="1" height="155" transform="translate(808 205)" fill="#E4E4E4"/>
<rect width="1" height="155" transform="translate(819.5 205)" fill="#E4E4E4"/>
<rect width="1" height="155" transform="translate(831 205)" fill="#E4E4E4"/>
<rect width="1" height="155" transform="translate(842.5 205)" fill="#E4E4E4"/>
<rect width="1" height="155" transform="translate(854 205)" fill="#E4E4E4"/>
<rect width="1" height="155" transform="translate(865.5 205)" fill="#E4E4E4"/>
<rect width="1" height="155" transform="translate(877 205)" fill="#E4E4E4"/>
<rect width="1" height="155" transform="translate(888.5 205)" fill="#E4E4E4"/>
<rect width="1" height="155" transform="translate(900 205)" fill="#E4E4E4"/>
<rect width="1" height="155" transform="translate(911.5 205)" fill="#E4E4E4"/>
<rect x="10.5" y="381.5" width="174" height="174" fill="white"/>
<rect x="10.5" y="381.5" width="174" height="174" stroke="#E4E4E4"/>
<rect width="1" height="155" transform="translate(22 390.5)" fill="#E4E4E4"/>
<rect width="1" height="155" transform="translate(33.5 390.5)" fill="#E4E4E4"/>
<rect width="1" height="155" transform="translate(45 390.5)" fill="#E4E4E4"/>
<rect width="1" height="155" transform="translate(56.5 390.5)" fill="#E4E4E4"/>
<rect width="1" height="155" transform="translate(68 390.5)" fill="#E4E4E4"/>
<rect width="1" height="155" transform="translate(79.5 390.5)" fill="#E4E4E4"/>
<rect width="1" height="155" transform="translate(91 390.5)" fill="#E4E4E4"/>
<rect width="1" height="155" transform="translate(102.5 390.5)" fill="#E4E4E4"/>
<rect width="1" height="155" transform="translate(114 390.5)" fill="#E4E4E4"/>
<rect width="1" height="155" transform="translate(125.5 390.5)" fill="#E4E4E4"/>
<rect width="1" height="155" transform="translate(137 390.5)" fill="#E4E4E4"/>
<rect width="1" height="155" transform="translate(148.5 390.5)" fill="#E4E4E4"/>
<rect width="1" height="155" transform="translate(160 390.5)" fill="#E4E4E4"/>
<rect width="1" height="155" transform="translate(171.5 390.5)" fill="#E4E4E4"/>
<rect x="750.5" y="381.5" width="174" height="174" fill="white"/>
<rect x="750.5" y="381.5" width="174" height="174" stroke="#E4E4E4"/>
<rect width="1" height="155" transform="translate(762 390.5)" fill="#E4E4E4"/>
<rect width="1" height="155" transform="translate(773.5 390.5)" fill="#E4E4E4"/>
<rect width="1" height="155" transform="translate(785 390.5)" fill="#E4E4E4"/>
<rect width="1" height="155" transform="translate(796.5 390.5)" fill="#E4E4E4"/>
<rect width="1" height="155" transform="translate(808 390.5)" fill="#E4E4E4"/>
<rect width="1" height="155" transform="translate(819.5 390.5)" fill="#E4E4E4"/>
<rect width="1" height="155" transform="translate(831 390.5)" fill="#E4E4E4"/>
<rect width="1" height="155" transform="translate(842.5 390.5)" fill="#E4E4E4"/>
<rect width="1" height="155" transform="translate(854 390.5)" fill="#E4E4E4"/>
<rect width="1" height="155" transform="translate(865.5 390.5)" fill="#E4E4E4"/>
<rect width="1" height="155" transform="translate(877 390.5)" fill="#E4E4E4"/>
<rect width="1" height="155" transform="translate(888.5 390.5)" fill="#E4E4E4"/>
<rect width="1" height="155" transform="translate(900 390.5)" fill="#E4E4E4"/>
<rect width="1" height="155" transform="translate(911.5 390.5)" fill="#E4E4E4"/>
<rect x="935.5" y="381.5" width="174" height="174" fill="white"/>
<rect x="935.5" y="381.5" width="174" height="174" stroke="#E4E4E4"/>
<rect width="1" height="155" transform="translate(947 390.5)" fill="#E4E4E4"/>
<rect width="1" height="155" transform="translate(958.5 390.5)" fill="#E4E4E4"/>
<rect width="1" height="155" transform="translate(970 390.5)" fill="#E4E4E4"/>
<rect width="1" height="155" transform="translate(981.5 390.5)" fill="#E4E4E4"/>
<rect width="1" height="155" transform="translate(993 390.5)" fill="#E4E4E4"/>
<rect width="1" height="155" transform="translate(1004.5 390.5)" fill="#E4E4E4"/>
<rect width="1" height="155" transform="translate(1016 390.5)" fill="#E4E4E4"/>
<rect width="1" height="155" transform="translate(1027.5 390.5)" fill="#E4E4E4"/>
<rect width="1" height="155" transform="translate(1039 390.5)" fill="#E4E4E4"/>
<rect width="1" height="155" transform="translate(1050.5 390.5)" fill="#E4E4E4"/>
<rect width="1" height="155" transform="translate(1062 390.5)" fill="#E4E4E4"/>
<rect width="1" height="155" transform="translate(1073.5 390.5)" fill="#E4E4E4"/>
<rect width="1" height="155" transform="translate(1085 390.5)" fill="#E4E4E4"/>
<rect width="1" height="155" transform="translate(1096.5 390.5)" fill="#E4E4E4"/>
<g clip-path="url(#clip0_327_8009)">
<rect width="175" height="175" transform="matrix(1 0 0 -1 10 185.5)" fill="white"/>
<rect x="0.5" y="-0.5" width="359" height="359" rx="179.5" transform="matrix(1 0 0 -1 10 184.5)" fill="white"/>
<rect x="0.5" y="-0.5" width="359" height="359" rx="179.5" transform="matrix(1 0 0 -1 10 184.5)" stroke="#E4E4E4"/>
<path d="M182.986 97.1458C182.986 95.0921 183.602 93.5078 184.835 92.3929C186.067 91.278 187.622 90.7206 189.499 90.7206C191.377 90.7206 192.932 91.278 194.164 92.3929C195.397 93.5078 196.013 95.0921 196.013 97.1458C196.013 98.3194 195.807 99.581 195.397 100.931C194.986 102.28 194.458 103.512 193.812 104.627C193.167 105.742 192.463 106.652 191.7 107.356C190.937 108.119 190.204 108.5 189.499 108.5C188.795 108.5 188.062 108.119 187.299 107.356C186.536 106.652 185.832 105.742 185.187 104.627C184.541 103.512 184.013 102.28 183.602 100.931C183.192 99.581 182.986 98.3194 182.986 97.1458ZM171.368 82.183C172.248 82.183 172.952 82.359 173.48 82.7111C174.008 83.1218 174.507 83.5619 174.977 84.0313C175.446 84.5594 175.945 84.9995 176.473 85.3516C177.001 85.7623 177.676 85.9677 178.497 85.9677C179.495 85.9677 180.316 85.6156 180.962 84.9115C181.607 84.2073 181.93 83.3272 181.93 82.271C181.93 81.5668 181.813 80.9507 181.578 80.4226C181.285 79.9532 180.991 79.5131 180.698 79.1024C180.404 78.6916 180.14 78.3102 179.906 77.9581C179.612 77.6061 179.465 77.2247 179.465 76.8139C179.465 76.2858 179.671 75.8751 180.082 75.5817C180.434 75.347 180.815 75.2296 181.226 75.2296C181.695 75.2296 182.223 75.435 182.81 75.8457C183.338 76.3152 183.837 76.9019 184.306 77.6061C184.717 78.3102 185.069 79.1024 185.363 79.9825C185.656 80.9214 185.803 81.8602 185.803 82.7991C185.803 83.9726 185.568 85.1462 185.099 86.3197C184.629 87.4933 183.954 88.5495 183.074 89.4884C182.194 90.4859 181.108 91.278 179.818 91.8648C178.527 92.4516 177.03 92.745 175.329 92.745C172.688 92.745 170.664 92.0702 169.256 90.7206C167.847 89.4297 167.143 88.0507 167.143 86.5838C167.143 85.4689 167.525 84.4421 168.287 83.5032C169.05 82.623 170.077 82.183 171.368 82.183ZM207.631 82.183C208.922 82.183 209.949 82.623 210.711 83.5032C211.474 84.4421 211.856 85.4689 211.856 86.5838C211.856 88.0507 211.152 89.4297 209.743 90.7206C208.335 92.0702 206.311 92.745 203.67 92.745C201.968 92.745 200.472 92.4516 199.181 91.8648C197.89 91.278 196.805 90.4859 195.925 89.4884C195.044 88.5495 194.37 87.4933 193.9 86.3197C193.431 85.1462 193.196 83.9726 193.196 82.7991C193.196 81.8602 193.343 80.9214 193.636 79.9825C193.93 79.1024 194.311 78.3102 194.78 77.6061C195.191 76.9019 195.69 76.3152 196.277 75.8457C196.805 75.435 197.304 75.2296 197.773 75.2296C198.184 75.2296 198.595 75.347 199.005 75.5817C199.357 75.8751 199.533 76.2858 199.533 76.8139C199.533 77.2247 199.416 77.6061 199.181 77.9581C198.888 78.3102 198.595 78.6916 198.301 79.1024C198.008 79.5131 197.744 79.9532 197.509 80.4226C197.216 80.9507 197.069 81.5668 197.069 82.271C197.069 83.3272 197.392 84.2073 198.037 84.9115C198.683 85.6156 199.504 85.9677 200.502 85.9677C201.323 85.9677 201.998 85.7623 202.526 85.3516C203.054 84.9995 203.553 84.5594 204.022 84.0313C204.492 83.5619 204.99 83.1218 205.518 82.7111C206.047 82.359 206.751 82.183 207.631 82.183ZM183.954 70.2127C183.954 68.5697 184.453 67.2494 185.451 66.2519C186.448 65.2544 187.798 64.7556 189.499 64.7556C191.201 64.7556 192.551 65.2544 193.548 66.2519C194.546 67.2494 195.044 68.5697 195.044 70.2127C195.044 71.8556 194.546 73.1759 193.548 74.1734C192.551 75.1709 191.201 75.6697 189.499 75.6697C187.798 75.6697 186.448 75.1709 185.451 74.1734C184.453 73.1759 183.954 71.8556 183.954 70.2127Z" fill="#E4E4E4"/>
<path d="M120.444 65.8446C121.896 64.3924 123.452 63.7078 125.112 63.7908C126.772 63.8738 128.265 64.5792 129.593 65.9069C130.921 67.2346 131.626 68.7283 131.709 70.388C131.792 72.0476 131.107 73.6036 129.655 75.0558C128.825 75.8856 127.788 76.6324 126.543 77.2963C125.299 77.9602 124.054 78.4581 122.809 78.79C121.564 79.1219 120.423 79.2672 119.386 79.2257C118.307 79.2257 117.519 78.9767 117.021 78.4788C116.523 77.9809 116.274 77.1926 116.274 76.1138C116.233 75.0765 116.378 73.9355 116.71 72.6908C117.042 71.446 117.54 70.2013 118.204 68.9565C118.867 67.7118 119.614 66.6745 120.444 65.8446ZM122.809 47.049C123.432 47.6713 123.805 48.2937 123.929 48.9161C124.012 49.58 124.054 50.2438 124.054 50.9077C124.012 51.613 124.054 52.2769 124.178 52.8993C124.261 53.5631 124.593 54.1855 125.174 54.7664C125.88 55.4718 126.709 55.8037 127.664 55.7622C128.618 55.7207 129.469 55.3265 130.215 54.5797C130.713 54.0818 131.066 53.5631 131.273 53.0238C131.398 52.4844 131.502 51.9657 131.585 51.4678C131.668 50.9699 131.751 50.5135 131.834 50.0986C131.875 49.6422 132.041 49.2688 132.331 48.9783C132.705 48.6049 133.141 48.4597 133.638 48.5427C134.053 48.6256 134.406 48.8124 134.696 49.1028C135.028 49.4347 135.257 49.9534 135.381 50.6587C135.423 51.3641 135.36 52.1317 135.194 52.9615C134.987 53.7499 134.676 54.5589 134.261 55.3888C133.804 56.2601 133.244 57.0277 132.58 57.6916C131.751 58.5214 130.755 59.1852 129.593 59.6831C128.431 60.181 127.207 60.4507 125.921 60.4922C124.593 60.5752 123.266 60.3678 121.938 59.8699C120.61 59.372 119.345 58.5214 118.141 57.3181C116.274 55.451 115.32 53.5424 115.278 51.5923C115.195 49.6837 115.673 48.2107 116.71 47.1734C117.498 46.3851 118.494 45.9287 119.697 45.8042C120.859 45.7212 121.896 46.1362 122.809 47.049ZM148.451 72.6908C149.364 73.6036 149.779 74.6409 149.696 75.8026C149.571 77.0059 149.115 78.0017 148.326 78.79C147.289 79.8273 145.816 80.3045 143.908 80.2215C141.957 80.18 140.049 79.2257 138.182 77.3586C136.979 76.1553 136.128 74.8898 135.63 73.5621C135.132 72.2343 134.925 70.9066 135.008 69.5789C135.049 68.2926 135.319 67.0686 135.817 65.9069C136.315 64.7451 136.979 63.7493 137.808 62.9195C138.472 62.2556 139.24 61.6955 140.111 61.2391C140.941 60.8242 141.771 60.5337 142.601 60.3678C143.389 60.1603 144.157 60.0981 144.903 60.181C145.567 60.264 146.065 60.4715 146.397 60.8034C146.688 61.0939 146.895 61.4673 147.019 61.9237C147.061 62.3801 146.895 62.795 146.522 63.1684C146.231 63.4589 145.878 63.6456 145.464 63.7286C145.007 63.7701 144.53 63.8323 144.032 63.9153C143.534 63.9983 143.036 64.1227 142.538 64.2887C141.957 64.4547 141.418 64.7866 140.92 65.2845C140.173 66.0314 139.779 66.8819 139.738 67.8362C139.696 68.7905 140.028 69.6204 140.733 70.3257C141.314 70.9066 141.937 71.2385 142.601 71.3215C143.223 71.446 143.887 71.4875 144.592 71.446C145.256 71.446 145.92 71.4875 146.584 71.5705C147.206 71.695 147.829 72.0684 148.451 72.6908ZM140.173 47.4846C141.335 46.3229 142.621 45.742 144.032 45.742C145.443 45.742 146.75 46.3436 147.953 47.5469C149.156 48.7501 149.758 50.0571 149.758 51.4678C149.758 52.8785 149.177 54.1648 148.015 55.3265C146.853 56.4883 145.567 57.0692 144.157 57.0692C142.746 57.0692 141.439 56.4676 140.236 55.2643C139.032 54.061 138.431 52.7541 138.431 51.3433C138.431 49.9326 139.012 48.6464 140.173 47.4846Z" fill="#E4E4E4"/>
<path d="M98.3542 -0.513094C100.408 -0.513094 101.992 0.103025 103.107 1.33526C104.222 2.5675 104.779 4.12246 104.779 6.00016C104.779 7.87785 104.222 9.43282 103.107 10.6651C101.992 11.8973 100.408 12.5134 98.3542 12.5134C97.1806 12.5134 95.919 12.308 94.5695 11.8973C93.2199 11.4865 91.9876 10.9584 90.8727 10.313C89.7579 9.66753 88.8484 8.96339 88.1442 8.20058C87.3814 7.43777 87 6.70429 87 6.00016C87 5.29602 87.3814 4.56255 88.1442 3.79973C88.8484 3.03692 89.7579 2.33279 90.8727 1.68733C91.9876 1.04187 93.2199 0.513771 94.5695 0.103025C95.919 -0.30772 97.1806 -0.513094 98.3542 -0.513094ZM113.317 -12.1313C113.317 -11.2512 113.141 -10.547 112.789 -10.0189C112.378 -9.49082 111.938 -8.99205 111.469 -8.52263C110.941 -8.05321 110.501 -7.55444 110.148 -7.02634C109.738 -6.49824 109.532 -5.82344 109.532 -5.00195C109.532 -4.00443 109.884 -3.18294 110.589 -2.53748C111.293 -1.89202 112.173 -1.5693 113.229 -1.5693C113.933 -1.5693 114.549 -1.68665 115.077 -1.92136C115.547 -2.21475 115.987 -2.50814 116.398 -2.80153C116.808 -3.09492 117.19 -3.35897 117.542 -3.59368C117.894 -3.88707 118.275 -4.03377 118.686 -4.03377C119.214 -4.03377 119.625 -3.8284 119.918 -3.41765C120.153 -3.06558 120.27 -2.68418 120.27 -2.27343C120.27 -1.80401 120.065 -1.27591 119.654 -0.689127C119.185 -0.161026 118.598 0.337736 117.894 0.807159C117.19 1.2179 116.398 1.56997 115.517 1.86336C114.579 2.15675 113.64 2.30345 112.701 2.30345C111.527 2.30345 110.354 2.06874 109.18 1.59931C108.007 1.12989 106.95 0.455091 106.012 -0.425077C105.014 -1.30525 104.222 -2.39079 103.635 -3.6817C103.048 -4.97261 102.755 -6.4689 102.755 -8.17056C102.755 -10.8111 103.43 -12.8355 104.779 -14.2437C106.07 -15.652 107.449 -16.3561 108.916 -16.3561C110.031 -16.3561 111.058 -15.9747 111.997 -15.2119C112.877 -14.4491 113.317 -13.4222 113.317 -12.1313ZM113.317 24.1316C113.317 25.4225 112.877 26.4494 111.997 27.2122C111.058 27.975 110.031 28.3564 108.916 28.3564C107.449 28.3564 106.07 27.6523 104.779 26.244C103.43 24.8358 102.755 22.8114 102.755 20.1709C102.755 18.4692 103.048 16.9729 103.635 15.682C104.222 14.3911 105.014 13.3056 106.012 12.4254C106.95 11.5452 108.007 10.8704 109.18 10.401C110.354 9.93158 111.527 9.69687 112.701 9.69687C113.64 9.69687 114.579 9.84356 115.517 10.1369C116.398 10.4303 117.19 10.8117 117.894 11.2812C118.598 11.6919 119.185 12.1907 119.654 12.7775C120.065 13.3056 120.27 13.8043 120.27 14.2737C120.27 14.6845 120.153 15.0952 119.918 15.506C119.625 15.858 119.214 16.0341 118.686 16.0341C118.275 16.0341 117.894 15.9167 117.542 15.682C117.19 15.3886 116.808 15.0952 116.398 14.8018C115.987 14.5085 115.547 14.2444 115.077 14.0097C114.549 13.7163 113.933 13.5696 113.229 13.5696C112.173 13.5696 111.293 13.8923 110.589 14.5378C109.884 15.1833 109.532 16.0047 109.532 17.0023C109.532 17.8238 109.738 18.4986 110.148 19.0267C110.501 19.5548 110.941 20.0535 111.469 20.5229C111.938 20.9924 112.378 21.4911 112.789 22.0192C113.141 22.5473 113.317 23.2515 113.317 24.1316ZM125.287 0.455093C126.93 0.455093 128.251 0.953856 129.248 1.95138C130.246 2.9489 130.744 4.2985 130.744 6.00016C130.744 7.70182 130.246 9.05141 129.248 10.0489C128.251 11.0465 126.93 11.5452 125.287 11.5452C123.644 11.5452 122.324 11.0465 121.327 10.0489C120.329 9.05141 119.83 7.70182 119.83 6.00016C119.83 4.2985 120.329 2.9489 121.327 1.95138C122.324 0.953856 123.644 0.455093 125.287 0.455093Z" fill="#E4E4E4"/>
</g>
<rect x="0.5" y="-0.5" width="174" height="174" transform="matrix(1 0 0 -1 10 184.5)" stroke="#E4E4E4"/>
<g clip-path="url(#clip1_327_8009)">
<rect x="935" y="10.5" width="360" height="360" fill="white"/>
<rect x="935.5" y="11" width="359" height="359" rx="179.5" fill="white"/>
<rect x="935.5" y="11" width="359" height="359" rx="179.5" stroke="#E4E4E4"/>
<path d="M1121.01 98.8542C1121.01 100.908 1120.4 102.492 1119.16 103.607C1117.93 104.722 1116.38 105.279 1114.5 105.279C1112.62 105.279 1111.07 104.722 1109.83 103.607C1108.6 102.492 1107.99 100.908 1107.99 98.8542C1107.99 97.6806 1108.19 96.419 1108.6 95.0695C1109.01 93.7199 1109.54 92.4876 1110.19 91.3727C1110.83 90.2579 1111.54 89.3484 1112.3 88.6442C1113.06 87.8814 1113.8 87.5 1114.5 87.5C1115.2 87.5 1115.94 87.8814 1116.7 88.6442C1117.46 89.3484 1118.17 90.2579 1118.81 91.3727C1119.46 92.4876 1119.99 93.7199 1120.4 95.0695C1120.81 96.419 1121.01 97.6806 1121.01 98.8542ZM1132.63 113.817C1131.75 113.817 1131.05 113.641 1130.52 113.289C1129.99 112.878 1129.49 112.438 1129.02 111.969C1128.55 111.441 1128.05 111.001 1127.53 110.648C1127 110.238 1126.32 110.032 1125.5 110.032C1124.5 110.032 1123.68 110.384 1123.04 111.089C1122.39 111.793 1122.07 112.673 1122.07 113.729C1122.07 114.433 1122.19 115.049 1122.42 115.577C1122.71 116.047 1123.01 116.487 1123.3 116.898C1123.59 117.308 1123.86 117.69 1124.09 118.042C1124.39 118.394 1124.53 118.775 1124.53 119.186C1124.53 119.714 1124.33 120.125 1123.92 120.418C1123.57 120.653 1123.18 120.77 1122.77 120.77C1122.3 120.77 1121.78 120.565 1121.19 120.154C1120.66 119.685 1120.16 119.098 1119.69 118.394C1119.28 117.69 1118.93 116.898 1118.64 116.017C1118.34 115.079 1118.2 114.14 1118.2 113.201C1118.2 112.027 1118.43 110.854 1118.9 109.68C1119.37 108.507 1120.04 107.45 1120.92 106.512C1121.81 105.514 1122.89 104.722 1124.18 104.135C1125.47 103.548 1126.97 103.255 1128.67 103.255C1131.31 103.255 1133.34 103.93 1134.74 105.279C1136.15 106.57 1136.86 107.949 1136.86 109.416C1136.86 110.531 1136.47 111.558 1135.71 112.497C1134.95 113.377 1133.92 113.817 1132.63 113.817ZM1096.37 113.817C1095.08 113.817 1094.05 113.377 1093.29 112.497C1092.52 111.558 1092.14 110.531 1092.14 109.416C1092.14 107.949 1092.85 106.57 1094.26 105.279C1095.66 103.93 1097.69 103.255 1100.33 103.255C1102.03 103.255 1103.53 103.548 1104.82 104.135C1106.11 104.722 1107.19 105.514 1108.07 106.512C1108.95 107.45 1109.63 108.507 1110.1 109.68C1110.57 110.854 1110.8 112.027 1110.8 113.201C1110.8 114.14 1110.66 115.079 1110.36 116.017C1110.07 116.898 1109.69 117.69 1109.22 118.394C1108.81 119.098 1108.31 119.685 1107.72 120.154C1107.19 120.565 1106.7 120.77 1106.23 120.77C1105.82 120.77 1105.4 120.653 1104.99 120.418C1104.64 120.125 1104.47 119.714 1104.47 119.186C1104.47 118.775 1104.58 118.394 1104.82 118.042C1105.11 117.69 1105.4 117.308 1105.7 116.898C1105.99 116.487 1106.26 116.047 1106.49 115.577C1106.78 115.049 1106.93 114.433 1106.93 113.729C1106.93 112.673 1106.61 111.793 1105.96 111.089C1105.32 110.384 1104.5 110.032 1103.5 110.032C1102.68 110.032 1102 110.238 1101.47 110.648C1100.95 111.001 1100.45 111.441 1099.98 111.969C1099.51 112.438 1099.01 112.878 1098.48 113.289C1097.95 113.641 1097.25 113.817 1096.37 113.817ZM1120.04 125.787C1120.04 127.43 1119.55 128.751 1118.55 129.748C1117.55 130.746 1116.2 131.244 1114.5 131.244C1112.8 131.244 1111.45 130.746 1110.45 129.748C1109.45 128.751 1108.95 127.43 1108.95 125.787C1108.95 124.144 1109.45 122.824 1110.45 121.827C1111.45 120.829 1112.8 120.33 1114.5 120.33C1116.2 120.33 1117.55 120.829 1118.55 121.827C1119.55 122.824 1120.04 124.144 1120.04 125.787Z" fill="#E4E4E4"/>
<path d="M1183.56 130.156C1182.1 131.608 1180.55 132.293 1178.89 132.21C1177.23 132.127 1175.73 131.422 1174.41 130.094C1173.08 128.766 1172.37 127.272 1172.29 125.613C1172.21 123.953 1172.89 122.397 1174.34 120.945C1175.17 120.115 1176.21 119.368 1177.46 118.704C1178.7 118.041 1179.95 117.543 1181.19 117.211C1182.43 116.879 1183.58 116.734 1184.61 116.775C1185.69 116.775 1186.48 117.024 1186.98 117.522C1187.48 118.02 1187.72 118.808 1187.72 119.887C1187.77 120.924 1187.62 122.065 1187.29 123.31C1186.96 124.555 1186.46 125.799 1185.8 127.044C1185.13 128.289 1184.38 129.326 1183.56 130.156ZM1181.19 148.952C1180.57 148.329 1180.19 147.707 1180.07 147.085C1179.99 146.421 1179.95 145.757 1179.95 145.093C1179.99 144.388 1179.95 143.724 1179.82 143.101C1179.74 142.438 1179.41 141.815 1178.82 141.234C1178.12 140.529 1177.29 140.197 1176.34 140.239C1175.38 140.28 1174.53 140.674 1173.78 141.421C1173.29 141.919 1172.93 142.438 1172.73 142.977C1172.6 143.516 1172.5 144.035 1172.41 144.533C1172.33 145.031 1172.25 145.487 1172.17 145.902C1172.12 146.359 1171.96 146.732 1171.67 147.022C1171.29 147.396 1170.86 147.541 1170.36 147.458C1169.95 147.375 1169.59 147.188 1169.3 146.898C1168.97 146.566 1168.74 146.047 1168.62 145.342C1168.58 144.637 1168.64 143.869 1168.8 143.039C1169.01 142.251 1169.32 141.442 1169.74 140.612C1170.19 139.741 1170.75 138.973 1171.42 138.309C1172.25 137.479 1173.24 136.815 1174.41 136.318C1175.57 135.82 1176.79 135.55 1178.08 135.508C1179.41 135.426 1180.73 135.633 1182.06 136.131C1183.39 136.629 1184.65 137.479 1185.86 138.683C1187.72 140.55 1188.68 142.458 1188.72 144.408C1188.8 146.317 1188.33 147.79 1187.29 148.827C1186.5 149.616 1185.51 150.072 1184.3 150.197C1183.14 150.279 1182.1 149.865 1181.19 148.952ZM1155.55 123.31C1154.64 122.397 1154.22 121.36 1154.3 120.198C1154.43 118.995 1154.88 117.999 1155.67 117.211C1156.71 116.173 1158.18 115.696 1160.09 115.779C1162.04 115.821 1163.95 116.775 1165.82 118.642C1167.02 119.845 1167.87 121.111 1168.37 122.439C1168.87 123.766 1169.07 125.094 1168.99 126.422C1168.95 127.708 1168.68 128.932 1168.18 130.094C1167.68 131.256 1167.02 132.251 1166.19 133.081C1165.53 133.745 1164.76 134.305 1163.89 134.762C1163.06 135.177 1162.23 135.467 1161.4 135.633C1160.61 135.84 1159.84 135.903 1159.1 135.82C1158.43 135.737 1157.93 135.529 1157.6 135.197C1157.31 134.907 1157.1 134.533 1156.98 134.077C1156.94 133.621 1157.1 133.206 1157.48 132.832C1157.77 132.542 1158.12 132.355 1158.54 132.272C1158.99 132.231 1159.47 132.168 1159.97 132.085C1160.46 132.002 1160.96 131.878 1161.46 131.712C1162.04 131.546 1162.58 131.214 1163.08 130.716C1163.83 129.969 1164.22 129.119 1164.26 128.164C1164.3 127.21 1163.97 126.38 1163.27 125.675C1162.68 125.094 1162.06 124.762 1161.4 124.679C1160.78 124.555 1160.11 124.513 1159.41 124.555C1158.74 124.555 1158.08 124.513 1157.42 124.43C1156.79 124.306 1156.17 123.932 1155.55 123.31ZM1163.83 148.516C1162.66 149.678 1161.38 150.259 1159.97 150.259C1158.56 150.259 1157.25 149.657 1156.05 148.454C1154.84 147.251 1154.24 145.944 1154.24 144.533C1154.24 143.122 1154.82 141.836 1155.98 140.674C1157.15 139.512 1158.43 138.932 1159.84 138.932C1161.25 138.932 1162.56 139.533 1163.76 140.736C1164.97 141.94 1165.57 143.247 1165.57 144.657C1165.57 146.068 1164.99 147.354 1163.83 148.516Z" fill="#E4E4E4"/>
<path d="M1205.65 196.514C1203.59 196.514 1202.01 195.898 1200.89 194.665C1199.78 193.433 1199.22 191.878 1199.22 190.001C1199.22 188.123 1199.78 186.568 1200.89 185.336C1202.01 184.103 1203.59 183.487 1205.65 183.487C1206.82 183.487 1208.08 183.693 1209.43 184.103C1210.78 184.514 1212.01 185.042 1213.13 185.688C1214.24 186.333 1215.15 187.037 1215.86 187.8C1216.62 188.563 1217 189.296 1217 190.001C1217 190.705 1216.62 191.438 1215.86 192.201C1215.15 192.964 1214.24 193.668 1213.13 194.313C1212.01 194.959 1210.78 195.487 1209.43 195.898C1208.08 196.308 1206.82 196.514 1205.65 196.514ZM1190.68 208.132C1190.68 207.252 1190.86 206.548 1191.21 206.02C1191.62 205.492 1192.06 204.993 1192.53 204.523C1193.06 204.054 1193.5 203.555 1193.85 203.027C1194.26 202.499 1194.47 201.824 1194.47 201.003C1194.47 200.005 1194.12 199.184 1193.41 198.538C1192.71 197.893 1191.83 197.57 1190.77 197.57C1190.07 197.57 1189.45 197.687 1188.92 197.922C1188.45 198.215 1188.01 198.509 1187.6 198.802C1187.19 199.096 1186.81 199.36 1186.46 199.594C1186.11 199.888 1185.73 200.035 1185.31 200.035C1184.79 200.035 1184.38 199.829 1184.08 199.418C1183.85 199.066 1183.73 198.685 1183.73 198.274C1183.73 197.805 1183.94 197.277 1184.35 196.69C1184.82 196.162 1185.4 195.663 1186.11 195.194C1186.81 194.783 1187.6 194.431 1188.48 194.137C1189.42 193.844 1190.36 193.697 1191.3 193.697C1192.47 193.697 1193.65 193.932 1194.82 194.401C1195.99 194.871 1197.05 195.546 1197.99 196.426C1198.99 197.306 1199.78 198.392 1200.37 199.682C1200.95 200.973 1201.25 202.47 1201.25 204.171C1201.25 206.812 1200.57 208.836 1199.22 210.244C1197.93 211.653 1196.55 212.357 1195.08 212.357C1193.97 212.357 1192.94 211.975 1192 211.213C1191.12 210.45 1190.68 209.423 1190.68 208.132ZM1190.68 171.869C1190.68 170.578 1191.12 169.551 1192 168.789C1192.94 168.026 1193.97 167.644 1195.08 167.644C1196.55 167.644 1197.93 168.348 1199.22 169.757C1200.57 171.165 1201.25 173.189 1201.25 175.83C1201.25 177.532 1200.95 179.028 1200.37 180.319C1199.78 181.61 1198.99 182.695 1197.99 183.575C1197.05 184.456 1195.99 185.13 1194.82 185.6C1193.65 186.069 1192.47 186.304 1191.3 186.304C1190.36 186.304 1189.42 186.157 1188.48 185.864C1187.6 185.57 1186.81 185.189 1186.11 184.72C1185.4 184.309 1184.82 183.81 1184.35 183.223C1183.94 182.695 1183.73 182.196 1183.73 181.727C1183.73 181.316 1183.85 180.905 1184.08 180.495C1184.38 180.143 1184.79 179.967 1185.31 179.967C1185.73 179.967 1186.11 180.084 1186.46 180.319C1186.81 180.612 1187.19 180.905 1187.6 181.199C1188.01 181.492 1188.45 181.756 1188.92 181.991C1189.45 182.284 1190.07 182.431 1190.77 182.431C1191.83 182.431 1192.71 182.108 1193.41 181.463C1194.12 180.817 1194.47 179.996 1194.47 178.998C1194.47 178.177 1194.26 177.502 1193.85 176.974C1193.5 176.446 1193.06 175.947 1192.53 175.478C1192.06 175.008 1191.62 174.51 1191.21 173.982C1190.86 173.453 1190.68 172.749 1190.68 171.869ZM1178.71 195.546C1177.07 195.546 1175.75 195.047 1174.75 194.049C1173.76 193.052 1173.26 191.702 1173.26 190.001C1173.26 188.299 1173.76 186.949 1174.75 185.952C1175.75 184.954 1177.07 184.456 1178.71 184.456C1180.36 184.456 1181.68 184.954 1182.67 185.952C1183.67 186.949 1184.17 188.299 1184.17 190.001C1184.17 191.702 1183.67 193.052 1182.67 194.049C1181.68 195.047 1180.36 195.546 1178.71 195.546Z" fill="#E4E4E4"/>
<path d="M1174.34 259.056C1172.89 257.604 1172.21 256.048 1172.29 254.388C1172.37 252.728 1173.08 251.235 1174.41 249.907C1175.73 248.579 1177.23 247.874 1178.89 247.791C1180.55 247.708 1182.1 248.393 1183.56 249.845C1184.39 250.675 1185.13 251.712 1185.8 252.957C1186.46 254.201 1186.96 255.446 1187.29 256.691C1187.62 257.936 1187.77 259.077 1187.73 260.114C1187.73 261.193 1187.48 261.981 1186.98 262.479C1186.48 262.977 1185.69 263.226 1184.61 263.226C1183.58 263.267 1182.44 263.122 1181.19 262.79C1179.95 262.458 1178.7 261.96 1177.46 261.296C1176.21 260.633 1175.17 259.886 1174.34 259.056ZM1155.55 256.691C1156.17 256.068 1156.79 255.695 1157.42 255.571C1158.08 255.488 1158.74 255.446 1159.41 255.446C1160.11 255.488 1160.78 255.446 1161.4 255.322C1162.06 255.239 1162.69 254.907 1163.27 254.326C1163.97 253.62 1164.3 252.791 1164.26 251.836C1164.22 250.882 1163.83 250.031 1163.08 249.285C1162.58 248.787 1162.06 248.434 1161.52 248.227C1160.98 248.102 1160.47 247.998 1159.97 247.915C1159.47 247.832 1159.01 247.749 1158.6 247.666C1158.14 247.625 1157.77 247.459 1157.48 247.169C1157.1 246.795 1156.96 246.359 1157.04 245.862C1157.13 245.447 1157.31 245.094 1157.6 244.804C1157.93 244.472 1158.45 244.243 1159.16 244.119C1159.86 244.077 1160.63 244.14 1161.46 244.306C1162.25 244.513 1163.06 244.824 1163.89 245.239C1164.76 245.696 1165.53 246.256 1166.19 246.92C1167.02 247.749 1167.69 248.745 1168.18 249.907C1168.68 251.069 1168.95 252.293 1168.99 253.579C1169.08 254.907 1168.87 256.234 1168.37 257.562C1167.87 258.89 1167.02 260.155 1165.82 261.359C1163.95 263.226 1162.04 264.18 1160.09 264.222C1158.18 264.305 1156.71 263.827 1155.67 262.79C1154.89 262.002 1154.43 261.006 1154.3 259.803C1154.22 258.641 1154.64 257.604 1155.55 256.691ZM1181.19 231.049C1182.1 230.136 1183.14 229.721 1184.3 229.804C1185.51 229.929 1186.5 230.385 1187.29 231.174C1188.33 232.211 1188.8 233.684 1188.72 235.592C1188.68 237.543 1187.73 239.451 1185.86 241.318C1184.66 242.521 1183.39 243.372 1182.06 243.87C1180.73 244.368 1179.41 244.575 1178.08 244.492C1176.79 244.451 1175.57 244.181 1174.41 243.683C1173.25 243.185 1172.25 242.521 1171.42 241.692C1170.76 241.028 1170.2 240.26 1169.74 239.389C1169.32 238.559 1169.03 237.729 1168.87 236.899C1168.66 236.111 1168.6 235.343 1168.68 234.597C1168.76 233.933 1168.97 233.435 1169.3 233.103C1169.59 232.812 1169.97 232.605 1170.42 232.481C1170.88 232.439 1171.3 232.605 1171.67 232.978C1171.96 233.269 1172.15 233.622 1172.23 234.036C1172.27 234.493 1172.33 234.97 1172.42 235.468C1172.5 235.966 1172.62 236.464 1172.79 236.962C1172.95 237.543 1173.29 238.082 1173.78 238.58C1174.53 239.327 1175.38 239.721 1176.34 239.762C1177.29 239.804 1178.12 239.472 1178.83 238.767C1179.41 238.186 1179.74 237.563 1179.82 236.899C1179.95 236.277 1179.99 235.613 1179.95 234.908C1179.95 234.244 1179.99 233.58 1180.07 232.916C1180.19 232.294 1180.57 231.671 1181.19 231.049ZM1155.98 239.327C1154.82 238.165 1154.24 236.879 1154.24 235.468C1154.24 234.057 1154.84 232.75 1156.05 231.547C1157.25 230.344 1158.56 229.742 1159.97 229.742C1161.38 229.742 1162.66 230.323 1163.83 231.485C1164.99 232.647 1165.57 233.933 1165.57 235.343C1165.57 236.754 1164.97 238.061 1163.76 239.264C1162.56 240.468 1161.25 241.069 1159.84 241.069C1158.43 241.069 1157.15 240.488 1155.98 239.327Z" fill="#E4E4E4"/>
<path d="M1107.99 281.146C1107.99 279.092 1108.6 277.508 1109.83 276.393C1111.07 275.278 1112.62 274.721 1114.5 274.721C1116.38 274.721 1117.93 275.278 1119.16 276.393C1120.4 277.508 1121.01 279.092 1121.01 281.146C1121.01 282.319 1120.81 283.581 1120.4 284.931C1119.99 286.28 1119.46 287.512 1118.81 288.627C1118.17 289.742 1117.46 290.652 1116.7 291.356C1115.94 292.119 1115.2 292.5 1114.5 292.5C1113.8 292.5 1113.06 292.119 1112.3 291.356C1111.54 290.652 1110.83 289.742 1110.19 288.627C1109.54 287.512 1109.01 286.28 1108.6 284.931C1108.19 283.581 1107.99 282.319 1107.99 281.146ZM1096.37 266.183C1097.25 266.183 1097.95 266.359 1098.48 266.711C1099.01 267.122 1099.51 267.562 1099.98 268.031C1100.45 268.559 1100.94 268.999 1101.47 269.352C1102 269.762 1102.68 269.968 1103.5 269.968C1104.49 269.968 1105.32 269.616 1105.96 268.911C1106.61 268.207 1106.93 267.327 1106.93 266.271C1106.93 265.567 1106.81 264.951 1106.58 264.423C1106.28 263.953 1105.99 263.513 1105.7 263.102C1105.4 262.692 1105.14 262.31 1104.91 261.958C1104.61 261.606 1104.47 261.225 1104.47 260.814C1104.47 260.286 1104.67 259.875 1105.08 259.582C1105.43 259.347 1105.82 259.23 1106.23 259.23C1106.7 259.23 1107.22 259.435 1107.81 259.846C1108.34 260.315 1108.84 260.902 1109.31 261.606C1109.72 262.31 1110.07 263.102 1110.36 263.983C1110.66 264.921 1110.8 265.86 1110.8 266.799C1110.8 267.973 1110.57 269.146 1110.1 270.32C1109.63 271.493 1108.95 272.55 1108.07 273.488C1107.19 274.486 1106.11 275.278 1104.82 275.865C1103.53 276.452 1102.03 276.745 1100.33 276.745C1097.69 276.745 1095.66 276.07 1094.26 274.721C1092.85 273.43 1092.14 272.051 1092.14 270.584C1092.14 269.469 1092.52 268.442 1093.29 267.503C1094.05 266.623 1095.08 266.183 1096.37 266.183ZM1132.63 266.183C1133.92 266.183 1134.95 266.623 1135.71 267.503C1136.47 268.442 1136.86 269.469 1136.86 270.584C1136.86 272.051 1136.15 273.43 1134.74 274.721C1133.34 276.07 1131.31 276.745 1128.67 276.745C1126.97 276.745 1125.47 276.452 1124.18 275.865C1122.89 275.278 1121.8 274.486 1120.92 273.488C1120.04 272.55 1119.37 271.493 1118.9 270.32C1118.43 269.146 1118.2 267.973 1118.2 266.799C1118.2 265.86 1118.34 264.921 1118.64 263.983C1118.93 263.102 1119.31 262.31 1119.78 261.606C1120.19 260.902 1120.69 260.315 1121.28 259.846C1121.8 259.435 1122.3 259.23 1122.77 259.23C1123.18 259.23 1123.59 259.347 1124.01 259.582C1124.36 259.875 1124.53 260.286 1124.53 260.814C1124.53 261.225 1124.42 261.606 1124.18 261.958C1123.89 262.31 1123.59 262.692 1123.3 263.102C1123.01 263.513 1122.74 263.953 1122.51 264.423C1122.22 264.951 1122.07 265.567 1122.07 266.271C1122.07 267.327 1122.39 268.207 1123.04 268.911C1123.68 269.616 1124.5 269.968 1125.5 269.968C1126.32 269.968 1127 269.762 1127.53 269.352C1128.05 268.999 1128.55 268.559 1129.02 268.031C1129.49 267.562 1129.99 267.122 1130.52 266.711C1131.05 266.359 1131.75 266.183 1132.63 266.183ZM1108.95 254.213C1108.95 252.57 1109.45 251.249 1110.45 250.252C1111.45 249.254 1112.8 248.756 1114.5 248.756C1116.2 248.756 1117.55 249.254 1118.55 250.252C1119.55 251.249 1120.04 252.57 1120.04 254.213C1120.04 255.856 1119.55 257.176 1118.55 258.173C1117.55 259.171 1116.2 259.67 1114.5 259.67C1112.8 259.67 1111.45 259.171 1110.45 258.173C1109.45 257.176 1108.95 255.856 1108.95 254.213Z" fill="#E4E4E4"/>
<path d="M1045.44 249.845C1046.9 248.392 1048.45 247.708 1050.11 247.791C1051.77 247.874 1053.27 248.579 1054.59 249.907C1055.92 251.235 1056.63 252.728 1056.71 254.388C1056.79 256.048 1056.11 257.604 1054.66 259.056C1053.83 259.886 1052.79 260.632 1051.54 261.296C1050.3 261.96 1049.05 262.458 1047.81 262.79C1046.56 263.122 1045.42 263.267 1044.39 263.226C1043.31 263.226 1042.52 262.977 1042.02 262.479C1041.52 261.981 1041.27 261.193 1041.27 260.114C1041.23 259.077 1041.38 257.935 1041.71 256.691C1042.04 255.446 1042.54 254.201 1043.2 252.957C1043.87 251.712 1044.61 250.674 1045.44 249.845ZM1047.81 231.049C1048.43 231.671 1048.8 232.294 1048.93 232.916C1049.01 233.58 1049.05 234.244 1049.05 234.908C1049.01 235.613 1049.05 236.277 1049.18 236.899C1049.26 237.563 1049.59 238.186 1050.17 238.766C1050.88 239.472 1051.71 239.804 1052.66 239.762C1053.62 239.721 1054.47 239.327 1055.22 238.58C1055.71 238.082 1056.07 237.563 1056.27 237.024C1056.4 236.484 1056.5 235.966 1056.58 235.468C1056.67 234.97 1056.75 234.514 1056.83 234.099C1056.88 233.642 1057.04 233.269 1057.33 232.978C1057.7 232.605 1058.14 232.46 1058.64 232.543C1059.05 232.626 1059.41 232.812 1059.7 233.103C1060.03 233.435 1060.26 233.953 1060.38 234.659C1060.42 235.364 1060.36 236.132 1060.19 236.962C1059.99 237.75 1059.68 238.559 1059.26 239.389C1058.8 240.26 1058.24 241.028 1057.58 241.692C1056.75 242.521 1055.75 243.185 1054.59 243.683C1053.43 244.181 1052.21 244.451 1050.92 244.492C1049.59 244.575 1048.27 244.368 1046.94 243.87C1045.61 243.372 1044.34 242.521 1043.14 241.318C1041.27 239.451 1040.32 237.542 1040.28 235.592C1040.2 233.684 1040.67 232.211 1041.71 231.173C1042.5 230.385 1043.49 229.929 1044.7 229.804C1045.86 229.721 1046.9 230.136 1047.81 231.049ZM1073.45 256.691C1074.36 257.604 1074.78 258.641 1074.7 259.803C1074.57 261.006 1074.11 262.002 1073.33 262.79C1072.29 263.827 1070.82 264.304 1068.91 264.221C1066.96 264.18 1065.05 263.226 1063.18 261.359C1061.98 260.155 1061.13 258.89 1060.63 257.562C1060.13 256.234 1059.92 254.907 1060.01 253.579C1060.05 252.293 1060.32 251.069 1060.82 249.907C1061.31 248.745 1061.98 247.749 1062.81 246.919C1063.47 246.256 1064.24 245.695 1065.11 245.239C1065.94 244.824 1066.77 244.534 1067.6 244.368C1068.39 244.16 1069.16 244.098 1069.9 244.181C1070.57 244.264 1071.07 244.471 1071.4 244.803C1071.69 245.094 1071.89 245.467 1072.02 245.924C1072.06 246.38 1071.89 246.795 1071.52 247.168C1071.23 247.459 1070.88 247.646 1070.46 247.729C1070.01 247.77 1069.53 247.832 1069.03 247.915C1068.53 247.998 1068.04 248.123 1067.54 248.289C1066.96 248.455 1066.42 248.787 1065.92 249.285C1065.17 250.031 1064.78 250.882 1064.74 251.836C1064.7 252.791 1065.03 253.62 1065.73 254.326C1066.31 254.907 1066.94 255.239 1067.6 255.322C1068.22 255.446 1068.89 255.487 1069.59 255.446C1070.26 255.446 1070.92 255.487 1071.58 255.57C1072.21 255.695 1072.83 256.068 1073.45 256.691ZM1065.17 231.485C1066.34 230.323 1067.62 229.742 1069.03 229.742C1070.44 229.742 1071.75 230.344 1072.95 231.547C1074.16 232.75 1074.76 234.057 1074.76 235.468C1074.76 236.879 1074.18 238.165 1073.02 239.327C1071.85 240.488 1070.57 241.069 1069.16 241.069C1067.75 241.069 1066.44 240.468 1065.24 239.264C1064.03 238.061 1063.43 236.754 1063.43 235.343C1063.43 233.933 1064.01 232.646 1065.17 231.485Z" fill="#E4E4E4"/>
<path d="M1023.35 183.487C1025.41 183.487 1026.99 184.103 1028.11 185.335C1029.22 186.567 1029.78 188.122 1029.78 190C1029.78 191.878 1029.22 193.433 1028.11 194.665C1026.99 195.897 1025.41 196.513 1023.35 196.513C1022.18 196.513 1020.92 196.308 1019.57 195.897C1018.22 195.487 1016.99 194.958 1015.87 194.313C1014.76 193.668 1013.85 192.963 1013.14 192.201C1012.38 191.438 1012 190.704 1012 190C1012 189.296 1012.38 188.563 1013.14 187.8C1013.85 187.037 1014.76 186.333 1015.87 185.687C1016.99 185.042 1018.22 184.514 1019.57 184.103C1020.92 183.692 1022.18 183.487 1023.35 183.487ZM1038.32 171.869C1038.32 172.749 1038.14 173.453 1037.79 173.981C1037.38 174.509 1036.94 175.008 1036.47 175.477C1035.94 175.947 1035.5 176.446 1035.15 176.974C1034.74 177.502 1034.53 178.177 1034.53 178.998C1034.53 179.996 1034.88 180.817 1035.59 181.463C1036.29 182.108 1037.17 182.431 1038.23 182.431C1038.93 182.431 1039.55 182.313 1040.08 182.079C1040.55 181.785 1040.99 181.492 1041.4 181.198C1041.81 180.905 1042.19 180.641 1042.54 180.406C1042.89 180.113 1043.28 179.966 1043.69 179.966C1044.21 179.966 1044.62 180.172 1044.92 180.582C1045.15 180.934 1045.27 181.316 1045.27 181.727C1045.27 182.196 1045.07 182.724 1044.65 183.311C1044.18 183.839 1043.6 184.338 1042.89 184.807C1042.19 185.218 1041.4 185.57 1040.52 185.863C1039.58 186.157 1038.64 186.303 1037.7 186.303C1036.53 186.303 1035.35 186.069 1034.18 185.599C1033.01 185.13 1031.95 184.455 1031.01 183.575C1030.01 182.695 1029.22 181.609 1028.64 180.318C1028.05 179.027 1027.76 177.531 1027.76 175.829C1027.76 173.189 1028.43 171.165 1029.78 169.756C1031.07 168.348 1032.45 167.644 1033.92 167.644C1035.03 167.644 1036.06 168.025 1037 168.788C1037.88 169.551 1038.32 170.578 1038.32 171.869ZM1038.32 208.132C1038.32 209.423 1037.88 210.449 1037 211.212C1036.06 211.975 1035.03 212.356 1033.92 212.356C1032.45 212.356 1031.07 211.652 1029.78 210.244C1028.43 208.836 1027.76 206.811 1027.76 204.171C1027.76 202.469 1028.05 200.973 1028.64 199.682C1029.22 198.391 1030.01 197.306 1031.01 196.425C1031.95 195.545 1033.01 194.87 1034.18 194.401C1035.35 193.932 1036.53 193.697 1037.7 193.697C1038.64 193.697 1039.58 193.844 1040.52 194.137C1041.4 194.43 1042.19 194.812 1042.89 195.281C1043.6 195.692 1044.18 196.191 1044.65 196.777C1045.07 197.306 1045.27 197.804 1045.27 198.274C1045.27 198.684 1045.15 199.095 1044.92 199.506C1044.62 199.858 1044.21 200.034 1043.69 200.034C1043.28 200.034 1042.89 199.917 1042.54 199.682C1042.19 199.389 1041.81 199.095 1041.4 198.802C1040.99 198.508 1040.55 198.244 1040.08 198.01C1039.55 197.716 1038.93 197.57 1038.23 197.57C1037.17 197.57 1036.29 197.892 1035.59 198.538C1034.88 199.183 1034.53 200.005 1034.53 201.002C1034.53 201.824 1034.74 202.499 1035.15 203.027C1035.5 203.555 1035.94 204.054 1036.47 204.523C1036.94 204.992 1037.38 205.491 1037.79 206.019C1038.14 206.547 1038.32 207.251 1038.32 208.132ZM1050.29 184.455C1051.93 184.455 1053.25 184.954 1054.25 185.951C1055.25 186.949 1055.74 188.298 1055.74 190C1055.74 191.702 1055.25 193.051 1054.25 194.049C1053.25 195.046 1051.93 195.545 1050.29 195.545C1048.64 195.545 1047.32 195.046 1046.33 194.049C1045.33 193.051 1044.83 191.702 1044.83 190C1044.83 188.298 1045.33 186.949 1046.33 185.951C1047.32 184.954 1048.64 184.455 1050.29 184.455Z" fill="#E4E4E4"/>
<path d="M1054.66 120.945C1056.11 122.397 1056.79 123.953 1056.71 125.613C1056.63 127.272 1055.92 128.766 1054.59 130.094C1053.27 131.421 1051.77 132.127 1050.11 132.21C1048.45 132.293 1046.9 131.608 1045.45 130.156C1044.62 129.326 1043.87 128.289 1043.2 127.044C1042.54 125.799 1042.04 124.555 1041.71 123.31C1041.38 122.065 1041.23 120.924 1041.28 119.887C1041.28 118.808 1041.52 118.02 1042.02 117.522C1042.52 117.024 1043.31 116.775 1044.39 116.775C1045.42 116.733 1046.57 116.879 1047.81 117.211C1049.05 117.543 1050.3 118.04 1051.54 118.704C1052.79 119.368 1053.83 120.115 1054.66 120.945ZM1073.45 123.31C1072.83 123.932 1072.21 124.306 1071.58 124.43C1070.92 124.513 1070.26 124.555 1069.59 124.555C1068.89 124.513 1068.22 124.555 1067.6 124.679C1066.94 124.762 1066.32 125.094 1065.73 125.675C1065.03 126.38 1064.7 127.21 1064.74 128.164C1064.78 129.119 1065.17 129.969 1065.92 130.716C1066.42 131.214 1066.94 131.567 1067.48 131.774C1068.02 131.899 1068.54 132.002 1069.03 132.085C1069.53 132.168 1069.99 132.251 1070.4 132.334C1070.86 132.376 1071.23 132.542 1071.52 132.832C1071.9 133.206 1072.04 133.641 1071.96 134.139C1071.88 134.554 1071.69 134.907 1071.4 135.197C1071.07 135.529 1070.55 135.757 1069.84 135.882C1069.14 135.923 1068.37 135.861 1067.54 135.695C1066.75 135.488 1065.94 135.176 1065.11 134.762C1064.24 134.305 1063.47 133.745 1062.81 133.081C1061.98 132.251 1061.32 131.255 1060.82 130.094C1060.32 128.932 1060.05 127.708 1060.01 126.422C1059.93 125.094 1060.13 123.766 1060.63 122.439C1061.13 121.111 1061.98 119.845 1063.18 118.642C1065.05 116.775 1066.96 115.821 1068.91 115.779C1070.82 115.696 1072.29 116.173 1073.33 117.211C1074.12 117.999 1074.57 118.995 1074.7 120.198C1074.78 121.36 1074.36 122.397 1073.45 123.31ZM1047.81 148.952C1046.9 149.864 1045.86 150.279 1044.7 150.196C1043.49 150.072 1042.5 149.616 1041.71 148.827C1040.67 147.79 1040.2 146.317 1040.28 144.408C1040.32 142.458 1041.28 140.55 1043.14 138.682C1044.35 137.479 1045.61 136.629 1046.94 136.131C1048.27 135.633 1049.59 135.425 1050.92 135.508C1052.21 135.55 1053.43 135.82 1054.59 136.317C1055.76 136.815 1056.75 137.479 1057.58 138.309C1058.25 138.973 1058.81 139.741 1059.26 140.612C1059.68 141.442 1059.97 142.272 1060.13 143.101C1060.34 143.89 1060.4 144.657 1060.32 145.404C1060.24 146.068 1060.03 146.566 1059.7 146.898C1059.41 147.188 1059.03 147.396 1058.58 147.52C1058.12 147.562 1057.71 147.396 1057.33 147.022C1057.04 146.732 1056.86 146.379 1056.77 145.964C1056.73 145.508 1056.67 145.031 1056.59 144.533C1056.5 144.035 1056.38 143.537 1056.21 143.039C1056.05 142.458 1055.71 141.919 1055.22 141.421C1054.47 140.674 1053.62 140.28 1052.66 140.238C1051.71 140.197 1050.88 140.529 1050.18 141.234C1049.59 141.815 1049.26 142.437 1049.18 143.101C1049.05 143.724 1049.01 144.388 1049.05 145.093C1049.05 145.757 1049.01 146.421 1048.93 147.085C1048.81 147.707 1048.43 148.329 1047.81 148.952ZM1073.02 140.674C1074.18 141.836 1074.76 143.122 1074.76 144.533C1074.76 145.944 1074.16 147.25 1072.95 148.454C1071.75 149.657 1070.44 150.259 1069.03 150.259C1067.62 150.259 1066.34 149.678 1065.17 148.516C1064.01 147.354 1063.43 146.068 1063.43 144.657C1063.43 143.247 1064.03 141.94 1065.24 140.736C1066.44 139.533 1067.75 138.931 1069.16 138.931C1070.57 138.931 1071.85 139.512 1073.02 140.674Z" fill="#E4E4E4"/>
</g>
<rect x="935.5" y="11" width="359" height="359" stroke="#E4E4E4"/>
<g clip-path="url(#clip2_327_8009)">
<rect x="380" y="195.5" width="360" height="360" fill="white"/>
<rect x="380.5" y="196" width="359" height="359" rx="179.5" fill="white"/>
<rect x="380.5" y="196" width="359" height="359" rx="179.5" stroke="#E4E4E4"/>
<path d="M566.013 283.854C566.013 285.908 565.397 287.492 564.165 288.607C562.932 289.722 561.377 290.279 559.5 290.279C557.622 290.279 556.067 289.722 554.835 288.607C553.603 287.492 552.986 285.908 552.986 283.854C552.986 282.681 553.192 281.419 553.603 280.069C554.013 278.72 554.541 277.488 555.187 276.373C555.832 275.258 556.536 274.348 557.299 273.644C558.062 272.881 558.796 272.5 559.5 272.5C560.204 272.5 560.937 272.881 561.7 273.644C562.463 274.348 563.167 275.258 563.813 276.373C564.458 277.488 564.986 278.72 565.397 280.069C565.808 281.419 566.013 282.681 566.013 283.854ZM577.631 298.817C576.751 298.817 576.047 298.641 575.519 298.289C574.991 297.878 574.492 297.438 574.023 296.969C573.553 296.441 573.054 296.001 572.526 295.648C571.998 295.238 571.323 295.032 570.502 295.032C569.504 295.032 568.683 295.384 568.037 296.089C567.392 296.793 567.069 297.673 567.069 298.729C567.069 299.433 567.187 300.049 567.421 300.577C567.715 301.047 568.008 301.487 568.301 301.898C568.595 302.308 568.859 302.69 569.094 303.042C569.387 303.394 569.534 303.775 569.534 304.186C569.534 304.714 569.328 305.125 568.918 305.418C568.565 305.653 568.184 305.77 567.773 305.77C567.304 305.77 566.776 305.565 566.189 305.154C565.661 304.685 565.162 304.098 564.693 303.394C564.282 302.69 563.93 301.898 563.637 301.017C563.343 300.079 563.196 299.14 563.196 298.201C563.196 297.027 563.431 295.854 563.901 294.68C564.37 293.507 565.045 292.45 565.925 291.512C566.805 290.514 567.891 289.722 569.182 289.135C570.472 288.548 571.969 288.255 573.67 288.255C576.311 288.255 578.335 288.93 579.744 290.279C581.152 291.57 581.856 292.949 581.856 294.416C581.856 295.531 581.475 296.558 580.712 297.497C579.949 298.377 578.922 298.817 577.631 298.817ZM541.368 298.817C540.077 298.817 539.05 298.377 538.288 297.497C537.525 296.558 537.143 295.531 537.143 294.416C537.143 292.949 537.848 291.57 539.256 290.279C540.664 288.93 542.688 288.255 545.329 288.255C547.031 288.255 548.527 288.548 549.818 289.135C551.109 289.722 552.194 290.514 553.074 291.512C553.955 292.45 554.629 293.507 555.099 294.68C555.568 295.854 555.803 297.027 555.803 298.201C555.803 299.14 555.656 300.079 555.363 301.017C555.07 301.898 554.688 302.69 554.219 303.394C553.808 304.098 553.309 304.685 552.722 305.154C552.194 305.565 551.696 305.77 551.226 305.77C550.815 305.77 550.405 305.653 549.994 305.418C549.642 305.125 549.466 304.714 549.466 304.186C549.466 303.775 549.583 303.394 549.818 303.042C550.111 302.69 550.405 302.308 550.698 301.898C550.991 301.487 551.255 301.047 551.49 300.577C551.784 300.049 551.93 299.433 551.93 298.729C551.93 297.673 551.608 296.793 550.962 296.089C550.317 295.384 549.495 295.032 548.498 295.032C547.676 295.032 547.001 295.238 546.473 295.648C545.945 296.001 545.446 296.441 544.977 296.969C544.508 297.438 544.009 297.878 543.481 298.289C542.953 298.641 542.248 298.817 541.368 298.817ZM565.045 310.787C565.045 312.43 564.546 313.751 563.548 314.748C562.551 315.746 561.201 316.244 559.5 316.244C557.798 316.244 556.448 315.746 555.451 314.748C554.453 313.751 553.955 312.43 553.955 310.787C553.955 309.144 554.453 307.824 555.451 306.827C556.448 305.829 557.798 305.33 559.5 305.33C561.201 305.33 562.551 305.829 563.548 306.827C564.546 307.824 565.045 309.144 565.045 310.787Z" fill="black"/>
<path d="M628.555 315.156C627.103 316.608 625.547 317.293 623.887 317.21C622.228 317.127 620.734 316.422 619.406 315.094C618.078 313.766 617.373 312.272 617.29 310.613C617.207 308.953 617.892 307.397 619.344 305.945C620.174 305.115 621.211 304.368 622.456 303.704C623.701 303.041 624.945 302.543 626.19 302.211C627.435 301.879 628.576 301.734 629.613 301.775C630.692 301.775 631.48 302.024 631.978 302.522C632.476 303.02 632.725 303.808 632.725 304.887C632.766 305.924 632.621 307.065 632.289 308.31C631.957 309.555 631.459 310.799 630.796 312.044C630.132 313.289 629.385 314.326 628.555 315.156ZM626.19 333.952C625.568 333.329 625.194 332.707 625.07 332.085C624.987 331.421 624.945 330.757 624.945 330.093C624.987 329.388 624.945 328.724 624.821 328.101C624.738 327.438 624.406 326.815 623.825 326.234C623.12 325.529 622.29 325.197 621.335 325.239C620.381 325.28 619.531 325.674 618.784 326.421C618.286 326.919 617.933 327.438 617.726 327.977C617.601 328.516 617.498 329.035 617.415 329.533C617.332 330.031 617.249 330.487 617.166 330.902C617.124 331.359 616.958 331.732 616.668 332.022C616.294 332.396 615.859 332.541 615.361 332.458C614.946 332.375 614.593 332.188 614.303 331.898C613.971 331.566 613.743 331.047 613.618 330.342C613.577 329.637 613.639 328.869 613.805 328.039C614.012 327.251 614.323 326.442 614.738 325.612C615.195 324.741 615.755 323.973 616.419 323.309C617.249 322.479 618.244 321.815 619.406 321.318C620.568 320.82 621.792 320.55 623.078 320.508C624.406 320.426 625.734 320.633 627.061 321.131C628.389 321.629 629.655 322.479 630.858 323.683C632.725 325.55 633.679 327.458 633.721 329.408C633.804 331.317 633.327 332.79 632.289 333.827C631.501 334.616 630.505 335.072 629.302 335.197C628.14 335.279 627.103 334.865 626.19 333.952ZM600.548 308.31C599.635 307.397 599.22 306.36 599.303 305.198C599.428 303.995 599.884 302.999 600.673 302.211C601.71 301.173 603.183 300.696 605.092 300.779C607.042 300.821 608.95 301.775 610.817 303.642C612.021 304.845 612.871 306.111 613.369 307.439C613.867 308.766 614.074 310.094 613.991 311.422C613.95 312.708 613.68 313.932 613.182 315.094C612.685 316.256 612.021 317.251 611.191 318.081C610.527 318.745 609.759 319.305 608.888 319.762C608.058 320.177 607.228 320.467 606.399 320.633C605.61 320.84 604.843 320.903 604.096 320.82C603.432 320.737 602.934 320.529 602.602 320.197C602.312 319.907 602.104 319.533 601.98 319.077C601.938 318.621 602.104 318.206 602.478 317.832C602.768 317.542 603.121 317.355 603.536 317.272C603.992 317.231 604.469 317.168 604.967 317.085C605.465 317.002 605.963 316.878 606.461 316.712C607.042 316.546 607.581 316.214 608.079 315.716C608.826 314.969 609.22 314.119 609.261 313.164C609.303 312.21 608.971 311.38 608.266 310.675C607.685 310.094 607.062 309.762 606.399 309.679C605.776 309.555 605.112 309.513 604.407 309.555C603.743 309.555 603.079 309.513 602.415 309.43C601.793 309.306 601.171 308.932 600.548 308.31ZM608.826 333.516C607.664 334.678 606.378 335.259 604.967 335.259C603.556 335.259 602.249 334.657 601.046 333.454C599.843 332.251 599.241 330.944 599.241 329.533C599.241 328.122 599.822 326.836 600.984 325.674C602.146 324.512 603.432 323.932 604.843 323.932C606.253 323.932 607.56 324.533 608.764 325.736C609.967 326.94 610.568 328.247 610.568 329.657C610.568 331.068 609.988 332.354 608.826 333.516Z" fill="black"/>
<path d="M650.647 381.514C648.593 381.514 647.009 380.898 645.894 379.665C644.779 378.433 644.221 376.878 644.221 375.001C644.221 373.123 644.779 371.568 645.894 370.336C647.009 369.103 648.593 368.487 650.647 368.487C651.82 368.487 653.082 368.693 654.431 369.103C655.781 369.514 657.013 370.042 658.128 370.688C659.243 371.333 660.152 372.037 660.857 372.8C661.619 373.563 662.001 374.296 662.001 375.001C662.001 375.705 661.619 376.438 660.857 377.201C660.152 377.964 659.243 378.668 658.128 379.313C657.013 379.959 655.781 380.487 654.431 380.898C653.082 381.308 651.82 381.514 650.647 381.514ZM635.684 393.132C635.684 392.252 635.86 391.548 636.212 391.02C636.623 390.492 637.063 389.993 637.532 389.523C638.06 389.054 638.5 388.555 638.852 388.027C639.263 387.499 639.469 386.824 639.469 386.003C639.469 385.005 639.116 384.184 638.412 383.538C637.708 382.893 636.828 382.57 635.772 382.57C635.068 382.57 634.452 382.687 633.923 382.922C633.454 383.215 633.014 383.509 632.603 383.802C632.192 384.096 631.811 384.36 631.459 384.594C631.107 384.888 630.726 385.035 630.315 385.035C629.787 385.035 629.376 384.829 629.083 384.418C628.848 384.066 628.73 383.685 628.73 383.274C628.73 382.805 628.936 382.277 629.347 381.69C629.816 381.162 630.403 380.663 631.107 380.194C631.811 379.783 632.603 379.431 633.483 379.137C634.422 378.844 635.361 378.697 636.3 378.697C637.473 378.697 638.647 378.932 639.821 379.401C640.994 379.871 642.05 380.546 642.989 381.426C643.987 382.306 644.779 383.392 645.366 384.682C645.952 385.973 646.246 387.47 646.246 389.171C646.246 391.812 645.571 393.836 644.221 395.244C642.931 396.653 641.552 397.357 640.085 397.357C638.97 397.357 637.943 396.975 637.004 396.213C636.124 395.45 635.684 394.423 635.684 393.132ZM635.684 356.869C635.684 355.578 636.124 354.551 637.004 353.789C637.943 353.026 638.97 352.644 640.085 352.644C641.552 352.644 642.931 353.348 644.221 354.757C645.571 356.165 646.246 358.189 646.246 360.83C646.246 362.532 645.952 364.028 645.366 365.319C644.779 366.61 643.987 367.695 642.989 368.575C642.05 369.456 640.994 370.13 639.821 370.6C638.647 371.069 637.473 371.304 636.3 371.304C635.361 371.304 634.422 371.157 633.483 370.864C632.603 370.57 631.811 370.189 631.107 369.72C630.403 369.309 629.816 368.81 629.347 368.223C628.936 367.695 628.73 367.196 628.73 366.727C628.73 366.316 628.848 365.905 629.083 365.495C629.376 365.143 629.787 364.967 630.315 364.967C630.726 364.967 631.107 365.084 631.459 365.319C631.811 365.612 632.192 365.905 632.603 366.199C633.014 366.492 633.454 366.756 633.923 366.991C634.452 367.284 635.068 367.431 635.772 367.431C636.828 367.431 637.708 367.108 638.412 366.463C639.116 365.817 639.469 364.996 639.469 363.998C639.469 363.177 639.263 362.502 638.852 361.974C638.5 361.446 638.06 360.947 637.532 360.478C637.063 360.008 636.623 359.51 636.212 358.982C635.86 358.453 635.684 357.749 635.684 356.869ZM623.714 380.546C622.071 380.546 620.75 380.047 619.753 379.049C618.755 378.052 618.256 376.702 618.256 375.001C618.256 373.299 618.755 371.949 619.753 370.952C620.75 369.954 622.071 369.456 623.714 369.456C625.356 369.456 626.677 369.954 627.674 370.952C628.672 371.949 629.171 373.299 629.171 375.001C629.171 376.702 628.672 378.052 627.674 379.049C626.677 380.047 625.356 380.546 623.714 380.546Z" fill="black"/>
<path d="M619.345 444.056C617.892 442.604 617.208 441.048 617.291 439.388C617.374 437.728 618.079 436.235 619.407 434.907C620.735 433.579 622.228 432.874 623.888 432.791C625.548 432.708 627.104 433.393 628.556 434.845C629.386 435.675 630.132 436.712 630.796 437.957C631.46 439.201 631.958 440.446 632.29 441.691C632.622 442.936 632.767 444.077 632.726 445.114C632.726 446.193 632.477 446.981 631.979 447.479C631.481 447.977 630.693 448.226 629.614 448.226C628.577 448.267 627.435 448.122 626.191 447.79C624.946 447.458 623.701 446.96 622.457 446.296C621.212 445.633 620.174 444.886 619.345 444.056ZM600.549 441.691C601.171 441.068 601.794 440.695 602.416 440.571C603.08 440.488 603.744 440.446 604.408 440.446C605.113 440.488 605.777 440.446 606.399 440.322C607.063 440.239 607.686 439.907 608.266 439.326C608.972 438.62 609.304 437.791 609.262 436.836C609.221 435.882 608.827 435.031 608.08 434.285C607.582 433.787 607.063 433.434 606.524 433.227C605.984 433.102 605.466 432.998 604.968 432.915C604.47 432.832 604.014 432.749 603.599 432.666C603.142 432.625 602.769 432.459 602.478 432.169C602.105 431.795 601.96 431.359 602.043 430.862C602.126 430.447 602.312 430.094 602.603 429.804C602.935 429.472 603.453 429.243 604.159 429.119C604.864 429.077 605.632 429.14 606.462 429.306C607.25 429.513 608.059 429.824 608.889 430.239C609.76 430.696 610.528 431.256 611.192 431.92C612.021 432.749 612.685 433.745 613.183 434.907C613.681 436.069 613.951 437.293 613.992 438.579C614.075 439.907 613.868 441.234 613.37 442.562C612.872 443.89 612.021 445.155 610.818 446.359C608.951 448.226 607.042 449.18 605.092 449.222C603.184 449.305 601.711 448.827 600.673 447.79C599.885 447.002 599.429 446.006 599.304 444.803C599.221 443.641 599.636 442.604 600.549 441.691ZM626.191 416.049C627.104 415.136 628.141 414.721 629.303 414.804C630.506 414.929 631.502 415.385 632.29 416.174C633.327 417.211 633.804 418.684 633.721 420.592C633.68 422.543 632.726 424.451 630.859 426.318C629.655 427.521 628.39 428.372 627.062 428.87C625.734 429.368 624.407 429.575 623.079 429.492C621.793 429.451 620.569 429.181 619.407 428.683C618.245 428.185 617.249 427.521 616.419 426.692C615.756 426.028 615.195 425.26 614.739 424.389C614.324 423.559 614.034 422.729 613.868 421.899C613.66 421.111 613.598 420.343 613.681 419.597C613.764 418.933 613.971 418.435 614.303 418.103C614.594 417.812 614.967 417.605 615.424 417.481C615.88 417.439 616.295 417.605 616.668 417.978C616.959 418.269 617.146 418.622 617.229 419.036C617.27 419.493 617.332 419.97 617.415 420.468C617.498 420.966 617.623 421.464 617.789 421.962C617.955 422.543 618.287 423.082 618.785 423.58C619.531 424.327 620.382 424.721 621.336 424.762C622.291 424.804 623.12 424.472 623.826 423.767C624.407 423.186 624.739 422.563 624.822 421.899C624.946 421.277 624.987 420.613 624.946 419.908C624.946 419.244 624.987 418.58 625.07 417.916C625.195 417.294 625.568 416.671 626.191 416.049ZM600.985 424.327C599.823 423.165 599.242 421.879 599.242 420.468C599.242 419.057 599.844 417.75 601.047 416.547C602.25 415.344 603.557 414.742 604.968 414.742C606.379 414.742 607.665 415.323 608.827 416.485C609.988 417.647 610.569 418.933 610.569 420.343C610.569 421.754 609.968 423.061 608.764 424.264C607.561 425.468 606.254 426.069 604.843 426.069C603.433 426.069 602.146 425.488 600.985 424.327Z" fill="black"/>
<path d="M552.986 466.146C552.986 464.092 553.602 462.508 554.835 461.393C556.067 460.278 557.622 459.721 559.499 459.721C561.377 459.721 562.932 460.278 564.164 461.393C565.397 462.508 566.013 464.092 566.013 466.146C566.013 467.319 565.807 468.581 565.397 469.931C564.986 471.28 564.458 472.512 563.812 473.627C563.167 474.742 562.463 475.652 561.7 476.356C560.937 477.119 560.204 477.5 559.499 477.5C558.795 477.5 558.062 477.119 557.299 476.356C556.536 475.652 555.832 474.742 555.187 473.627C554.541 472.512 554.013 471.28 553.602 469.931C553.192 468.581 552.986 467.319 552.986 466.146ZM541.368 451.183C542.248 451.183 542.952 451.359 543.48 451.711C544.008 452.122 544.507 452.562 544.977 453.031C545.446 453.559 545.945 453.999 546.473 454.352C547.001 454.762 547.676 454.968 548.497 454.968C549.495 454.968 550.316 454.616 550.962 453.911C551.607 453.207 551.93 452.327 551.93 451.271C551.93 450.567 551.813 449.951 551.578 449.423C551.285 448.953 550.991 448.513 550.698 448.102C550.404 447.692 550.14 447.31 549.906 446.958C549.612 446.606 549.465 446.225 549.465 445.814C549.465 445.286 549.671 444.875 550.082 444.582C550.434 444.347 550.815 444.23 551.226 444.23C551.695 444.23 552.223 444.435 552.81 444.846C553.338 445.315 553.837 445.902 554.306 446.606C554.717 447.31 555.069 448.102 555.363 448.983C555.656 449.921 555.803 450.86 555.803 451.799C555.803 452.973 555.568 454.146 555.099 455.32C554.629 456.493 553.954 457.55 553.074 458.488C552.194 459.486 551.108 460.278 549.818 460.865C548.527 461.452 547.03 461.745 545.329 461.745C542.688 461.745 540.664 461.07 539.256 459.721C537.847 458.43 537.143 457.051 537.143 455.584C537.143 454.469 537.525 453.442 538.287 452.503C539.05 451.623 540.077 451.183 541.368 451.183ZM577.631 451.183C578.922 451.183 579.949 451.623 580.711 452.503C581.474 453.442 581.856 454.469 581.856 455.584C581.856 457.051 581.152 458.43 579.743 459.721C578.335 461.07 576.311 461.745 573.67 461.745C571.968 461.745 570.472 461.452 569.181 460.865C567.89 460.278 566.805 459.486 565.925 458.488C565.044 457.55 564.37 456.493 563.9 455.32C563.431 454.146 563.196 452.973 563.196 451.799C563.196 450.86 563.343 449.921 563.636 448.983C563.93 448.102 564.311 447.31 564.78 446.606C565.191 445.902 565.69 445.315 566.277 444.846C566.805 444.435 567.304 444.23 567.773 444.23C568.184 444.23 568.595 444.347 569.005 444.582C569.357 444.875 569.533 445.286 569.533 445.814C569.533 446.225 569.416 446.606 569.181 446.958C568.888 447.31 568.595 447.692 568.301 448.102C568.008 448.513 567.744 448.953 567.509 449.423C567.216 449.951 567.069 450.567 567.069 451.271C567.069 452.327 567.392 453.207 568.037 453.911C568.683 454.616 569.504 454.968 570.502 454.968C571.323 454.968 571.998 454.762 572.526 454.352C573.054 453.999 573.553 453.559 574.022 453.031C574.492 452.562 574.99 452.122 575.518 451.711C576.047 451.359 576.751 451.183 577.631 451.183ZM553.954 439.213C553.954 437.57 554.453 436.249 555.451 435.252C556.448 434.254 557.798 433.756 559.499 433.756C561.201 433.756 562.551 434.254 563.548 435.252C564.546 436.249 565.044 437.57 565.044 439.213C565.044 440.856 564.546 442.176 563.548 443.173C562.551 444.171 561.201 444.67 559.499 444.67C557.798 444.67 556.448 444.171 555.451 443.173C554.453 442.176 553.954 440.856 553.954 439.213Z" fill="black"/>
<path d="M490.444 434.845C491.896 433.392 493.452 432.708 495.112 432.791C496.772 432.874 498.265 433.579 499.593 434.907C500.921 436.235 501.626 437.728 501.709 439.388C501.792 441.048 501.107 442.604 499.655 444.056C498.825 444.886 497.788 445.632 496.543 446.296C495.299 446.96 494.054 447.458 492.809 447.79C491.564 448.122 490.423 448.267 489.386 448.226C488.307 448.226 487.519 447.977 487.021 447.479C486.523 446.981 486.274 446.193 486.274 445.114C486.233 444.077 486.378 442.935 486.71 441.691C487.042 440.446 487.54 439.201 488.204 437.957C488.867 436.712 489.614 435.674 490.444 434.845ZM492.809 416.049C493.432 416.671 493.805 417.294 493.929 417.916C494.012 418.58 494.054 419.244 494.054 419.908C494.012 420.613 494.054 421.277 494.178 421.899C494.261 422.563 494.593 423.186 495.174 423.766C495.88 424.472 496.709 424.804 497.664 424.762C498.618 424.721 499.469 424.327 500.215 423.58C500.713 423.082 501.066 422.563 501.273 422.024C501.398 421.484 501.502 420.966 501.585 420.468C501.668 419.97 501.751 419.514 501.834 419.099C501.875 418.642 502.041 418.269 502.331 417.978C502.705 417.605 503.141 417.46 503.638 417.543C504.053 417.626 504.406 417.812 504.696 418.103C505.028 418.435 505.257 418.953 505.381 419.659C505.423 420.364 505.36 421.132 505.194 421.962C504.987 422.75 504.676 423.559 504.261 424.389C503.804 425.26 503.244 426.028 502.58 426.692C501.751 427.521 500.755 428.185 499.593 428.683C498.431 429.181 497.207 429.451 495.921 429.492C494.593 429.575 493.266 429.368 491.938 428.87C490.61 428.372 489.345 427.521 488.141 426.318C486.274 424.451 485.32 422.542 485.278 420.592C485.195 418.684 485.673 417.211 486.71 416.173C487.498 415.385 488.494 414.929 489.697 414.804C490.859 414.721 491.896 415.136 492.809 416.049ZM518.451 441.691C519.364 442.604 519.779 443.641 519.696 444.803C519.571 446.006 519.115 447.002 518.326 447.79C517.289 448.827 515.816 449.304 513.908 449.221C511.957 449.18 510.049 448.226 508.182 446.359C506.979 445.155 506.128 443.89 505.63 442.562C505.132 441.234 504.925 439.907 505.008 438.579C505.049 437.293 505.319 436.069 505.817 434.907C506.315 433.745 506.979 432.749 507.808 431.919C508.472 431.256 509.24 430.695 510.111 430.239C510.941 429.824 511.771 429.534 512.601 429.368C513.389 429.16 514.157 429.098 514.903 429.181C515.567 429.264 516.065 429.471 516.397 429.803C516.688 430.094 516.895 430.467 517.019 430.924C517.061 431.38 516.895 431.795 516.522 432.168C516.231 432.459 515.878 432.646 515.464 432.729C515.007 432.77 514.53 432.832 514.032 432.915C513.534 432.998 513.036 433.123 512.538 433.289C511.957 433.455 511.418 433.787 510.92 434.285C510.173 435.031 509.779 435.882 509.738 436.836C509.696 437.791 510.028 438.62 510.733 439.326C511.314 439.907 511.937 440.239 512.601 440.322C513.223 440.446 513.887 440.487 514.592 440.446C515.256 440.446 515.92 440.487 516.584 440.57C517.206 440.695 517.829 441.068 518.451 441.691ZM510.173 416.485C511.335 415.323 512.621 414.742 514.032 414.742C515.443 414.742 516.75 415.344 517.953 416.547C519.156 417.75 519.758 419.057 519.758 420.468C519.758 421.879 519.177 423.165 518.015 424.327C516.853 425.488 515.567 426.069 514.157 426.069C512.746 426.069 511.439 425.468 510.236 424.264C509.032 423.061 508.431 421.754 508.431 420.343C508.431 418.933 509.012 417.646 510.173 416.485Z" fill="black"/>
<path d="M468.354 368.487C470.408 368.487 471.992 369.103 473.107 370.335C474.222 371.567 474.779 373.122 474.779 375C474.779 376.878 474.222 378.433 473.107 379.665C471.992 380.897 470.408 381.513 468.354 381.513C467.181 381.513 465.919 381.308 464.569 380.897C463.22 380.487 461.988 379.958 460.873 379.313C459.758 378.668 458.848 377.963 458.144 377.201C457.381 376.438 457 375.704 457 375C457 374.296 457.381 373.563 458.144 372.8C458.848 372.037 459.758 371.333 460.873 370.687C461.988 370.042 463.22 369.514 464.569 369.103C465.919 368.692 467.181 368.487 468.354 368.487ZM483.317 356.869C483.317 357.749 483.141 358.453 482.789 358.981C482.378 359.509 481.938 360.008 481.469 360.477C480.941 360.947 480.501 361.446 480.148 361.974C479.738 362.502 479.532 363.177 479.532 363.998C479.532 364.996 479.884 365.817 480.589 366.463C481.293 367.108 482.173 367.431 483.229 367.431C483.933 367.431 484.549 367.313 485.077 367.079C485.547 366.785 485.987 366.492 486.398 366.198C486.808 365.905 487.19 365.641 487.542 365.406C487.894 365.113 488.275 364.966 488.686 364.966C489.214 364.966 489.625 365.172 489.918 365.582C490.153 365.934 490.27 366.316 490.27 366.727C490.27 367.196 490.065 367.724 489.654 368.311C489.185 368.839 488.598 369.338 487.894 369.807C487.19 370.218 486.398 370.57 485.517 370.863C484.579 371.157 483.64 371.303 482.701 371.303C481.527 371.303 480.354 371.069 479.18 370.599C478.007 370.13 476.95 369.455 476.012 368.575C475.014 367.695 474.222 366.609 473.635 365.318C473.048 364.027 472.755 362.531 472.755 360.829C472.755 358.189 473.43 356.165 474.779 354.756C476.07 353.348 477.449 352.644 478.916 352.644C480.031 352.644 481.058 353.025 481.997 353.788C482.877 354.551 483.317 355.578 483.317 356.869ZM483.317 393.132C483.317 394.423 482.877 395.449 481.997 396.212C481.058 396.975 480.031 397.356 478.916 397.356C477.449 397.356 476.07 396.652 474.779 395.244C473.43 393.836 472.755 391.811 472.755 389.171C472.755 387.469 473.048 385.973 473.635 384.682C474.222 383.391 475.014 382.306 476.012 381.425C476.95 380.545 478.007 379.87 479.18 379.401C480.354 378.932 481.527 378.697 482.701 378.697C483.64 378.697 484.579 378.844 485.517 379.137C486.398 379.43 487.19 379.812 487.894 380.281C488.598 380.692 489.185 381.191 489.654 381.777C490.065 382.306 490.27 382.804 490.27 383.274C490.27 383.684 490.153 384.095 489.918 384.506C489.625 384.858 489.214 385.034 488.686 385.034C488.275 385.034 487.894 384.917 487.542 384.682C487.19 384.389 486.808 384.095 486.398 383.802C485.987 383.508 485.547 383.244 485.077 383.01C484.549 382.716 483.933 382.57 483.229 382.57C482.173 382.57 481.293 382.892 480.589 383.538C479.884 384.183 479.532 385.005 479.532 386.002C479.532 386.824 479.738 387.499 480.148 388.027C480.501 388.555 480.941 389.054 481.469 389.523C481.938 389.992 482.378 390.491 482.789 391.019C483.141 391.547 483.317 392.251 483.317 393.132ZM495.287 369.455C496.93 369.455 498.251 369.954 499.248 370.951C500.246 371.949 500.744 373.298 500.744 375C500.744 376.702 500.246 378.051 499.248 379.049C498.251 380.046 496.93 380.545 495.287 380.545C493.644 380.545 492.324 380.046 491.327 379.049C490.329 378.051 489.83 376.702 489.83 375C489.83 373.298 490.329 371.949 491.327 370.951C492.324 369.954 493.644 369.455 495.287 369.455Z" fill="black"/>
<path d="M499.656 305.945C501.108 307.397 501.793 308.953 501.71 310.613C501.627 312.272 500.922 313.766 499.594 315.094C498.266 316.421 496.773 317.127 495.113 317.21C493.453 317.293 491.897 316.608 490.445 315.156C489.615 314.326 488.868 313.289 488.205 312.044C487.541 310.799 487.043 309.555 486.711 308.31C486.379 307.065 486.234 305.924 486.275 304.887C486.275 303.808 486.524 303.02 487.022 302.522C487.52 302.024 488.308 301.775 489.387 301.775C490.424 301.733 491.565 301.879 492.81 302.211C494.055 302.543 495.3 303.04 496.544 303.704C497.789 304.368 498.826 305.115 499.656 305.945ZM518.452 308.31C517.83 308.932 517.207 309.306 516.585 309.43C515.921 309.513 515.257 309.555 514.593 309.555C513.888 309.513 513.224 309.555 512.602 309.679C511.938 309.762 511.315 310.094 510.734 310.675C510.029 311.38 509.697 312.21 509.739 313.164C509.78 314.119 510.174 314.969 510.921 315.716C511.419 316.214 511.938 316.567 512.477 316.774C513.016 316.899 513.535 317.002 514.033 317.085C514.531 317.168 514.987 317.251 515.402 317.334C515.859 317.376 516.232 317.542 516.523 317.832C516.896 318.206 517.041 318.641 516.958 319.139C516.875 319.554 516.688 319.907 516.398 320.197C516.066 320.529 515.547 320.757 514.842 320.882C514.137 320.923 513.369 320.861 512.539 320.695C511.751 320.488 510.942 320.176 510.112 319.762C509.241 319.305 508.473 318.745 507.809 318.081C506.979 317.251 506.316 316.255 505.818 315.094C505.32 313.932 505.05 312.708 505.009 311.422C504.926 310.094 505.133 308.766 505.631 307.439C506.129 306.111 506.979 304.845 508.183 303.642C510.05 301.775 511.958 300.821 513.909 300.779C515.817 300.696 517.29 301.173 518.327 302.211C519.116 302.999 519.572 303.995 519.697 305.198C519.78 306.36 519.365 307.397 518.452 308.31ZM492.81 333.952C491.897 334.864 490.86 335.279 489.698 335.196C488.495 335.072 487.499 334.616 486.711 333.827C485.674 332.79 485.196 331.317 485.279 329.408C485.321 327.458 486.275 325.55 488.142 323.682C489.346 322.479 490.611 321.629 491.939 321.131C493.267 320.633 494.594 320.425 495.922 320.508C497.208 320.55 498.432 320.82 499.594 321.317C500.756 321.815 501.752 322.479 502.581 323.309C503.245 323.973 503.805 324.741 504.262 325.612C504.677 326.442 504.967 327.272 505.133 328.101C505.341 328.89 505.403 329.657 505.32 330.404C505.237 331.068 505.029 331.566 504.697 331.898C504.407 332.188 504.034 332.396 503.577 332.52C503.121 332.562 502.706 332.396 502.332 332.022C502.042 331.732 501.855 331.379 501.772 330.964C501.731 330.508 501.669 330.031 501.586 329.533C501.503 329.035 501.378 328.537 501.212 328.039C501.046 327.458 500.714 326.919 500.216 326.421C499.469 325.674 498.619 325.28 497.665 325.238C496.71 325.197 495.88 325.529 495.175 326.234C494.594 326.815 494.262 327.437 494.179 328.101C494.055 328.724 494.013 329.388 494.055 330.093C494.055 330.757 494.013 331.421 493.93 332.085C493.806 332.707 493.432 333.329 492.81 333.952ZM518.016 325.674C519.178 326.836 519.759 328.122 519.759 329.533C519.759 330.944 519.157 332.25 517.954 333.454C516.751 334.657 515.444 335.259 514.033 335.259C512.622 335.259 511.336 334.678 510.174 333.516C509.013 332.354 508.432 331.068 508.432 329.657C508.432 328.247 509.033 326.94 510.237 325.736C511.44 324.533 512.747 323.931 514.158 323.931C515.568 323.931 516.854 324.512 518.016 325.674Z" fill="black"/>
</g>
<rect x="380.5" y="196" width="359" height="359" stroke="#E4E4E4"/>
<rect x="195.5" y="381" width="174" height="174" fill="white"/>
<rect x="195.5" y="381" width="174" height="174" stroke="#E4E4E4"/>
<rect width="1" height="218.315" transform="translate(205 391) rotate(-45)" fill="#E4E4E4"/>
<rect width="1" height="218.315" transform="matrix(-0.707107 -0.707107 -0.707107 0.707107 360.079 391)" fill="#E4E4E4"/>
<g clip-path="url(#clip3_327_8009)">
<rect x="1120" y="380.5" width="175" height="175" fill="white"/>
<rect x="1120.5" y="381" width="359" height="359" rx="179.5" fill="white"/>
<rect x="1120.5" y="381" width="359" height="359" rx="179.5" stroke="#E4E4E4"/>
<path d="M1292.99 468.854C1292.99 470.908 1293.6 472.492 1294.83 473.607C1296.07 474.722 1297.62 475.279 1299.5 475.279C1301.38 475.279 1302.93 474.722 1304.16 473.607C1305.4 472.492 1306.01 470.908 1306.01 468.854C1306.01 467.681 1305.81 466.419 1305.4 465.069C1304.99 463.72 1304.46 462.488 1303.81 461.373C1303.17 460.258 1302.46 459.348 1301.7 458.644C1300.94 457.881 1300.2 457.5 1299.5 457.5C1298.8 457.5 1298.06 457.881 1297.3 458.644C1296.54 459.348 1295.83 460.258 1295.19 461.373C1294.54 462.488 1294.01 463.72 1293.6 465.069C1293.19 466.419 1292.99 467.681 1292.99 468.854ZM1281.37 483.817C1282.25 483.817 1282.95 483.641 1283.48 483.289C1284.01 482.878 1284.51 482.438 1284.98 481.969C1285.45 481.441 1285.94 481.001 1286.47 480.648C1287 480.238 1287.68 480.032 1288.5 480.032C1289.49 480.032 1290.32 480.384 1290.96 481.089C1291.61 481.793 1291.93 482.673 1291.93 483.729C1291.93 484.433 1291.81 485.049 1291.58 485.577C1291.28 486.047 1290.99 486.487 1290.7 486.898C1290.4 487.308 1290.14 487.69 1289.91 488.042C1289.61 488.394 1289.47 488.775 1289.47 489.186C1289.47 489.714 1289.67 490.125 1290.08 490.418C1290.43 490.653 1290.82 490.77 1291.23 490.77C1291.7 490.77 1292.22 490.565 1292.81 490.154C1293.34 489.685 1293.84 489.098 1294.31 488.394C1294.72 487.69 1295.07 486.898 1295.36 486.017C1295.66 485.079 1295.8 484.14 1295.8 483.201C1295.8 482.027 1295.57 480.854 1295.1 479.68C1294.63 478.507 1293.95 477.45 1293.07 476.512C1292.19 475.514 1291.11 474.722 1289.82 474.135C1288.53 473.548 1287.03 473.255 1285.33 473.255C1282.69 473.255 1280.66 473.93 1279.26 475.279C1277.85 476.57 1277.14 477.949 1277.14 479.416C1277.14 480.531 1277.52 481.558 1278.29 482.497C1279.05 483.377 1280.08 483.817 1281.37 483.817ZM1317.63 483.817C1318.92 483.817 1319.95 483.377 1320.71 482.497C1321.47 481.558 1321.86 480.531 1321.86 479.416C1321.86 477.949 1321.15 476.57 1319.74 475.279C1318.34 473.93 1316.31 473.255 1313.67 473.255C1311.97 473.255 1310.47 473.548 1309.18 474.135C1307.89 474.722 1306.8 475.514 1305.92 476.512C1305.04 477.45 1304.37 478.507 1303.9 479.68C1303.43 480.854 1303.2 482.027 1303.2 483.201C1303.2 484.14 1303.34 485.079 1303.64 486.017C1303.93 486.898 1304.31 487.69 1304.78 488.394C1305.19 489.098 1305.69 489.685 1306.28 490.154C1306.8 490.565 1307.3 490.77 1307.77 490.77C1308.18 490.77 1308.59 490.653 1309.01 490.418C1309.36 490.125 1309.53 489.714 1309.53 489.186C1309.53 488.775 1309.42 488.394 1309.18 488.042C1308.89 487.69 1308.59 487.308 1308.3 486.898C1308.01 486.487 1307.74 486.047 1307.51 485.577C1307.22 485.049 1307.07 484.433 1307.07 483.729C1307.07 482.673 1307.39 481.793 1308.04 481.089C1308.68 480.384 1309.5 480.032 1310.5 480.032C1311.32 480.032 1312 480.238 1312.53 480.648C1313.05 481.001 1313.55 481.441 1314.02 481.969C1314.49 482.438 1314.99 482.878 1315.52 483.289C1316.05 483.641 1316.75 483.817 1317.63 483.817ZM1293.95 495.787C1293.95 497.43 1294.45 498.751 1295.45 499.748C1296.45 500.746 1297.8 501.244 1299.5 501.244C1301.2 501.244 1302.55 500.746 1303.55 499.748C1304.55 498.751 1305.04 497.43 1305.04 495.787C1305.04 494.144 1304.55 492.824 1303.55 491.827C1302.55 490.829 1301.2 490.33 1299.5 490.33C1297.8 490.33 1296.45 490.829 1295.45 491.827C1294.45 492.824 1293.95 494.144 1293.95 495.787Z" fill="#E4E4E4"/>
<path d="M1230.44 500.155C1231.9 501.608 1233.45 502.292 1235.11 502.209C1236.77 502.126 1238.27 501.421 1239.59 500.093C1240.92 498.765 1241.63 497.272 1241.71 495.612C1241.79 493.952 1241.11 492.396 1239.66 490.944C1238.83 490.114 1237.79 489.368 1236.54 488.704C1235.3 488.04 1234.05 487.542 1232.81 487.21C1231.56 486.878 1230.42 486.733 1229.39 486.774C1228.31 486.774 1227.52 487.023 1227.02 487.521C1226.52 488.019 1226.27 488.807 1226.27 489.886C1226.23 490.923 1226.38 492.065 1226.71 493.309C1227.04 494.554 1227.54 495.799 1228.2 497.043C1228.87 498.288 1229.61 499.326 1230.44 500.155ZM1232.81 518.951C1233.43 518.329 1233.8 517.706 1233.93 517.084C1234.01 516.42 1234.05 515.756 1234.05 515.092C1234.01 514.387 1234.05 513.723 1234.18 513.101C1234.26 512.437 1234.59 511.814 1235.17 511.234C1235.88 510.528 1236.71 510.196 1237.66 510.238C1238.62 510.279 1239.47 510.673 1240.22 511.42C1240.71 511.918 1241.07 512.437 1241.27 512.976C1241.4 513.516 1241.5 514.034 1241.58 514.532C1241.67 515.03 1241.75 515.486 1241.83 515.901C1241.88 516.358 1242.04 516.731 1242.33 517.022C1242.7 517.395 1243.14 517.54 1243.64 517.457C1244.05 517.374 1244.41 517.188 1244.7 516.897C1245.03 516.565 1245.26 516.047 1245.38 515.341C1245.42 514.636 1245.36 513.868 1245.19 513.038C1244.99 512.25 1244.68 511.441 1244.26 510.611C1243.8 509.74 1243.24 508.972 1242.58 508.308C1241.75 507.479 1240.75 506.815 1239.59 506.317C1238.43 505.819 1237.21 505.549 1235.92 505.508C1234.59 505.425 1233.27 505.632 1231.94 506.13C1230.61 506.628 1229.34 507.479 1228.14 508.682C1226.27 510.549 1225.32 512.458 1225.28 514.408C1225.2 516.316 1225.67 517.789 1226.71 518.827C1227.5 519.615 1228.49 520.071 1229.7 520.196C1230.86 520.279 1231.9 519.864 1232.81 518.951ZM1258.45 493.309C1259.36 492.396 1259.78 491.359 1259.7 490.197C1259.57 488.994 1259.11 487.998 1258.33 487.21C1257.29 486.173 1255.82 485.696 1253.91 485.779C1251.96 485.82 1250.05 486.774 1248.18 488.641C1246.98 489.845 1246.13 491.11 1245.63 492.438C1245.13 493.766 1244.92 495.093 1245.01 496.421C1245.05 497.707 1245.32 498.931 1245.82 500.093C1246.31 501.255 1246.98 502.251 1247.81 503.081C1248.47 503.744 1249.24 504.305 1250.11 504.761C1250.94 505.176 1251.77 505.466 1252.6 505.632C1253.39 505.84 1254.16 505.902 1254.9 505.819C1255.57 505.736 1256.07 505.529 1256.4 505.197C1256.69 504.906 1256.89 504.533 1257.02 504.076C1257.06 503.62 1256.89 503.205 1256.52 502.832C1256.23 502.541 1255.88 502.354 1255.46 502.271C1255.01 502.23 1254.53 502.168 1254.03 502.085C1253.53 502.002 1253.04 501.877 1252.54 501.711C1251.96 501.545 1251.42 501.213 1250.92 500.715C1250.17 499.969 1249.78 499.118 1249.74 498.164C1249.7 497.209 1250.03 496.38 1250.73 495.674C1251.31 495.093 1251.94 494.761 1252.6 494.678C1253.22 494.554 1253.89 494.513 1254.59 494.554C1255.26 494.554 1255.92 494.513 1256.58 494.43C1257.21 494.305 1257.83 493.932 1258.45 493.309ZM1250.17 518.515C1251.34 519.677 1252.62 520.258 1254.03 520.258C1255.44 520.258 1256.75 519.656 1257.95 518.453C1259.16 517.25 1259.76 515.943 1259.76 514.532C1259.76 513.121 1259.18 511.835 1258.02 510.673C1256.85 509.512 1255.57 508.931 1254.16 508.931C1252.75 508.931 1251.44 509.532 1250.24 510.736C1249.03 511.939 1248.43 513.246 1248.43 514.657C1248.43 516.067 1249.01 517.354 1250.17 518.515Z" fill="#E4E4E4"/>
<path d="M1208.35 566.513C1210.41 566.513 1211.99 565.897 1213.11 564.665C1214.22 563.433 1214.78 561.878 1214.78 560C1214.78 558.122 1214.22 556.567 1213.11 555.335C1211.99 554.103 1210.41 553.487 1208.35 553.487C1207.18 553.487 1205.92 553.692 1204.57 554.103C1203.22 554.513 1201.99 555.042 1200.87 555.687C1199.76 556.332 1198.85 557.037 1198.14 557.799C1197.38 558.562 1197 559.296 1197 560C1197 560.704 1197.38 561.437 1198.14 562.2C1198.85 562.963 1199.76 563.667 1200.87 564.313C1201.99 564.958 1203.22 565.486 1204.57 565.897C1205.92 566.308 1207.18 566.513 1208.35 566.513ZM1223.32 578.131C1223.32 577.251 1223.14 576.547 1222.79 576.019C1222.38 575.491 1221.94 574.992 1221.47 574.523C1220.94 574.053 1220.5 573.554 1220.15 573.026C1219.74 572.498 1219.53 571.823 1219.53 571.002C1219.53 570.004 1219.88 569.183 1220.59 568.537C1221.29 567.892 1222.17 567.569 1223.23 567.569C1223.93 567.569 1224.55 567.687 1225.08 567.921C1225.55 568.215 1225.99 568.508 1226.4 568.802C1226.81 569.095 1227.19 569.359 1227.54 569.594C1227.89 569.887 1228.28 570.034 1228.69 570.034C1229.21 570.034 1229.62 569.828 1229.92 569.418C1230.15 569.066 1230.27 568.684 1230.27 568.273C1230.27 567.804 1230.07 567.276 1229.65 566.689C1229.18 566.161 1228.6 565.662 1227.89 565.193C1227.19 564.782 1226.4 564.43 1225.52 564.137C1224.58 563.843 1223.64 563.697 1222.7 563.697C1221.53 563.697 1220.35 563.931 1219.18 564.401C1218.01 564.87 1216.95 565.545 1216.01 566.425C1215.01 567.305 1214.22 568.391 1213.64 569.682C1213.05 570.973 1212.76 572.469 1212.76 574.171C1212.76 576.811 1213.43 578.835 1214.78 580.244C1216.07 581.652 1217.45 582.356 1218.92 582.356C1220.03 582.356 1221.06 581.975 1222 581.212C1222.88 580.449 1223.32 579.422 1223.32 578.131ZM1223.32 541.868C1223.32 540.577 1222.88 539.551 1222 538.788C1221.06 538.025 1220.03 537.644 1218.92 537.644C1217.45 537.644 1216.07 538.348 1214.78 539.756C1213.43 541.164 1212.76 543.189 1212.76 545.829C1212.76 547.531 1213.05 549.027 1213.64 550.318C1214.22 551.609 1215.01 552.694 1216.01 553.575C1216.95 554.455 1218.01 555.13 1219.18 555.599C1220.35 556.068 1221.53 556.303 1222.7 556.303C1223.64 556.303 1224.58 556.156 1225.52 555.863C1226.4 555.57 1227.19 555.188 1227.89 554.719C1228.6 554.308 1229.18 553.809 1229.65 553.223C1230.07 552.694 1230.27 552.196 1230.27 551.726C1230.27 551.316 1230.15 550.905 1229.92 550.494C1229.62 550.142 1229.21 549.966 1228.69 549.966C1228.28 549.966 1227.89 550.083 1227.54 550.318C1227.19 550.611 1226.81 550.905 1226.4 551.198C1225.99 551.492 1225.55 551.756 1225.08 551.99C1224.55 552.284 1223.93 552.43 1223.23 552.43C1222.17 552.43 1221.29 552.108 1220.59 551.462C1219.88 550.817 1219.53 549.995 1219.53 548.998C1219.53 548.176 1219.74 547.501 1220.15 546.973C1220.5 546.445 1220.94 545.946 1221.47 545.477C1221.94 545.008 1222.38 544.509 1222.79 543.981C1223.14 543.453 1223.32 542.749 1223.32 541.868ZM1235.29 565.545C1236.93 565.545 1238.25 565.046 1239.25 564.049C1240.25 563.051 1240.74 561.702 1240.74 560C1240.74 558.298 1240.25 556.949 1239.25 555.951C1238.25 554.954 1236.93 554.455 1235.29 554.455C1233.64 554.455 1232.32 554.954 1231.33 555.951C1230.33 556.949 1229.83 558.298 1229.83 560C1229.83 561.702 1230.33 563.051 1231.33 564.049C1232.32 565.046 1233.64 565.545 1235.29 565.545Z" fill="#E4E4E4"/>
</g>
<rect x="1120.5" y="381" width="174" height="174" stroke="#E4E4E4"/>
<defs>
<clipPath id="clip0_327_8009">
<rect width="175" height="175" transform="matrix(1 0 0 -1 10 185.5)" fill="white"/>
</clipPath>
<clipPath id="clip1_327_8009">
<rect x="935" y="10.5" width="360" height="360" fill="white"/>
</clipPath>
<clipPath id="clip2_327_8009">
<rect x="380" y="195.5" width="360" height="360" fill="white"/>
</clipPath>
<clipPath id="clip3_327_8009">
<rect x="1120" y="380.5" width="175" height="175" fill="white"/>
</clipPath>
</defs>
</svg>
